<mxfile host="app.diagrams.net" modified="2024-02-12T01:20:28.142Z" agent="Mozilla/5.0 (Windows NT 10.0; Win64; x64) AppleWebKit/537.36 (KHTML, like Gecko) Chrome/121.0.0.0 Safari/537.36" etag="ry1njpz9YIQMyemJx9y4" version="22.1.17" type="gitlab">
  <diagram name="Page-1" id="1PJKJbxK6PsmvD9glxE5">
    <mxGraphModel dx="1313" dy="2991" grid="1" gridSize="10" guides="1" tooltips="1" connect="1" arrows="1" fold="1" page="1" pageScale="1" pageWidth="827" pageHeight="1169" math="0" shadow="0">
      <root>
        <mxCell id="0" />
        <mxCell id="1" parent="0" />
        <mxCell id="Bv4HINr5L_t3ciSNorM6-1" value="" style="rounded=0;whiteSpace=wrap;html=1;fontFamily=DM Sans;fontSource=https%3A%2F%2Ffonts.googleapis.com%2Fcss%3Ffamily%3DDM%2BSans;" vertex="1" parent="1">
          <mxGeometry x="30.5" y="-1900" width="770" height="450" as="geometry" />
        </mxCell>
        <mxCell id="Bv4HINr5L_t3ciSNorM6-2" value="" style="rounded=0;whiteSpace=wrap;html=1;fontFamily=DM Sans;fontSource=https%3A%2F%2Ffonts.googleapis.com%2Fcss%3Ffamily%3DDM%2BSans;" vertex="1" parent="1">
          <mxGeometry x="30" y="-1900" width="770" height="70" as="geometry" />
        </mxCell>
        <mxCell id="Bv4HINr5L_t3ciSNorM6-3" value="VeggieLens : One-Stop&lt;br&gt;AI Platform" style="text;strokeColor=none;fillColor=none;html=1;fontSize=12;fontStyle=1;verticalAlign=middle;align=left;fontFamily=DM Sans;fontSource=https%3A%2F%2Ffonts.googleapis.com%2Fcss%3Ffamily%3DDM%2BSans;" vertex="1" parent="1">
          <mxGeometry x="120" y="-1885.5" width="100" height="40" as="geometry" />
        </mxCell>
        <mxCell id="Bv4HINr5L_t3ciSNorM6-4" value="Predict" style="text;html=1;strokeColor=none;fillColor=none;align=center;verticalAlign=middle;whiteSpace=wrap;rounded=0;fontFamily=DM Sans;fontSource=https%3A%2F%2Ffonts.googleapis.com%2Fcss%3Ffamily%3DDM%2BSans;" vertex="1" parent="1">
          <mxGeometry x="365" y="-1880.5" width="60" height="30" as="geometry" />
        </mxCell>
        <mxCell id="Bv4HINr5L_t3ciSNorM6-5" value="Quiz" style="text;html=1;strokeColor=none;fillColor=none;align=center;verticalAlign=middle;whiteSpace=wrap;rounded=0;fontFamily=DM Sans;fontSource=https%3A%2F%2Ffonts.googleapis.com%2Fcss%3Ffamily%3DDM%2BSans;" vertex="1" parent="1">
          <mxGeometry x="425" y="-1880.5" width="60" height="30" as="geometry" />
        </mxCell>
        <mxCell id="Bv4HINr5L_t3ciSNorM6-7" value="History" style="text;html=1;strokeColor=none;fillColor=none;align=center;verticalAlign=middle;whiteSpace=wrap;rounded=0;fontFamily=DM Sans;fontSource=https%3A%2F%2Ffonts.googleapis.com%2Fcss%3Ffamily%3DDM%2BSans;" vertex="1" parent="1">
          <mxGeometry x="496.15" y="-1880.5" width="60" height="30" as="geometry" />
        </mxCell>
        <mxCell id="Bv4HINr5L_t3ciSNorM6-8" value="Home" style="text;html=1;strokeColor=none;fillColor=none;align=center;verticalAlign=middle;whiteSpace=wrap;rounded=0;fontFamily=DM Sans;fontSource=https%3A%2F%2Ffonts.googleapis.com%2Fcss%3Ffamily%3DDM%2BSans;" vertex="1" parent="1">
          <mxGeometry x="294.41999999999996" y="-1880.5" width="60" height="30" as="geometry" />
        </mxCell>
        <mxCell id="Bv4HINr5L_t3ciSNorM6-12" value="" style="shape=image;verticalLabelPosition=bottom;labelBackgroundColor=default;verticalAlign=top;aspect=fixed;imageAspect=0;image=data:image/png,iVBORw0KGgoAAAANSUhEUgAAAdsAAAHLCAYAAACArDKvAAAAAXNSR0IArs4c6QAAAARnQU1BAACxjwv8YQUAAAAJcEhZcwAAEnQAABJ0Ad5mH3gAAP+lSURBVHhe7P0HmCxJkh4GWmZGpM4srZ/u91p3z3T39Ez36NnRs1oNFliBFdCSC+7xCEUQBHgA8YFHkN8RPNzhPmABEprEYsWsmN2dnd3BaLGt9dOyXulKLc9+87AMj8jIrKonZvq9jr8q0t3Nzc09PMLdwjw83BNE1OcjRowYMWLEiHGbkPTcGDFixIgRI8ZtQqxsY8SIESNGjNuMWNnGiBEjRowYtxmxso0RI0aMGDFuM2JlGyNGjBgxYtxmxMo2RowYMWLEuM2IlW2MGDFixIhxmxEr2xgxYsSIEeM2I1a2MWLEiBEjxm1GrGxjxIgRI0aM24xY2caIESNGjBi3GbGyjREjRowYMW4zYmUbI0aMGDFi3GbEyjZGjBgxYsS4zYiVbYwYMWLEiHGbESvbGDFixIgR4zYjVrYxYsSIESPGbUasbGPEiBEjRozbjFjZxogRI0aMGLcZsbKNESNGjBgxbjNiZRsjRowYMWLcZsTKNkaMGDFixLjNiJVtjBgxYsSIcZsRK9sYMWLEiBHjNiNWtjFixIgRI8ZtRqxsY8SIESNGjNuMWNnGiBEjRowYtxmxso0RI0aMGDFuM2JlGyNGjBgxYtxmxMo2RowYMWLEuM2IlW2MGDFixIhxm5Hgo2+8MWLEiPEdBHqjZIIS2RQl0kl2HUqyX8B0aveoV20LX3etGfdeMe4oxLdrjBg3iFQqQa6bpELBpenpDBVKLhULaXrttS26drXmccUYiSR3QOkUJbne3KNFSs3lKH1PmVJTGUpNpCk54RL1mKfgUK/epYSToD67nUtVJiao/tVr1D5fpd5ui2lxfcd4cyNWtjFi7AHu1ynJllWara1ZVgjlcpoeenia5uey9MCD03T0WIkKRZeWlnK0sd6iL335Kv37f/Uafe3r16nbjZtXGIlMklILeVGwuacXKHOyTIk8W7H80KKI6pgCtL7xQQk3n9+g9pldcZvPbwo9Row3G2JlGyNGCFCssFrzrADuYUVQKmXo3e9ZoFMnJ2n5UJ5O3TtBnXaPcnlfORigKaFJEZ09s0N/529/nT77WxclfCBgJgVEqbhvYwvFEG6/0TVlYKvyloHPI8nWaprrM/v4LGUfmxFLFk8yCQwR3yy4jlqvbomyrfNDTuvVbS7/t7HiYsTYA7GyjfGWByzXRDJJpaJD9943SYuLefrwh1foJCvXqZk0LS0X2JDqk+t67w/DgJUFIeKCYJTHG69v0f/yP79An/nVM9RsRmgur/U5S3l5R+neU5Z3lMmpNPXbfaF1LlZZSyWo+ey6WHF9VvLUukVakPNPspXuLOQo/cAkucdLRGyJp6az1D67Q+1zFepuNqn53MaNK15W2g7XZ/bJOcq9Y46t2RIluZ6lvm4BEiwH10b8fMDX4PJWfv08Nb+5Tv0mPzjEiPEmgN6fMWK8ZYB+PpNJyXDwyVMTrFQn6Ml3zdOxo0VaZMU3M5OVTjzl7GOyvtfRj1IelUqL/tbf+Dr9+3/3ukdh4F2lm6Tc+5Yo98SseVd5okQ9VqJJLlefLTJYe/1ujxKpJHW3mpRgeuuNHWp84zq1z1dYGVaot9H0BB4cqbksZZ9eoBxbmelTZS5PSsqkgAJDHbTYQu+ywq99eZUa31wzVu8+keJ6LHzyEOX5PFMzGTmXbxu4/NXfvkQ7//40da83PGKMGN85xMo2xlsCyVSCCnmX7rt/gk6cKNNTTy/So2+bYcWaoYnJjAwbQ7lAZ6r+HAswiX6NVrI2Xnxhk/7mX/syff35DbYi85R/zyJl3zXHFiTnW3DHNkC7gaq/u1qn+rMbbHGuU+ulrQMrk9ShPE39yQco++iMRxkP5AsFX/39y1T9/BXqYSbwKLA+Tc3mKPvYLOU/uCQTnpKsxPdTpbca/XqH6t9ao91/d1qs9BgxvpOw23KMGHcVktzxF1mZwVr9/h84Tk+/Z5lWVnIyLHxgRGlgtWZF8bJfeYQOv4lH8BoryL/zmfP09ek0ESt3DBHfLHrbTap98RpVf/eyWLrUGT/WC+s4974FKn73UUqzFT8ovwd7SHYU6t+8Ttu/+Cp1zlc9ig/MGs49NU/Fj6yQe4ytZc7Pq4JI7Ce/WwG8y936p69Q67VtjxIjxrcf2ivEiHHXIJdL0bFjJXrHk/P0iU8eoYcfmaY8K4JMxvE4LAQUpIUhOsLaXDxaWFHYMiLkfn2rSf/g7A5dvMH3iJHKicO9Wod2/s0bVPnV8x4xGoVPHKaJnzxJydz4d6ZjlSArdAwnb/1zVrhXvM9tWBSGpcs/dJwKH1ohsh4kvl0KdRRwlj2U+etc5n/6EnXXb3zoPUaMmwHuxe9cS4gR4xYCCvXd716kj338ML2LLayVQ0VynKTMLg4Anf9A2eD2Z78qBKWHw1EIyFF48hQWD+Y2fX6tRv/oQpU2OgdXuOMUFxZ7aH5rjXZ+6Ry139jxqB44+8zbZ2jqzzxIznzOI94EuAzNl9la/CcvUWejSfn3LYqSTWOCVSq6vsaV/duikFHmZ9Zpg8vcvVr3iDFifPuA6ZX/rfHGiHHnolxy6a/9jSfoL/4Xj4pFOzWVpVQqKR25QDtzDQPit8PeD3gRhzCSCR97bH0g8aCHoDx2nOeHHjqSd2nSTdFLlRbVRnyaMijzAYDFIdJHSpQsuzJc2q92vBii5GyGpv/CQ+SuFKLLfFCwjNRkRs618P4lKn3fUZkMJas87RP2OcKf5AeRvp2cZcM+DtBuBpwHZl1jgpfMro4R49uMWNnGuONxzz1l+qt//Qn64R85wdZt+NtXC9Jx8w86ehyqVNGzi4vDg4bFBTxXw+qGlThcHAOF7dE9QB8tppO01u7Sy5ZCtHEjylbhsjWfeWiKOtcb1F2tEbFln3vXPBXZ2g+X5WaQ4CeH9L0T5B4efvd7IxhSqhy+ZYpWweWEZY/JXphkFiPGtxM3P0sjRozvMNJs1X3/xw6Rs9d3sNKDs18VJKB+mwbeUXR1QcehNJtPESWDUXIS9BOLBXpXMcPK10tv4WaHVNMnylT+9HH5bhZLHBY+tOzFvDmQOODpoYZGpQF9uAZHIzWbpak/eZ/5pjhGjG8jYmUb447H2+ezNPnGJqVqbaPYopSc+qHcbKUpfrjsDPitdIAtz5YThch8jKOA5bqYc+i/OjlB9+fNA8LNWLNRyN43RRM/dS9lHpgiZ8Tsa1FUXnG/rTjgqaKIauWGywv6QU/BWSlS4aOHZLWsGDG+XYiVbYw7Hg/dUyKn2qLcKhaoZwIU10BxMmzFB0hcuIu24uFX/nBa8XNayIBfXZsHNDt/eO2wh8VMkn5gPk/pZJKj+3srv3FxIUAJ4TvaiZ++16MMQxSY9Z5VggdYKSrqASGShvPy/MABTmMIt2poOfvErAyDx4jx7UKsbGPc0ZgoOlTEUoesNKBsCxd2KIHvTcMKEAgoQS8urAQ1HHaBCEUyhCgeJYXzYnxoOkvfP5PjhpgwVtqYLPaR+xCc5bzsoDMK9pA1fL1wjzBc5AGihrsjad6xF+RBYz+MtwDOTJbyH1hiz43UaowYB0esbGPc0diudOj9J4vSySe7fSpc3KXcNbZwBzN92VUFgH51lBJW2FEBxWHJAZPKUDcgw4oX2P4gCk6SfuZwgT40leV+fzQfcCNWnSyReIBZwjaQ6kZSSjq76vYpRM6Pj9Qe1vXIIXc7z72Ah7PHZ2W9Zv1cCbsRiatD+144RoxbAdxlB7lFY8R4U+GRY0X653/5IXr4iP9espN1aPf4BLUmsuiZjSIMd9BDNDSDEM8QLB5NH1ayopQ9v8btmTfR87st+ttvbNMla8ELKKxbNWx6M4Byi7JYx0LqwHhvKP0Bgay0viSrfdZb46VNqn/hKrnYbIL/0kt56my1ZCnNzvU6i0nIZgzts7s4EWo8sy7pZIODzu09pxh3F3BLxndMjDsWH3xkmv7lzz9I89ZQKW7oXjpFu8cmqDlttnEzEdatLiSrR9Y4WwnatHF+O00Y4Xg7rYV6t0f/4Wqd/tmlCjWUZwRuRgnL96ww2Dj/BFv/vX3KEWuS+cP5Iji+tNFQy/dWPUyoQj9oeeQhAErTMWtjRwKjJGwJdzealCq6VH92XXZh6lyry1Z+PVbOMWLshfg72xh3NB44WqCf/a7FQEcJH4aUU40OdQquKN4AhFf50TWzHzQctjJUFo3DYYfVD9jp4FfXpqnfTuP58c75vrxD55o9Ol2P/v5WISnwA5GeqP3CVm5SogOmD/OL0mTaSEU1CmA/aN6MJOd3qxQ0gHLjm+EkFtIOQbPRc5NlLpkXVnDusVlKn5wg91iJUpNp6u22qTfiu+kYMYBY2ca4o/HHP7pCT5wokRuxfVuy3ZOjU85Q3+FbHZ2mKoWBQjTBAT3g8iGup1FGKVGwKDQ9oP6Ay/xecoHF77DCPZx16FnuuDfHbSqg4gY/0dhTAUZEj00RFblHFgKvim5kk3iksBUsqi7DlujKZoeW+VgrO/KO91Yq4P0AdZtkK9c9UpSdjVJYnYrL1d1mKxfrcsaIEUKsbGPcschnU/Shh2fo/Q9Gf8KB/tdh69bZbbKFy9YH9muVTtnrmaGM9LAVqEL9AeWIw6MPXM9v022/KmkbNo+FCSdBFe6sv7HbGliNIxERZy97uKeyvYUYW1bQb6IoAUXK/g8/V6Nf+OV1eu/LNfqRL1XI5fpaL6alM2u6PnM4y9tVHwl+QMKm+NmHp6nf7MnQcowYYcTKNsYdC7xK+4vfc4juWTCbvY9CstXjjrdPzSnr/a26tpK148Rrh73DponJZtGAIavXilNepUUoeKwoNZNJ0ovVDl1vH3yzAlsxoU6gBIVk0ffEiDRj65gPORuwsGfccG+UnKG1kSMAnkfPNuhP//YmHdroULneo1KjR0+cqdMPf2WbiuzfKTrUSSVZ6SIFC8T/mHLfSiRyDmUenJIlLLEkJIaWY8RQxMo2xs0DfRn3tu6JsszizL5jVpbFy3ibk2OYTd5nofPHHdeVbvmmgUlRP/5dy3RkJsN6qz+yUwXVqbYp1exSO+9SH5962LzqDyhK4w3whWHzqGIFu4Y1Tg/lGfB6B6A0BqzbiWSKPr/VoJsekIRIL4tIoJjh+BtII4pSaeyCZayMEEbx29d0ZaNN/+WvbNDx1TazSopAknuvtOhT39il2e0uXZ5M024hSb0DDF3fCqWccJJi5aI9NL617p1YjBjmXo1vhxg3jmyKih9bofy7F+UdFhZR6DW6lOKn/G69Q0mOx6L4iWyS2mcq1Hplm7obDWo+v0mdS8MbkB8EC3M5+uX/+8P09uMl6sPM5bsZHaYq3igFXJvPU/XIBPXsdZQtRTfwiwuC5xdvyB8A6GFaCAHZNi+HJblH4/hvXKnS37tcpcv8YALrdC+r70aRgEU5/Lp7JKQYN1AevR6D3sZKP4jzoOdr02HF/tCXt+mnf297IGI8EvS5hwv0zz84QefngptThPO7HehV2rTzS2ep+mvnZaehGDFiyzbGDSHJlkPhwys0+bP3UY4VrbOYp2Q5jZ6MEi7WQ2KvvCNNULLgUirLinghJzvSpE9NUP7pBco+PkP9epd6Oy30jfuzeD1LxVnMkcPy3/u9R6iaTtEX2GReY/pX2KSospgX2S1yt7zGvTa2jE97nXuKHwDwyUu7iLIamoDLOeRqceAXshcHKJ922sLPftsF7HilqTuAFcdly6xW6PIL6/RvXUtJaFKItuXfLPYQA2U8yJvzlLPhMEgHLQHSi4BQQqHbiBD8kWeq9P1fr1CJlW4Yyh5OdmStTe96vSFprpcdqvAD34ELfYPAloeZh6eofb5KnQsVjxrjrQzcel5vECPG/pAouTT15x6k/ONzrMUOYBZZkBvPs0ax3VnlNy9S/ZtrsoBAf8d/15UoOpTIpGQo2lnKy6L66RMl6aDT7McOOhUnSRlWrg3WRDkWWeNbeoHTQtG+jeUvsXI6xPTvoQ4d6ffI5bS92TxVYOFmoYotiCKDR368sOeP0hQDGrviZb+tYAVWOpUX5uG6cLYblL20Q6krFfoHrkO/mMuYOAui8Ly0mIXbtapfJHFU2Oq8Gct4XFqQvbO4rSi1EvQ//KsNeuAMNsU339IC+8s7QVuFJH3hgTz9x3dO0Jk5vt5cZ1KF1nkN6jVEvxHY16jxrTXa/H+9IN/oxnhr49vVXmLcJYDCK37PESp+6ohHuXnoTdirtqn6O5eo+vkrlGIrOXOKFezxkuxcAys5xRbyQW9WtrM5DVuLnLCXSNKj7P/RXoeeThEVFwrUOlSmvnw2xAwqXBXgAIjwSile9oeV5QDKC1j86ldYtGSzSxlWsplzW+TU2Mpn2odmJuiSt4zgfuFJHAmRhiwPJnbfsJWMWMRQahIaAUTuVRbm+SsvL9FPvDFFtLlOtcuvUqe+zXRcVZVuznz8+Sfo2oRD/+Sjk/S5R4K7IOlCH1Ic/tH6GSXPPs8o2PEYQt74xy9Q/Q+uSjjGWxfj788YMUKARZt7zyIl8yGL8CbgWxV8iBJii22jQanp7G25QZP8d5zz+nOsET5ZcsTC7RRdk5GXv5QFQNgqVyTCvOqHQARtmZY/0e5RerVC2bNb5G6azcwR+5W0Q3+3mKeX2WL/dkDrH0pnaCOCfQAKSgruyREaH8Y3BqgOOF6VRGGyQfSlz79rUG0JfmBq7VynysWXqLl5RerRV7oKPGIBtjpOyGSzK9Mp+szjZT6KtMkW7zhgRrW9wpbWz17K1gb4Gl9dpc1//CL1rBGbGG89xO9sY+wP3Omk75+kyZ+616ykczugPSrjtuXBQBe8ye7nkg69UOvSYQ7PlDPcGpC/Vwbxqt8vFzr3QVg7XI0GXQ9DsPwM+Ls92Xc3e2mX8q+uU/bCFqXYore46OWkS79YGL1TTxSgAEZhXJyNG7Z4bybdmLRL1ST9hdOH6JGq9x01K1oglc5Tbu4oZWcOU6/TpE5t/HetOrqBrPD+9vHTdQ4RPXM0I7OVR9VPuD5upH4g25nOUOPra/FQ8lscsbKNsS8kyy5N/dz95BwuepQ7F9q59rjLPcfe3VqHnl6rUiGdoi6UvMR7PasqV9uS0c5Z2DxepQGSBh6PxmFMyko1O5S9uEvF565S5vIupeqsZPHeGix8gLvNP7+ZS9NX3Nv3sKHYrxIeBTv9zcqKwnuvZOkvnz/JnRTL9uT3oRzZ8qdUipLJNGVmVigzvUJ9KN063ulGQ21dLeU919o0U+vT2TmXqpg4dRuBnZcwI7/1Gj8UeNc7xlsPsbKNsTe4h0qfKFP5J055hP3hdnTAtxqwVk7z8RvdFD3c6tJSJkl9zKLGrGdbwQI4n8A5eTxKs/1wEGSZ7laTsue3KPfyOmWusJJtd6mChRecJF0uuHQt49DFYpousTV7Je/Svy9kKJNNUb1LVGZru8VyQiUZC7wvPWjVBxSnZqanclBhEYAMWehCAkIKILyoxfFdl/7IhQV6oM5WLRLhvXrWJcpnKJFlqx8Kt80PKxyXdLOULs2Qky9Rv92ibkuH5EeX2+326f5LTbZ0+/TSIbY8ub4PCuQtOexVPXzuqQlW6r99aX8z7mPclYiVbYw9kXASVP5jJ2XR9bsVNVaUtXafPrBaoWKvJ8s79vHOFIpGD0AVMMK2X1w+QGK6s9OizKVdyp3epNyZTXI3aqwcunS6lKYvzxfpuaksffZwiV6ZytAfzmbpTDlDr7L/DMfPlB1aZGvr0YkUTbkJOpxnl8tSlVd+KEvwLaWXu48hgoGSVXkO3rV6GChVODYdB154sgc84XSCKFoIUmZPRhhQtDb9Y1cn6cevHKaMvETm8y3mKMnKNuGwnSt8LA1WYqfH4T4lnQy5xRlKZfLUZQu31woO2fqWbTDvpa2uUF5ayVCH7/MDAez7TNKvdmSRi/i97VsXsbKNsTe4o5/+S4/I7ihh2BR50g+x2N9pvqnBZbzIhcfg7dOVNqWb6BT7ZvELWFW2YpXzgesdCKHTZ6slfa1KhVfWKXtmi9Jsxfbrbdri9N+azdNvHyrRMzNZOsfKdCPvELr5treala50hGFSAHoeWRZZ2eLzpjm2uO8vp2g6zbxcpzCQULVSvSiaSTYW4SUUxbuPdFBuY9OxXATDGw0MlSsYPRJHaln60UsL9NBukdNwooJRtHZ9S+XIzG1k7gt2ciXKL55kWpLa1S3q94ILStjDyThg4T58gR+MWj16eSVNLYxq3A5kUlT/z9eou97wCDHeaoiVbYw9UfiuZco8NC3fu4YR6FDZDVstEgqSAoiyckaC85Ku0OrUZfgRHkvMXspnVJ7olt/gTvpetnBPNFjhYuKSdOYcwWnMJ0IGolz5cLcalFmtyjBx4eU1ylzeYauWrapOlzbcNH1lIU+/u1ykVyfTtMP1J8pVCxcqhuoNuAMoq+dC8R5hS3eBLd8ea8BqN0EdUwNDCJ+nrTAF4fB+ESXHo9l5hrLfF6AMf+D8FH3f6gLlu/zoA+VX9Na+VoGoIKwbzQ8yflmseAaGlJOpNHVqW3xh/a3vlAP5aK3Bt7LZpdUJh15fSktecg+ZyAH2+1ADhOseaRvPr1Pnws2tmhbjzkWsbGPsCawQlX27Wed4CHt1PqPitTM7CFhWWGFIOESTYIgm+YVpEcDbvi1WiO9jm7EES3WnRenthuyNm75SIWe7SdmL25S5ukv51zYoc3FH/FiQIsEKINlja5gzem4mR//pRJlOl9PUZIXRGygKLoans23lCjd8hOPh6rarWX7gOFxI0qFsghr8wLHNDwi3C2HFMQ4H4VUM0vApHK2l6afOzNF9tbKhZVn5YbKYLbfLJ1xlCxEmvlQMiJ7fQyLlULo8y0p3gjps4fba/rAyuMK1leX6w7Z9zx9K02YpZeKtLAEJhmg2xiljFK358ia1Xh09iSvG3Y1Y2cYYi2TRofx7l279+1rufEZ1XgexICIRkRZDqLZFPA473G8/yu4Jr0vGRvRurUPJK9vkrtXEck3ttijJyjXBHb9KBfeFvEt/sFSgr7JFW4VVFsrSSGSXPVCctg6xlSoAv8YLP/vxmtKmp5m4zAp3Op2kOpezdguW4Q1PVropoNx82PLgjbzGHP6ZN2bou7bmKdvzRlHSLlu33ntaVAIOWLQts7HFoLIw5iGC+Ucrh5HK5CjhpKm9e50rz1SO/d7W+PDbp8lqj+6/3Kbnj2Roqzg8imMli4REh3gGDxLsNp/boNZrrGy1yDHeUvCek2PEiEav3pVdfGzY/cmBLJlQJzPogCM6nxuxkMYB82z2uxDBNmf9WTU/PfQa3MGPSK7k06UM/dLxCfrWXI5qeOkaAk7J6nsFqj8A0GCsKTQOh/Bb6RUIu6xwj+SS9AhbZDNOYtCoRaGFwcLw8JBkS85hk9it9ym73aU0Kxq4oCVaPUqNsZQPdG2YFasz2WlEcoSI+YZDn7w8QZNta5nKtlnLWsBl79db1G+2EPAEeRhRpESSHxbnjtPkqacplTUPjPrNrfH7vxhOvu9Kkz72bJVSXEeRYDLqFecTrt+oBxT7nktOZePZyG9hxJZtjLFwT5VlU+zUhOkAR/Rp+4Kk9QTYnS98gf7b8tvkg0LzGFIO6CzZCU/oGYDJ6BPf3+/RhMfSq7GyxfBlBOos5/mpnMwu3vY+IRkoSAsI4wjH6dCwTbf9DjOg084m09TlP4cVSJe1MoovfMwDf4kt6XuKSYKe3OQfxAHyjS8bgqJQd3uU28LRpQz7s+xPs8LNsDnv1jgPhGt8VMwhViCXT0SNqK+w5bpfiNISjwTpz7wyT0/tzJIr3ZKBvDPHE0iHT6DJR8MsZymJ7DztCtUTFxg+J1tkeo9aW9c8uoFt5Spmdrv02nKWrk2OsG7tJMPJR6L5zTVqvrzllT/GWw2xso0xFslMiso/ek/kTORxiPymcpQIpg8pRIZQIMSLOtDMZk4XJVMA8h5yGhx/D+f3EGuEfqdL/VaXO/3hXrLDfF9YLNGXlnK0g5nLHEa2ogRDroBdW2dJPBP7rK3Ap0WGW3QKNOVO00J2jo4V2TpLT9CRwlEqpPI07ZYp4+So3qsxswpHugSV2brtseBdVpopPvLrXTkyFQyHs+Ll54Yknw6Gi5GdKj0oNrjJHlvHiGe+DJQuK2Lw9LxNiLCnk61c7REK8VpxY6F87Ga6CfoH3zxC5STWLUYEhEHLs+tNRvMfdhDHPFKpONg/CHPZJBoyLLAsJ1+mXqdlFr8QXnCH+BjYkH662qH/fG9h/OdAUVFecaLQenWbWs+uS1Gnp/EttUOPvG2GJibSdOxYma5erWqxYtyFwG0RX94YI5F9Ypam//IjlCx5Pe1+MabTuWGwTFijOjQHBTDKohLFDIuRe7b9Dh/bQGf9060+/XyyQ/l2h3q7Tc4sKKfOFudz01n67NGSzGRGAcGRlDwl64jO01ickG/cvhTTsyH56TdFpXSJZjOzVGaFmnfykgqxRrqPbq/LeSVptbFKl6sXqdIzizkAkP3G1Tade61JLT6P4WqCrDBV5UdXKuq6Pp2i2myExccw5xQs437x519dpD91ZoUyCe8TH8hxMDGKvWzZ4rMqKZbIh99TxApNY1e6fLLFLioY6fHfbdPmK1+g1uY1DiJShPKvcb2UMqntH39sin79iRK1o083EuF70kF5+P8QK233G2t05EyFFewszc9l6eFHptlg79Ec+597ZoN+//cv03/6v07Ta6/Hk6juRpg7LEaMEcD+s7P/zeOyP2cAfNfIzaN3ENxvAwIdupVvlOI9aOdv80PUA2zJ/mK/S5ONNvWrwUUSOsz7Bwt5emaWLVq2/rWfR6EgByOfYsGy24NChWxEhwqq6eBOsJJdya+Ikk0ng2sj28pWrbGw8l1rrNG56nmqddnaZbRaPXr9jRZduMTlF4pCQ345DEbRfYCjmyFWuA61CsxnTvqm8YefeYSybMlL3nigyqUpgW9rGX185iNHhy1cPNYgX0R45eUySP308YTFLivKfsalpMPXBYtgIE2rS/1GUx7CGuvnafv1r4mVK2IklV+/AMKvLWbor/3EPF0vQVvvD7i8KM+RTIJKrkuP8UPqe8suFblMxwsudbE2tvUJmQ9Til//tXP0d/67b9DFeA/cuw7xMHKMYWj/yR2Ee6hAuXfOB5QtlIlxjV86GCF47i2A5mHDVoYCm2U/eZv+bAgoP8iWZEGKraePsUU0BUVr58t4tZSl3zpepjp3nPrOFdDhYGGHUD7kVMRFF46AD6SFIp7NzNA9xXtY4U5wvlgN2PDZ/OG0YZ5cKidDzSh3o8tlTvZoagrXrU+7uz1rFBz8QVlB2HGaCDRvmLmboGSHVZOboC4fY0XtAz91Zp7evzHDdcFlhayCWZIxwZUjdcYKEzOSUVn4vMoUyboeWuHs9nMuJQpZSqbZ5Wsj6eFieccmP3TwU5CTyVOnsiUrTVlShpDlh5WL0658e7sXsly2UipFn5jJ0A8ulekH5zL00ysFerycpqWcQ1Ne+0kOvUPQsHFPnCjT0aMleu7ZddrawkSwGHcLcAfEyvYtjkSWO3cnKRuzO4fylHlgUrbRyz4yTYUPrpAzn4NGMLzo0EKKR/oJqw8ZB7wnvNnO+UYwKGJU3koLxaGLfU+7R0daOinH4MXJLH1hOU873IFqX2n3m7CREEAQdCjTRI+pTFA+dbPJDB0uHJYjk2IlEy6Eh1F0G7g2aZZXcIpyjSqdioy2lopJqtU5XEXlh8EFEUC+nYf6bbrvyoQrVuB97kG6WMjfThqCPsyMmpD2T75xinJ9h+uJ5bBFKusfh3hxbjIszPE4NxlW1rIjjgFrNlHke5XDwm+hz1YxNcwiJQlW6sl0lprbqzKsDESVLM15ZPj47YfZ4g6VB8PD+Ozq/oJDH5rO0h9dzNOfOZynd09l6aFiiuYyjpQB1z4AXHgboXgo45OnJmiFFfUzf7hG29uxwr1bECvbtyK4z0LnkT45QZnHZijPinXiZ+6j/HsXqfSJw5R7aoEyD07KqlGp2exQR3MQhL/ZVP8oiWYYzvhvOcbJjYhrMe39bA2dxPCl0tiC+bcnJmjd3s+Xy4wqMv2msf5U4KAvRbznisOuyxbsqdK9tJhb4PSYdqTMPsK0br8rygbva1OwBEMAP2RNuBN8lKnaqVKH2pTLJ2lzu0tt7GogCHX6ko9N03yVFl02fCLUTbOFy4cCQ7W2DpH37J4/ACZ+/5VZ+p6rc8xvFGkix4o2cpgVMjlHVDQODA0PTHUOu6zc2KJVa3YINbb0ZQjaIJUtUKe2S+3qRsSZGYCeY113cdahCzPmXbLD5Szzpf/kbJ7+wuEyfd98VpTtsbxLOc4bn2GZlCOgUSijlhMKOFTmJX6YazS69KUvBmdPx7hzESvbtxASuRS5S3nKf3CZJn78FBU+skKF9y+JJZsqpylVSouFiw5tlBVyUNiK1saomcVCusmsoQRuhdJ2WcZxtmyelu86ibbcJP3BQoFOT2VE4UlOnAf0hPb7GEYGcVQ/ijCGjktsfWJm8Wwu/A2zzwz/4D0iO71+jy7VL9HZ6llq9VqUd3LyGVAUoHCyyawMSW+2tiiTSdDMtENra6x62cgLAnl6+Yhfy6A0wDqJAbiErL+cZo86WD5SZ+6yE6nwQnD4HvifnruXpjpGkfXLeTNkvAegUPsYVsaiIigifkpYvIJp4XxR4VgAA8pWrpkC1yhJre1r1LOWcwTsa5DjhxOHj688XKTZrEs/tpCjXzhWpvexgl3h9lRAe9nHufqweJFOyxSS4fL53X//JO1sN+mVV7aoK5Z8jDsZsbJ9CwB70WYem6XS9x2j8qfvodw75slhpZsscicHpcoNfa8OA/FjFdi4OAuDfEbxRtBBOrDyjOJlGaO+CY06/y6T3lfr0KPcGaOhPMvWzJe53mDnSn1YSQan5bmiZNnVZxYoZ9hriHeTGbZoT9J0ZlqsUBt2R68Arcd/52rn6HL9MrX6Ldrt7EocLNiososc/s+7eeGpsIWbdDr41JQ2tmAde4wCpNcjDJs2zId8zGdCfeqw9dwf8YlYuIwOK4+Prk7Rj11eQiQ/CJpt86LOJRLgw0OhWKt9SmClKShbqXiOg4snoDo/KGHFqcEJc5zkwUqUrdvGxmXqNqvWGQmH5SaowE9H9z01TX/sgTI9zQ9aE6wInXEPo1oG9QNeniIV/kHQC0cgm3PoHe+coxee36SzZ8z1jnHnInq8JsZdAwwDT/7cfTT7C49S4UPLEk6kD37ZoSy0u4qCKMN9wFiEewPyBl0Qd0Z2KnnveyNggbJjG7xWB4e8osoFBftKOiXvbi/mXXpuOkMtViawTME+7lS0DzUseE8IInegqSwdya3IRCiUYXytIonh6fY7YtV2WVtipjPyXmtsUKPbEJ4wVC7ikNcK5+kkHFpacGiyjDMbBaTTMqncYflhYCUqvMMdhXD9llsJ+hPnDpkTwWpbGD62rsleAC8mPfVlk31OB8t1tyaToGThizqHtyvUZ3q/6w8fy7lpWfiiZCYXpI4w+K/1qCU1bp9mr7foI+tdOsbKL4OLbwOyVJ59jrZfTwukAa9xBLaMECYns/RH/uhJKvEDc4w7G6E7J8bdAlizhY8fks92sLaxTC4Zg30pQa/TiFKsWJLvVmPQL8Fj9cOqMG8G+zlfdNGzrNlg93xxPk/XuLMFoOygF7Tf1eJpvQzKbRwGx4o5naRD+cM0n1swZA/ayQO2kgQkzP9XaldNPkxWndTqNajercvwchSM+jDMmO28lFuiHJ/DffdlqFA4aCVCjp4RXISVxgf/Z3a6lBq8E+ZY3xuAwxX72EaRHtotmfsSm8HfyGsLrog+9rjlpFh4RFaYqtTNIUrWK4Aw2IXRsvcoPTFvvHoeI9B7pcJKPKKeJW0IepH0gimT0iP9xhssp8EHP7hMP/kT95IzboGNGG963IYuMsZ3GphdjM3eJ37qXnIPF2+sIxuHceLQv4zus4Yg724jILppj2KPSntQjBpWRuN4w0nR9ZJLr8xkqcP1OFB47ELHSTH5B6escgZ9qHEEkDaXmaUFVrQp7z1rQKF6UFoALHC1uSpetWoVO+3d6DQMWy4mUx0pHKHl3CJNlR06cSxDKXu7PwH4bZqclfGOdA2QIsXGZH61I+9xgSCHj6lmgn7y8mFmYA68e8VnOTcAXKMUp+/BwuWw1ov47fOSCA3D5TActmwxK9nJT0qMl1wg0cYr6D3Hyrbp3XCQN7gIzDW44J47iGPYfiAcN47XQ77g0p/+8w/Te967OMgixp2HWNneZUhOpan4vUep+PHDlLRnzN5CRHcJHtAZWB2CDPfBHZEoStHtF/uxpm90yBmWL5LOJ/v060vFwDlLn6gnxQGEtZ+Eq6fkkaSDnMlMsVW7wnGjTxhxqiBtRbnT3uaGak4WsgZ9Oh+dflvWS1bsJX8xu0hFp0Qz0ymailr718oXKcyh0LBN9+Phcxt9cupepftRA+B63Ledoae2pjiA71/ZMg0PzR4Q+CZXhhk4P7kO9ikwTF2GiRzmw8kUKZEK14MpuJ2ij+2UTnt70cpFMN4APJkDDC6WRdeLBwziGZrMjrdkTU1l6I//zAM0N5fzKDHuNMTK9i5D4WOHqPiJQ17oJmD1GQeFnRRKC+GR4qy+RYH+xmFFZuyVmwOGnPVd4EEsbgCpXsymaLVkHlrC/aWcl+cHzRx8vl5Gygclt5I7RAW3OAgDqlDD4TAwTFzvNryQKYfKbnSag/RAWAbCdnwulZf3t7lMig4t6XtATQM+nzcIpYM3XE4/DSZLZXe6g1GHsLQ5Po0/ehX3JzPgm9p9zD4eC64IUZYsJ1wqU0k4ey0FXOayJqWhftKlOYsHMJJ8CnNtt6l/iU13LyyxuBADhei55iYw/gE8ms0/SOdB09n0kJh3PDlPH/jg8rD4GHcEYmV7F8FZyFHpk0coNZ31KDeOW96epS8JdmmjUOAe+2S+SiuZ5oFGwKHjDqpQxwGinHxq8FmP3ReCZs6Gf70yyntgxEMDw89MKW5iR/NHqOhiKUKDsAIMh8No97DcopcxA0YchpMB2N/45lbTw9U/DQfAwan0JB3Gu+PZDC0uYgYwInz5o6E8IZkhOHV+UPKGXMND/UcqLn34+hxHcMky/BCzx1yCfYGLI5+sycXxygavhO0yq59dnDTKwIo3lcPIhYmzz0y5BSyrd5GfFLAhAiIgW2SYaPEgDLrky7D9AHiVZxwG8UjgyyiXXfrZP/kAHTvhbawf445CrGzvFvCVLP2Re2RiVBhq2UWC2zE+hwljP8O7Bx2iFSsXeVn5hcuGUDbZobLboblsgw5lGmLl7gei40LlhnydDGXHieK3y+G5YbS7CUqJDMOD4trHEJQmDPzgwEp2pXB46BOfMGxlGga+qbXzkrJwGC4WuUA+mh6u/tlhG3h/e7hwiGbyZbrvRIYykbPTg2kMtBB2nPrhGj9fvsHMZHsy20ItQT96ZYV9zJdJ3xpFC3Bl9CHLq3ND81z1DOjsQcV59wSQwPKYg++VDaMf61GQ5NUqP0loPgOBQXkDehS8OE2v6ayyBOIMQf4BrC710EPT9HM/ez9ls7fnFVGM24dbdLfH+E4jkXfk056oxq7KJhLM3htOEsCoiUg3NCsYeVn5oWx29ihpo5eiFis50GfTDZrAnnA3iFHnLorf8wtGVFHBe3aR/s94ZZqyiOVD+0ZAFrTgUntByjsFWs4tB85vL2hquOLnPKCosWWeXUbNF58EdXvDizJIWg/qt2mQOZ9doHzepdlZdNx+nA8rw4BfYdM0vbmebqVHhdWO7ImbYivXafRpsUL0fav4rpb/YdXe5LtaG4MFLYauN8JK1zICHPZ4U1m2bHvmvTfuCpvLRh9W7WVvOF9vgCjoDaEXSa6dx2v7FYFi2XHqB4Of7ru/9yi986l58ce4cxAr27sExU8cxmwZLxSNcZboWOvXWqhgLyt5lBG6Vzob9W6KtppGyyHrmUyLrVvT5ShwLmMk7g+WgChLHkXWry0CfaBn3IAkdNQru3qKyjqdnuKyz3ghH1B6YWtTFaHS4YqfyY1Og5Wjl8pLprOSEcS3t4AtQ9KGEKbNpKdpMl2Wb2+xm10QkOWd0ABIb9OieBDuk9M2G9GXLnVo4nyHylc7VN/p0L8un6crhQ5ddfztAG8F+qh8vHMYXASrrLB6oYxZwffl21woZq/rY/5et0VJxx06E8B/QOHau8BlzvvpRD7ygR+HXBDvCNX1QIyWD9B0GinpPCh9QAOv8U3PZOl7WeG6btx930nA7IR4Bam7AKXvP2Y+8xmDKIWyH4xTlKJcNRruAfOA7FC3xGGmsbk9meZOkOVlWLP2+kmqdNBJemlG5IPySDEO8rJ3BNA4jhVSNGUNs6LvQz8trmYhGRqvougUZSJS1vHfn6Pj9lSmuGEozY6DBV7rVGijtSl54Nw1XxiGiJ/NzFE2YhODZrdJVxtXKZvMydAx4m0eWLdY0rHa26at3RZVa1DaQRk+QNe4MI9eQdD9q6m5yTVhw7HOZf1aZpP+Xf4irTo1qiVq1Ez1aKqXlXfbNwfOpNXmJw/z4CGVA8VazMlWfbJlH9ZexuE6MlIgmxnwgwp2AqpefsWks4DS2w8oiSLLOFWgxKGIGcGDm8EDwrhJ1C814UHjNI34PXqA5vkHNOPHPYBZya++ukVn4pWl7hjc7B0e402A1AJ3KDewKtR+MWooFoiKkc7VjhidfCSq3P1WOmY+Mrqa+XSdSq4ZLh1bHmaWw+PxuqkbAgYWp12zNy2APg+H9o0oXLgoGr+YnaeC7M8ahHbegU7c+7NpCnSszT7e2SJH5mGW8NHGO91Q+kp7l97YPU1Xapep1TOzaBEfzgN7566UFujIoXErOCGNpgumD0LjTFkjwXmgpJ9LrdLfS79C/6v7Ev2b3Cv0rHuV6hQcDj8wUH7vHLADEEHRshWLIeYkK1/zoMLxbOliCz6DhCzXmHSwTphBVMlBw4zk1GAEwDtXLz+5EJq/0sIAz8j6s9NYPGFZIoNoYTFPP/Nz91OxNDxHI8abE7GyvQvQW2tQ+l7zYX4AaP8RbXtUp7rXhKdwunyySycKNZpygu9UVeEponLTvEYpzg4L2GFlq3CTfZpLN1kFB/khO+ocFdIHWuc1jleh5znB2Td7bAF5J6D9KSD58o8dB0Axl9wCW+VTYk0CUC+AKrrwik9hBahhScfeDFufCn3NqXmbr4HZDdXj1fpVWm+t8wNDL7ARvZYFED//Y6h7fqpAUxPaHUBWUJ4wDtEA0BBnH3tDH8ieS2zT/zv5Bv3Pzsv0u6lLtE2tyFz2guSKhFy3UK54JywbaugFUqCeYP1izWQPyZQrG8kr/PyNDxLEl0lS94rHJ3l5nHYW9nUI3xwCj2bH2X7hDaVTF3zW+Tz+xBx98pOHvcVJYrzZESvbuwDOiTJ11/UbQAvcBm2lNwA33iils+eEJ230Hpod7nyYdCTboOO5OhVSZpJJGFFl2M/kKli2Xc5DUUp1+AjmgRJpqSIfIiLqIIrPrg9VXFU2tHqcuKXf/nBOiJJoLpaVZNAHwsWyiOmUr+AGypSdXbY4sZnATmubOt7EJlWAtiIEkA5lxR+G1Qd5e4BiT8jjh3iED3/bLHub8wFvPpU3M5YjoOXKO3maz0/SyopZ+tDALov64eJAOqsgAb8N5QvzAyasSvel5C79/dyz9DfyX6MXkxsSdxCwivV8xsIf2qZPK6/TpUSlQbL1kVeZHWxE4L3Dtc9Uf8GFeqWm/4mVVNSgsjy/fXHUL3zGO+DXsoRhy4QTlglYaUulNH36x07S5GRGwjHe3NhHlxfjzY7O+V1ysO/sPoGmajdhVT62EpIJSFZYEGr3XbYcLjWyVO0macZt0lKmQXmr27tZYFZyzVomCtbtTDpiZrKX4cjhZatAULxRfFEpoQq/utmm31lt0RfXW3Sl1qN17nCbbD0Nhpb5UHFw8e50Kj0tW9sptINu9Jp0vnqezlTO0nNbL4rSRVnsP4WmAa3ACtPlYPhyAFAt2EXIBpR4o1cX/hQrESjTccDqVLPZOVqYylNeJgBFZBQA4pXH9o+Cxtu1HEwDhYs6fZY26X/Nvkhfca+zjetV8j6AeuAnI/awXHZ7WCsZFwQH6AhXWcnu1s1G8lb+/TY/qDKL+I0jrl4PXAvx8/3e3w09uOjFB5D30EVCPNO0LIDNB9eWMYAVD+8gLQ4vjnHvfVP09LsXvVCMNzPiCVJ3AZyVAmUf5g5+KmMsNL8tjsYePJEWcQQN3WGbzdSy26ai06W5bJO7lyTVWFFGdiFWRwGMKwbbJ5TiTmYibSxAwE30qNFNEQaUx2HoQSEExAY4vIAMOVsRWJsB689vsY4/Xe/RKhO22322THuU4s43lzJqUZLwD9YfLqcnZPawQhUnFPDl+iW2lM0iFbudHZZTkXe76aQr6cGr/Aqcy1Z7W763tbcIRBZId7hwWGQjHeRiYtRWa4vyrISX8yuibMMygQGNBWWSaa7TKl3bqtDOYPcevYLgs/02RtEB0Gz6ODkGyPkaNejLziod7hfoeK9kIvaAbLXX5oskRec7ELv/QHtj6AU7ANVaonADI/h83n0mNLevyb62ozCoJxblPFmmxINemWzlafttFwicskUXRMgANCxy+JBknt9CNmumlv3ar50zhBhvWsTK9i5Ab7dFxe85KhvA2218L+zFupfCMkhQi63PatehQrLDnX+fcskuOQm2ADEMvEcuez0coAh4J6yTi+Hic5ytjsvd1JiEjHHlR74jh5fHiIXyZWOX1lnhXmble4kPjFhOpLH4hUMnS/fIO1LtoFUB+ujRTnuH82Yqk5tsgfb7XZpMT8rs4ChAkboss8rpOqhRq3zLuSWZ5KTKFn94V4z3wkeKR2V7vSho+RTIG1vwrdU36eoaPzBJkcMVMapibLqeq9LCYcUoWQA/MHA9rSbr9GB/mib7mGk9BlxYyaWKVyngRChJiW6P+tg4XmcoCzh+UIFcC3ze1UsvUrfhrXs8gF9Dg7yTSUo+VKTEI94KTpCDQ5WifWECilLjQvGAnU5dwPIO0qpMKy3u2cmpNJ05vUNvvLFj6DHelIiV7V0ALGiRvqdM7tFoK0Caqt2QPYStuJsBFC7ebxadjgz3wsrNpPpUYysUk51GYs/8E1Ri5Z1J+R0mlO0uK1vkecMYle8+6wOlwW5y+FrmYq1Lr+x2qcRK72RphhUfd8oRihPXoOCU5L1to+ctjsCAP8nKsuiWAum0u0c6WKcFpyhrIff7qGOX8qki3VM6LopYgTSQAeXtJoy1bAPx+MMSkBhuxib08nDAebgpl+q9XXr98g6ZLWC9Tl2wV8WE4+1wVNoomp0f0WqiSc+lVuld/UUq98fMuuWyi1JtBx9EDHwCVLKpU09pMbrNCjW3rlK3XpHwaIA/Qen3TBLd631iJzJ8xecrWIQHP0G6KkqF0iEHUQgLzXNx2OkB9XtuoeBSNuPSb/7eJeq2+EG3lKYeP2AkscrUQDEbJ8Z3DrGyvRvQ7lHm1CSl72crxm6UHsSK8/wB3EADjFLaCii/ZK/PSsF0eplUl4ps7baxIhRbGpFl2AOwjIvJNuVd/11wkk8IeVXYmr7dGHe+AM4JXTjWEzlbb9BvXbvASqxHxwtlcvC5SaiS1YKEddthixZ9IZRAtVuhCWeS68woPsBOC38mmaH53Lx8V4sFKZbzS6J0bYBvkI4dWwYK22FFvdXapHM1vDs+LeXYam1TlmVjY3vsIHRpc5N2KtC2Vlrx42xtmiLMp4A/it8G4iFXoWlMuo1Em0pcXw93p7mzipaF996JVpsSrGzlxtNrJi7L9mhC1ThFr0uVCy9Qv8vpPRLcQL0JmMLX0z2Wo/7b2LKVoRbvCMuUMB+2YrV54A+HFbbfhqbR+BDfzKE8nXNdSrxjicqnpmnhfYeoeM8kTTw8S8Xj3C+k+EFhMks97it6rJBjfPsRK9u7BImJNGXfNkOJqFVlpI36jTOgQNAXwQ223bGQoV/xBGVB6VR7DsEIzbHCRX+UZuu2kOpQC+9ZMQXZY99LidmA3MlUe/DZi0GfFYUryhgWui0Ok7sCxjTKu//sbgxWAd6obtNnr5xnq75Dh3JFVmLBhwIotRwrN7xbbffbRuHySUDpYtg3yroVsBf15iQdrteM8A0rBYMoerPXpHOV83SpfomVe5W6/GAE5Vvr1Nlt0XRmmpW9S+uNdbp0zZ7dHpZlh6PyBy2KbkPjlXd0mk22cN/dZyUyyrrF9cU7WgwX4zrYSk4Bun2TABxuV7eovnqak0RN7PMpUp8st/xYjnps2fZc+5p6N1ggD68MNg3lGsQz1C+ux6dlVz9c5ZMwPCE+RpbbfSXr0stsoKenc+QU+eFpLk/Z+QLlV8o09bZ5KhwpswKeEFqn2qZOhessxrcNsbK9S9CrdqjwwaWD72GLtuq1ZRthkiowdPbSziPSAFCMjX6KLaUe5byhXwfvcdnfYWu02WVFwlo4akbwKAUMhTqX7lAKs4M8YKh6t+VQk/NCWQJK3xIDrwQt2n6gDxTyrSb7x8mILDeTLtZ26dnNVaqx9TSXyQ2ULvhzTl5WmcKCEzKkzPzNbotmsjOBd75RQNy4eMWAh8sPpf7G7hu02rpObNsM+nEF3iFPpCf5OuVYEdfo3LVt+TpGCjYA/DhQOTbdDsMP2PFRsGXZGJZTS3SpxIr24d7USOtWPucZug4aZhdeEWmXlah+/Ry1t69zfZh71Qa4fE6+bfN8Xx/JUGYmRa1yxli3yHNQVI9bK1fC7Nd4wKYpT/hiAHY4yg83lKbd7dM3LtXxhZIHi5fh5F0ue45yS0Wxet2pLLV3WtRlxRvj9iNWtncL2Epx+ak1fWR/szfHAm0frtWWA5ai7Y8AbIRWLyXvWh22bAGXle+E25LhX7zHta3jvYAB6CLLyjrBDrHLlh2GkqHgx8KKDrynlg7PeBUDxQlH42z/AdDlDHbZur3SqNFGq0kTjksFhy1/z3LFt7gzmVmaZGsW71CxxnHZLcn7WW/KjyCsXOEPx4dh06qdKp2tnqP19rrp1z06/DoaisUvlrNLbNlmZJGEN1avUaUaHkoOIxy3VxgADYdWvvKMdlGPa6kafap9hNLSZQWRaHa8z3kYUYpL6ypA5zrka9PcukKtneseDVSfBz4vpUE7QRMfLsvyod1Cmjp8CCB3IDsqL0aAx3NtnrDfVtjwK91GiF7k2+qXnsMkOuXT0iPsH0knQW4pTbnFAqVyLtUvV6jXiIeWbzdiZXu3oNOn1EyGso/NGkWm7Y1hefcHbZc3AfNO1Shc11O46Nhh8WI4Gdav5iEGq/T60YDyLrBlXHD8bgQuBhU32hnujA8ATwCUaoIfUCKt0ggM8YXqeByabNleqO/Sa5UtKjlpOpwvc1Lvj+XifelUZooWc4usaHODvBCvsP2K/dJOV07T9eaa+CFaObDRvedjizYjk6qwljOG6y9sbNDaVsPrz8MyEcahlWCHAfgVtj8cb7sqy+bReNwDRPf3pmmlP/wZU6/eMu9rlR6+VtawvB3X73XkfW2v5W+K4MeGZDDcaYdyJ7LkTPDDYq9HrYms2doPEOUID/8E8kfYc6MAsvIPlKdxBLYs8TOPVBX7vSis8eyu1+i513boua0uVQbPpAFBnusj6SQpz1buxIMzVL9SofZWxMI4MW4ZrLswxp2O5ktb1F3nDtILBxBJvDUYpbDwre1qOx3IOpfq0j35Os2ylaupsMXfyAUpPGDhDF1IQuGwIi/c4PZ7spgEK/j9Vku4fHhA2K+iVlxr1ulfn3+V/vdzL9LVRpXzNjLx+QkmOrlJh585/CZpW69RGBWvygif/1yqXWKr2l+RCUXGGg8GHPBOocMPBFC2AN4pn1yasc5PE0TlN6qMSKvpbSgtKg6ywnkaVKlNz7jX8EGPR/HAFm3CTJ32svTi2TUSovIBEqxkG9SpbnlhAz9X3zeQwB5nxljW7k6L0jtYDMMup5UX6Hac+pWOcoIdZJtPyo8471Ca5zVxnpeTObtNKrx4nYpfu0IvXK5yews1krGArIS84519epmS6eFRgxi3DrGyvYvQPs9Pp2d2rIbpgRuUtFevTQ8MmhsExNsyRilKdPrrHZfWamwBeDQglejRAlabSvmLVeyFOivuXuh2xZKwE64/i/RWYi9Firleet54n71f1Nma+uL6Ffqd1fPU9JQElKZtrYUtN2CgmL0/RZjXVsAYPj5fO8/15hcQDyyBU/PeD8zl5vzzYYU/VyxRMRc1Icm+kkgbzH84rEA6xNnpbYRlBeWgpjb7XdplpRsAho/FqmVIFpzOdaifyxAV+L7LZ2RLvb7DR+ia1q+f4ZPFPeXTgxwmrCVOlRyWbTgwKpK7VqGkzuxV2ajDofbAcRoPd1AOz2/H2bBlwdEwLNmNOhWfv07lb1ym7PlNeqPZo7MVvr6RZxAGaDiMbNzrEw/M0vyHDptGFeO2IFa2dxP4qbbyW5eou+Uvqg6IFQdX2xG7N9qk0DClzXsCoHRHyUKe3X6SzrN1u9ZgC9e0bUE+1aNjuQaVLYULpTVKVo/NX6xUFUaW5bheF7OXggwD/FJ+q1wjMYYnolgDRNVPhyvi89cv0T967ZusDPnhiHlsZarKN6xIAVuZAqN4m50mXatfYz3kfV7kJbOrCF6lr2SXjcfDXGGaJkr6/e5wOYYBQcoHvydYoP4wzQ4rQJOSSUhdUJ5JrfK19iu7jxWhsHIUTgr3ZZYfDko5SpT5yKcpyYpW3HKeEsWc2QmITxgSsfFAq7Ip7239POyRDj0X4+LXmcOet34Y1m3xAl8/f6iAIzhGD0ArWF0AfjsMRPFBhCcnwfRks0OZy7tU+sOrVPwmK9lzm5SstOQe+8Nukp6zZvuzIM8FBsQIGL6km6TZJ5cotzC8U1WMW4NY2d5N4HbT+OYadc7xE7f9nioMdEyeFxilbKIsNrF+7LZrdQijAIt0tZVhqy5YJli2y9mGDC0DYi2KbxiwXztYjN8LK7DzEGYmg66W2fjS+JCHEGbWBwc9X/NA4cnSzk5+98aA33NFttZPqPCnqzv0G1fP0S4rRoUqU3VtRClVALw2P/yVTkV2/UHWOMxnU9xhW2Lhxavyhey8fEqkZQZyboZmCoUADSUwRxjDZQ1C09npx8kJuwalfobWEv77VVnIAofckwlKQtGm2fpkP8qNj6nwiqKS6NCu26XrxR5dKLTpDbdCr/au0Rvs3yyk6ErZzBK39rxgmLwH9ZpKUiLF9Zfxyw1fhi1MHFIGBfzhsA0klHr1+MLxgzCfB1vtGCrOntmi8hcvUulbV1jh7lCqzha+x7faTdCr7STVB0/Tmj4kdwg2f4JSeZcmH53j81R6jFuJeILUXYR0oUgPfvT76amP/inqlrq0077qxURj0JFGtC3EDdruTQJiMLWp2UnJrj2BT3gSPUqxtt/tBt/tDoHLk2NtWHJ8SxiAstjtOp4iNwUePDx45Q/MQB4H5Ue9mP7Hx37SM8CG/MPnAplQ5uE6XW3WqcHW5z3FCX5oMO/MohSqAnG2Yo1Ct9elteYabbY3DQHl4QPPXyalLx+bx99bPiXvjCFb/8BXbTXotctrnBb8oIwqF+hRcaP4TSmG41VO+DBo84PVj7VOUQ7dFixarHks39ayInRS1GNF22b27USTTid26aXUJv2ae54+n7pM/9Y9Q7+evki/mrlEv1K6Rr9T3qAvsTH/2RM5enk+TZ99oEg72QTtsvKts2KdrXnDwx5wTcsfLJEzlfLbDQN0LAvZmrImSwHgCR8D2H5GOJ4vVqrWpvRGjXKsZPOvrFFGhqzNvR+WdJbt/f+jkaKKVCsoYY4woq4lX3UuA47tF9eo14p40o5xU4iV7V2CBHfUT//Un6MP/xd/i+ZWHqTl/MOUTuZou32F2tbSgDeCKCWhUBWn3edoYBP0FDX6SRk61n4JfQyGgh3utbC+Mjp2ySoiP6y9jA3k7SgokQ7L3elY7xfBYDNZfrujBMJhhVCjo4YwJGNEuqg6hOI8X9sVGScKE1wvVod9QBg1aZTx2cp5vu7mdQKKZ7pXWOz8izATsqk0reSXZTELhaYHT7XVpFdZ2bY7dseLk7A7a73yGgbgVz4gzKswdKyn/cF7CvSulQwdn3Hp8k6XOvbQrAdsSvDO7hxN9dNcOL6nvd17GqyEN90GPZ+r0T/PvE6/6r5B/ycr2c+4F+il5Da9mtxli7hBm4kWVZi3yU9fdc6z6nBaN0lr+RRtpBP0wnyGvrqcoQtTLr2y4LKlm6CVHdxvCXInUpR/W54czwq2kWz3ROG2i1wu3Nj2/SBPORyGC0iUxrPrxSF9qtGl9Bor2NNblDu7Sdlz2+Rs1SXO4w4A4Qb/fokfYj/bQL5KjXKjgLgQH4vZfX2L2tvxzORbjVjZ3gXITkzRI9/9I/Shv/jXKVvCko1sMbKinc6coB7blKuNV7ibG+689otRijbNndaRfI07SzAkCYtP7JUL3rvChsWSjtq+4WDzgjYrTdktaER+LivkaUyIsuLhx/Dydlff3EYDMVEPDbYsYKA4R4u6YdhKOaygN9iKPJov0mxm/HZ46PjxF4YqSQD71263t6jWNUOuyEoPP5yQHYrms/MUtR0gAJ5nzl2mxmB5Pz/O94ddwL4LbDrgh3NOkt53rEB//IlJ+sjJEj1xKE8PsML7kUcmaGXCpc1ml/PuycY9kNhOdOln2w+Qw+VpNep01anTV3Pr9B9Ll+j/N3GOlexFej25Q1fYsq15H4QN349e/lohCMIVGl5lQPkm6cxkmi5OOHSp7FKeCzDPyrb4INvUueGHIVi3LhaG4HbQKfBDn8pT2HlpgTyeVLVF7naLsue3qfDCKmUu7XC4Ie9nk56CDkkbAPQ6P7z+41qKrmG8XBiVe5CR59oALZqeTCWo8sYWNa7VPFqMW4VY2d4FeOJHf5re8yd+noozc1Yb6vNDtksLuftpIr1Am60L1OyOXmwdHUZk+xsBdO2z6Q4tZrBYQ1s2dsdGBJg1rM08CpjOA54iK+q0tUgF+p40a0MsUtHmDiQK2IBgkpVt+JUSgmvtLCvb8Qgr2hRbT5jNnGMrB1FjN0zYB8IK9CBodLEHbZceLE/LcHKUQgUCytD7U2gYf41OlXY7FbkWA6MKDxvsOqxc5zJzdJSVLZZ+VCCdDZzP6dU12ti1R0bAo3x6pYPpDGw+G4aWcxP0009O0qcfmaJDrFjT3kV12TLE9oTHptL00ZNFOjWboQpbfJv1Lj3SmaH7Gjm62N2mf1M8R/9y4gL9RmGVXsxUaJcf1jp8E+sDR/hc9iqPcTTeuDuZJL3BlvZqKUXLfPOdfCQn9CggBSzTXiZFnTwULoj8o/eEdxFgBctEp6sVGSLGJKfsGxvkbrKNyhYs2qEkRRJJEQ2JZ4bXWyn6p03zntpQFeFwGCo9nIaotd4QhRvj1iJWtncyuIHNn3qAvvtv/o9UXloZtGuFNLdEkqYyx1hBObRafYGf9733PiFmCYXSj0eCFWabyhjW5XRYkhGKcDrdEgu1EZoMZQMW8A4rVawKhZWltCiY6FRIwSpLC08YUOPTbovz8gge0G0cZBcgSC7yw8HhfJMfFhpSZqTcZet4VAcnDyPi8VzGuOF14KDKF6tMZVOubGKgSYeVhqHhL2q0Qvj5P+8Wqc6Wbb1rloIUeXxgo4NDhUO0nFuW97Q2wnnh3rm0sUkX13cR8o7RnbQPDYPX9pvQsUmXPv3oBH38VImVazhtEAslh95/okBvX85SrdGn39m5Tv9H8QI9m9mlrWRHFKwB5Niyxsm1ywVEnRPDE7laSNG3ZtOEx5LjGb5P1eIMXV8sLpHebrJCZaXLDw34jhvvXp16W4aHsxe2KcMWbO61DVa2uzJEnGywBYu0RkQAUTQbMGb/UcOls/AMces5ARoXPm/1+y581Qs7VOUHgT2fXmMcCLGyvYMxdfg4fewX/i4tP/SYtBfTZEyD8f3GaptMH2ZrYoo2mmep1fNndA5gEhwILVaomLSEd64KvHvNs8LEEovY7SdKaQIy5MydxETa36sWwPs79J+Vnr8Mo3ZqcGZYoUMp20Dsdic9VsErcMPPpZu0km3IZCvkjfQY1q63MKPTH1K1ocrKxl6KVmc0hyHWS7jfY3SZf6NRo7dNzlPecTjaKNQhJRgRtmnwYzY61jnu9r2HIbZmse/tseIxsWrVotV06tqWIShXtnfo3KpZ5hFUcwC2qycTPqlh/8lpl/70O+fpHYeyXAYrXutKKjosh2g679CDRx06ciJB15sturCtE+XCeegBeDJDsgyi0o1GnUVdaBMdTrPVzUfUg5RIYT6n1iH3WoWyr62LBZs9vUnpK7vkbjVk2DiFd7Aj7o39QHO+zu3n79f0gSmq/EoLx9lh+K164v82l3PrWbPiWIxbh1jZ3qGA1XH/h7+H3v2zf0HbCKh8DHcwoGC/1OnsCZk0db3xOnX6oydAIOXQU/uwWHlH2ukm2KJl5TpgMAp3AhYva6OdLm6xoCyF2ZIvOdiST5FJ9KjWc80uQQwtCyzbSVaQ9t62Ao6usaWM5SHHAekXM206lKsPKWyEqn13pIyozlWBGFt5ip8PoQuB/1FkL37ItYCh5IVcno5iScexeQbjwmEAay/PZmfZcp+ieVaw89kFWXcZcqP4o2itbpe+dfoy+xCndRb2hxGmmcemlbJDf+LJKXp4MUMpVbS20hES/wxEB+VgeLmcTdKD82l6ZClNzU6fLu2YSVLmCJfJTh/lH3cOw8AyiOfqKXowz8o/xec06vpgwtROQyxcLHqh7173wl6lCMf/b6xoX8L3SiPvE9DtuKiwujhMOavndqhyeov6eFke45YhVrZ3KA697R309B//8zS5clSaiGkqdncJq0ibkd+Qis4cK8hdWmudYUpEY2IS2m5EjAgLdzAYgMV6x3lMeAoBFi6212uyhRv1Hhbl3eU4tYZVNCZ0YrF3zE4Ov0edZEvYtqQBcLS7Sdrqmqd8hMPKD+XAN72zGDIOihSA9EYVGwBERO4HdjL47QOw44Fw2AOKjUWKHpmA9XmwLfQU4ThYsdhgfuy31wykC6TlC1KpN+i1K2us2HB9NQ6uHoAdxqF3j8YT3T+boz/++CQ9upgTpelbssYxF98LwK83Qwi4//LpFCvuNB2ecGih6PADQZ82a9iuQBFOq+HhchnYYfDYYfUbd7Pfo4v8nPpYPkGlUUPgrQ71R+wZGyX5RoD9k/9mNUvdEfXkA/H2OYXrIHi+uCytzTptPeNvzhDj1mB864vxpsXKw0/QsXe+l5uKaTz+LxqOGX70qcZFTNYp0aOzn6aTpfdxpxdhxTGT4Q7Ba4/hoVEopw3sKxuRCAvdT7KFu5JpiPKMAtKvNtNU6wQ/qSiyBbvi1lkRewSA/WrthpFk+Xo2UhQrHd4nH8vXWNFiclXk2UkZzPekBlFsIy2ZW4wLtaq8vwXCD0SqDCMflEKwFSf4o9LYCjbIAxpfvyI/gLC1Db+BofthGzaPD8w6/qknyvT4Ss63aOFIffIBF/eV3lv2PaZ0m+bh+HSGfvjhCfqJt0/Qe45maEpmCnvyBZpmOK2Bl/8AUXy2DCyUkaBv8aX5SoUpXKZ+jw+rbBLGp1Kh8mpONjXIEQ27dDb+bR3fRQOQEpY6TrKWBAjz8Z3A16K53qBEeGJEjJtGXKN3IOZO3k8n3v0B9hlbVrtL8+s3INOkfA78IT6TKtKj0z9I89lTwnGzwAzi9YYu7TeMstOmI9ka5RPRT/v49vYqp2/JRA8f5UyH0/pLT+LTy9SIF6UZtoxtdS61wD+YCHU0V5XlIUcBci81czLhZICIbEa9gwVupSLeaje5Pna5XMNl9pXhMMz19Xn24sUfeMJ8JsYA3/1OT5a9kCLqXMN5GZ7D5RT9yScn6YG5jIR9eDJQpzgQVKVrYx/1+ghby7/w/gX6C0/P0PGp4KQvA8iAXFsWwnooND5UBoGfFsttfrbSpyoCTA5ee65N77tkmwpESd0Lo0ryK+0M+XPEQdFzgd8+lBaGzesDZU+5SeofaEODGPtBrGzvQOSnZujkez/GzUUbk9+g4ANMyI43h3IV3UW6t/xd0dbtAYHJTlc7Geq0o28n9EWwcI/k67K84jAStNVN06VGli1kU0IAVuis2+RYj8an0BihbCEjbD3jHe2RXF3e844C8sNSkuHhaq1HG2LtRkUwxiniKIww9AVYZvDFnS3pxH2158NQfbr6oTTDcUA4DISVrKYL82ZSDjkyXKp0rYRhmWGA4wcfLtFHTpWMRat1ZNeViJYfCYo/oLwYStujjt9xKEf/j4/P0597apKOTQVHSgw0/ajya3xUnAUuy4utPn1tBw8rIV6IkCF3Xxpg+/cCJIrUiESg/0rDoU08IQo0/1A5IoE0ekQDFm314u7+xMU4EGJle4chyZ3fkceeoqQDJel3l8bnN6JgyG45pjvF+7ujpXfRwxOfYqUU1TExpy9gT2BmsmynNyYNhoYXM62hvhSArttopWmjGbSQi05XdgjC7GYkhAINZwF5WGCjY70XhqKey7TlU6JAfjBfLQH1bpKuNcNWVzREH9uyDoBwsnETpzErudJqUcPrtG3g6hk1aU4irByHayeaBkSltf8A1F0pg/qJlmEQjutTKZ2g77u/RO87OuHRFMyLbAeK1ziCAY1d+1BocYXm0a14nE8hnaIPnCiyNT1FHztVpNm8PkwisX0Atj8Ko+OafB/9Ousk7K8fGEZuDG/5aOemCOcsfj0l4xAGNvreLaD8iPsX3EZ2xefnG/TbsHOxYdP9tJ16m/pYqnGUuBg3jFjZ3mHodTt0/0e+hxs43h6ZP/N0rY3HuBqDOO04/V9Qe4RVph6d/RGay52UmH1hRCOExLU9Pr9ByabTTTqVq8qM4zB63LNfZ4Vry4BRtZyps9I03+M2oyZacZmQfzbpW7BYkWqelXQYCcxC9qqqxYp2k/Pb7/e5gA4ZeiKkPvYcQkb5RtTbKAt3q9vkKwQbd0RChl7hMM+oNOae8P9svqg04MFDWb6YlXMwPzjX8PnaYSPnXUfy9MOPlCntqFx2pZ68A/5RlaKwxQpsAvxWeksW3hFjaBkTsn7goRIrXEw02yOvQfxQpoxhWo8f5r5Z79Ma3tHi4PzlCCxtaaCS7RLAHy6RKFaLiEEnHXiCVBy/1UrR5chZwlHlDgM8ekSj1+xQuxLcNSzGrUGsbO8w4H0tFK7puNBFmmZrmo92oYaGX9PJ6K9paPDDBQ8+BTpZfj85yWHrLmrENvTFTAAtTrDRHL0wBACRWLVplpVuFKq9FJ2p5KlhfYIDhTvD/LhZMXM5Cg5rrV7XFBj8RVbOkZOyrHNaY0t8nR8QgP2+cxUrBkXwiiGpmCZDvhZdIXLBNEL8qGcTWLWt0G75eylIc32jgfe/TVbgrW6L5baG0tqAHJWF8mOlLb96otLZtATdN5uh73ugQJM5LNrvkcFiKUSB1I1VZvjBM6B7rtS5lXaQRvk8hOSXMikuxwT94x9Ypu++v+hRbYBf06icoAyfbsPwtPmB8as1vkZJri0uhyjawfDuGIxgkU+fObs2y2uzvLWsQ+tuil4tZ+hcMU1fncnTfyrkaGk5TaVSkmamHcplE4RBLid6cGqfMOco9wSXv4ZtA2PccqBHiz/9uYOQKxbp6Z/5S+TmCtxEtEtEc9EGA9f4w3H6iz+0d6VnnQm6XH2WGu2tQaJRygcKeFQc5GHt42m3a2YRR7MJ8PlOny3KBluX+qggYK+s58QZFVP+ghfYHWiz5cqA91R6eKgOfdxuz2WrOEUp7nRXsnVKp6J7NfBWOd8L9RxxDh71APDOTTpYQ/FhncrNoOi69NTMIuVS/m48oxSkXkeFHe6xwt5ubdO56hm6ULskuwFhU/lKu8LXyKFMyjxk2WlsP3Jcr1TolUtY5AD0YF6Gw8ehCUyImqGTM1mjB23lqfeNKkXDYESoH1A+G0LiH5HH3kAaduHHoflZwOIZp2bT9NB8muqdPq1WsLSol9dAGAB/MO04YBylyPfw+0p4wIOyZdO0YUZXRMpwUQZ0DBHrl1gdZsKoztlSho8cfWsuR7+/XKSXJjP0hUMlOsPK9uvzObrACje3lKapqRQdO5qmaXYPrbg0P+dSga33cjElYyHNpp5PFOxzDQKUrefXqHJ2mxzOC1ZuMu+Y723HiYyxL8TK9g7D3MkH6ZHv/lFys1kOoXlo12g6Y0NRKmjwoaXANZwGquLYckmkueNN0+X689xYR08m2g8wWQodGd61qqKMAqxPWLhY2jFqPWVYyRkuTd5bPxnvhHe6WEO3Z5aIxLtXSz7ywuc7LZbnsJLFN7Wj8t9qu3S5mRPFbMsQyzQURmcp7riTUYA33LveIAqpND05vcjnj9m1pnaC128YUfFrzXU6w4p2u7VLnX5HdgLabbOy7VS4HjZph+lYtjGbwv1kZJj7SO8aojOrLOPahnWN1IdYP89iOknf+0CZPnAsb+oroFQZqigVQvcIYb+dVuMGNOMYPs8PCJ8H28/IOElamUjTcsmhbjdB12sdtvK9yGChPHccwGP4CnwLvbuQoAIUJysnsmYiDyaTh0VyGG8uttMpupxP01cWivT5QwV6fipLL87k6DrTammH6nxgN692KsntJUmtpLku3k6M5PITrcNHNpukSX7ImeBjcd6hFVbIPVaQdba6tcp82IWRUnquqV4o1vmnl6l0cooWvusoFY+UqXTfJOWXitTlCkuxtQ0LPl7w4uCIle0dhumj99BDH/9BUbammWjjges3JO001W8aVZjuxXHHVHIX6GL161Tr3uwC5Amq9hyaSHWHV3qKADYfwE4/UKY28EYaq0LhW13Yvpg8hSHfDPtn2LIN9aVyRlgfudF3KJfo0hQrcplEa8HwOHSuVjDLMobiJRiiSThM+zZgMp2hD8wtc/3444P+tR5GVFyn16Er9cusVLflHKTjZdfoqD4/GHVkZyCsoYz0sHKDC1+Ye2WzXqfnz696NBt+nvB97/1l+sjJIuVZ6Uometg9vk1XKI/S4Az8IT4Jq2vTLL+GbZkeZthSe9eRnKxmdXazTTvNUfco0mm5bRk2LSHLOH6KNe2Uyw+Zu5g5byCxXjUokLLFDyFnSln6BivVrywW6BsLBdosl6mbLdJkYVG2O1zMLdJidpHmc/M0n5mnuewcTaQnaC4zQynWtFgZDNerzQ9PNpIsG8o3k0nQwrxLhw+5st3v9s7e7RAlxoOiy1a0U8hQmhW/w0o/O5dnRVuiwjHO/51LlFspUXYxT+mJDHXZiu/Wb+7h/K2EWNneYZhYWKJHvvfT5HBnDNjdABog/ozPPAUj5HcPhtvQDZ8ikXDY6ml42/FB1d0ckL7ECg8GjlihSgzBbD7QEes2rHBhJUPhbrbTsnEBzqjMMjGrOdSHiuj1lmusZO5bplkhy5KM3aQsVl/vpuhqM0tXGlkzTB2FcPk4fDOWKl4ZD9574yIcQNShXIEenZhjBeiZMSH413A08H72SuOKvKMFdKtcpMJpqQ5s9Zv8MLMhFu6EOxGQjdWesILU6avrg/vIh+afoLl8in7hA6wUsniICZVrwBaiawFsuvi9MPwDnsEPw6vMgILWuBEIxS+WXFk20uUbdL3WpfrQd6Xg1zRh2X44w3X6SDZBRxOsdNqYmuxFWAA3lOxz03n67SMl+sO5Al2bYouxvEKLhRVayC/RSmFZ1q6eSJcp5+Tkwcc/0rLMZj5VoBlWuFPpKW4DRb5WJZJ38b3o+Q8pftqcnXHo8IpL7XafdrHepCB8PgBo3MLC9Ygw/qUhJyk9maXCoRLlWenm2ep1JzPUqbapiy0GY4xFrGzvMJQWV+jhj/2AvLNVmI4Rh2np8Omvtn0TUqh1q2lYAjcqLOX46s7vskXET+gabUEaItOFHIoLA3vMlp2eWK7CO4YfSjHHVnCNFWJ4WUeofShdKFqAH9rZsh2eLYl+F4tr1NiqBv9WE/vbcv/HihXDy5frWdrp8ZP+uIJYwKnCosYnRProEVCeewB1FeaVYFT6iLqey+Tpg/OHvND+YStKuNcaV7lOTUcouslECFSPAXiP3eSHLXTiGUyWYx6kx32yvrtNL17A8n1IqIX1hDCOTjn0E49N0IlptrjkHgllpK7GqT/KBQYy2NUDkKwRZ4ICmzdKtucd0DzgIWIq59BxLnPW7dPp9TY1ZWgUfDav7dd4RZ8fVIjel0/Q8VRfts6zY3H/VdwUvcJW4u+tlOm1hWlKlOdpqXSEDucP02RmSpQoHnKS/KeKLnwNB/C82H8467DS42tVdIv8sFqQUYym91AFaCqIhLVbKqbIYeu73uhRJ9IYtfIZ8g+kDdxUmsswnaPCMt8v01nqsQndrrQjZ2PHMIiV7R2GTKlED33yhylbLPEtbxoCukQD3wdoM1E+/zA0o8J8t97doqv156nW2RQ2mcxr2H34IsYCr8N6onDNzjqjoH0gJkBhpvFuNy2d1ChMplpi2aqVJifMMiBnvZ0RCxbAmrFYW3mjkxYljk3BDwKs93wqXzff77IcqKv9KtpIIK2V3hYlUaFKevfssmy1h4k3o4BrpjDX0YT91wQJvgZd2m3vcp3CamGaJU7DqqswrFzt1GmKlYCjLwYZr16+TmdWtzypCl8QPq/5xL2hjRNUsPo1znaVZ0AzzhCvgP02XQ8FvELTgAI0DXNeKJKVLseK6IG5LD19NE9rtQ5dlN2EhEniDeywTccDGT9spIne4fIdD8vWQ5Pvt5dYyf4+W4Gvzc+RM71Cy6xksVk/dmPCetWoL71mNqJoUcCQPxR1ySmJBdzs1WU0Iyq5y4p2hh+K0ml+EN3uUjfwztU+tyg/YPsZUtdcUjdJ2fkCle+bpj4rXGxiECMaB+uBYnzHUV1fo069xu3fWB2mI/ChzRe/JkYbCbhtfts1POX0ksdjgFFdP3RQJGgdQ8Ata/k8CNMhZQ92f4xZxsdzNdm2LwztyFssF3pJ+mgQPA0IMVCMNgaD4V5aGxFZDCB73WbrbHW0aTHboOV8NfKTI5UB6RHR46Hlh5c99sIIWVZ0RT5c7wHB7nxtP66Vhs3VDRYCdbZcOCTv/4RrRBlRPcgeR7VbIWzLB16V3YR1PygfaDgQ7tO7j+To6UNmctVAiNa350RCeQPwEtgybL4wv4aFFwfC7NppgIGf4zyxAyAtH4tFh/7Y2ybpk6cmaTKrTEhnyRlOLA+GXW4obevd5XrWpV8/Nkm/e3SO2vPH6djM/XS4cFisWCjIwEOJB73+sFDta2lfbwVo+Btcb2bBA9Ijk2+jlfwKB/1u3a4GYGneoftPZSgv60gDw/KjAUEhYRZSGYcWPniUDv/IfZSeGb3J/lsZsbK9w9Dvdun6Gy9zB61Wqd1Y7AYBF3F2AzE2rHLBb2BCWChjMfcAU2/VbZGgNSxS4X3/KhNGxnyoC65Jt0XzEd/gamcEi1M/ZRTHk4e09lKPo6AdXej1sNBFebK4+XRLNsJXaXinHLWBgcqQmL2zDkAUrOcPI5tK0VLefBca6FQZ8NvX3I6zeZUH57VUWKZjhWNUcgsm4xBQtagWuFm2kLryXYp3nzCxg1m2AqEYL8vH4hE/+dgMLZa9Vb9U9KCHD+YlEjUzIbCrGSuCSUw4zKNyxGvR4VX5YTkDeLIC8pAkQcem0vRnny7TDz40QWkx7CVzeBhBfh9Y7rPH1ZqgDVY4X1ws0q/cu0CbK8fpnpkH6Agr2Zw30xuwr59eLyjY643r9Ozms3SpdonrHy87zF8U9BprmxjI4zIs5pZolhWvIlwVGEFZXnTpgXuzlBsoXBujzhOILo+AM4LCnXlikebeywofk+RiBBAPI99h6DQbdOTxp2jpgUcp6U2eQfPQBuf7cfgNRynhJozQIA03GPjPV7/GCi3yxc6BgHza3LljtagihtkUyASdvl0QC3h/CysVk6PsqVroOIrUoYm0JcsDRGIvWry3vVFg5jO24FvINAND39W2Q9tdd2j95FHYH9doFByXPn34Xi9kYK6b+dOw7Y4C4jFkWU6XWZGyxcHsSIGOGitUSWrQ+MCQ9TJ31piAg/eCAN5tfuX0eVrbqpiEggSVMkn65P0Feh8+80Fijy6CxDtg9tLhx4oPI0qGwPODZvOIY9MYEmZXbmj2DBSvx2OHlQYo3QOUbsElenW9aY0MW/whnHITdKTYp88eLdHZxQVamb5PZhJj1jAQnOENSb4sjBhcqJ6ji/VLMjN8p71LbsKRd7Fgi7q+UM6bzS3a7ezygyx21PJnkbu41u4ENXWWOSfHw6l9ukCWrXd+bqeNzeG2NO5cfSgPXPWj4klmMrerbWpcwdZIQorBiJXtnQZuNU46Tfd+6FPs+vu34p42DdOEwo3UDhteQFOYJ2zAoQxtNs7TTueKhAGMztqNFRagrXdk9NYK28ATf4dNQAzNDjZsN5mOBPLChvLoPvDeVRUuSomhZnzDGwY4NlsZ+YzoRjGdatNKrsHl9AgMlHi749J6O7hmcxiqcMQADp9bFG0MPjx/mO4pTIiiC8O+VkD4OttQXuXBt7SYzVp2SpRPZlkBl6STnkgVWbkU6VD+CC1k51k5+/dVlR/u3rhyna4FlC3RE8t5+tGHJ6iI6biArbDgIqx+O2EYiNd0toyAAmS/J25AG8QxArwe7HDA7/0Eyme5DDeVoFNOn5653KBVWSDCSh8CmqAz71Li5AwlZo7Q4eIRyqfykmSnvSOLiMBqRT3rt8wDsGgozFd3X2eFiEZkgIegmbT5zMeGXsdzrJwv1C5w2a7L4iR4byvKmQEePFylWQFvtbblPbyeml1NmKmMSVONRo+qWAVLMO5cQbeP0bwpN0XFQ2XafmmDurV4lrIi+MgV480PbjGXX3yGquurcrvj8G96dKzBYSptGgaINTDuYEDK4yTKu1N0b/ZD/FRuDX3xXaLpgPAQbGgC8RBq/RRdq2J40iPsE9NsZWJI2T877ghHWJfYi9Yd9yJ2DNAB4WFgOd/kTipYSFlMI7TXbhR0SA/FC59mdImj4bBFeYIVLTaOD0Ov0V5QPpQJE2a2WzuyVCOAOCjWxcKyvN97cOJBOlE+RadKp1gRT1OSO3hbmecyaXr90nVTSR7mCil6/4kcLZQi6gX14NVFAErXOMgTmSG6InCq4PW8yqdpwumElw/QNQ/lEz+zDOJMCvEDKotNwXyzQ99NLfmu24ckNl4Glkq871SWHrh/gSbnzXtZUagsDsrzte3X6WzlLF2uXaGr9asDharXp8GW58XqJfHbudS6VQ4zxSYyMLy83liny3V8ztWW4jZ6DbpYu0hVVrqQi3T4K7gFms3OSDo9LT1NADRMlrr3ZIaVLu61UGYC0Gx6OGxD6ZwJ/2MFquknFmQCVQyDuCbuQNQ21+nSs99gK8o0W79zRMi0KG10BoYLB1KYP1DxB7pJI7/cIpfLb6P7nY+wlTvemtsvkMN6Py2TpbThD9AdfQtiUtJSpkGHsw3xy+qLIxQqhoDxuVEAzC+W5h7ADOcj2TplI7b/w/KTW2zZ3gz0+WDPsnD8A8UpmkyHLKARMFfPCDXX0mSktK32FltNr9Iruy/LKlKXapep1qlJHIDtFWGRD2bGer2xLefK1g5NTvifmQEfOVmghxZCa2lrTw4Hfg0rlD4Kdhq5SdgfuFm8eFuGhm2ancb2K0+An13wKJ9HTra6lD23RU+wVbgw1AQMU7GQpLc/VKTHji/Rg9P3yjeydv1BwTb6DXMlmIwVu2SmMEOvT7PfovXWuvgBLYZDrnwbrfIUG80NOl87z6l7g9PAgeHnBFvO9r2Q4j+MUmQTw2ueD8DseG+7tICHJs3LK0QANk351FWEwtysJx+apSS+u44hiJXtHYhOo05nvvYFardgreAmR/PyGwv+DCXcIAwMR9A1MPxuJkv3z3+C5tK3ZnN5QHb0aWeo432aM8Aeq0zh3Sl2CsKEJUwbyUcMIQPoqOSb3sG58NlwWtsQFoXiR8vZFhNd2fMWw9ZhYMLVWvvmFG0URipdLtDRYolWQt9Q6x/gX6thvx0GsC7yVmuL6p0mXW+s0bnKeTpXPU/bze3AsGUYtqy0k6BrW9gm3YSncin6rhMTNJnlDtpWVAOg0i3awO9dCLkodhqPPkBYHofD8nCoHD00ToF4HOoPQ3kDcUZmqtIi93qVZvl+ettUn9qHE9QrGT6wQzk98dAEPX74HjpWPG6+S7aAuqt2zOb/mg0mnbV7/jwIxK2xlQrYRcHRZWXqJtMiR8AO3tNi6LgKq5fDukcF/Bi2brOlawP3et4pcLthhcd+la15qQtgtaligSPlWuBQRIUBJNbDhsabdKmCK4tfxDCIle0divPf+CLtXL0ofh0cNl2k3ziCTcFvCKYp2H+AaTxGVp/ymVl6sPxxyvb3aCzh9jYG+N51tZWW729HIkKey9ppJVOnZbY+B0PRIT50JFhP2T/PYVE61AvADphxm3SkUBsaOla0eim63hq2DCSX6CRjYSv+KBzJF+lEseyFhjHofC3o1VPY4VK6RHPZWS+ETrxD15vX6cXdF+U9og37TlAgfBXvakUxm9hPP1KmGX0WkB7c8wOoX7sX1x5eEIqz/cAgbKUZpLUQkMmQsO234hRaLs0jnLeVBgtTZM9uih9G7ZPJLhWLrNyWE9Q+maLkQoIefyRPTxw+JZPJ8H1roA4YGO5VmSq6xzRz/ZSepI3GqsQrD4oFJYrZy1gLWa8HJkGdrpxm67gmPJpGDy6Vsaw9fvs+WcjPyoQryNW0gLieP59P0sKsO4iDhCAGERaiaAqk54eWnEtu6daMjt0NiJXtHYrtS+fp9Bc/R91O22saRs2q4jXQZuf/YgjKNBQTAmwFrY0InwgcnnonPT3101Tkp+MwxEqEa4J7AnyY6HS1naa1qOFkxjhZUIhLmSbJvrYc1o5FAXGY9RywXP3eYwAoPJDnnDYdz2Of3GhLuc0PBGstJ1KpghSwmCN4xkHTIp1dwuOFEt1fMu/ZFLiC+qewzz1Mt8OYOHOscJzuKR1nyz1viBwNZYD3frV23SP5aWyAvl7b5Wtl8oNV+6n7S6H3yVoWTwYqN6LeA9B4vQk0jYbhDm6QEO+AzhjkY/HYfGHeATv8GmBYvM5umzJXdsUPvK3dpSMclXD7lMz2qcVN4VeuVujrm+vUhlJloN7tP+ym1PGGjBWYIAVrVnOttavkQFFbQJEwkqNLZgqN/zA6cbWOtalNGVVx4kj0k/KNrd7rmg7XDv4CW7cZVt56up4zSC8ymLi07LDS1ViAIyIBuvLZ/GGYuMx0/M2tIla2dyg67RY988v/mnavXeHbOvrmBx1/aB7a+AxHuHu1w4YPz9XoII7NvpcemPg4dyDBJ1RYiSJ3XHuzoPLR3axi1nBn+F2O8IyRp5/jmHz9EgOIaoQ2F7AtWQU+KVpMN2gpZxTNKNTbxqrV89vv3KuDKF7IVvalbF4U7bgVo8bBXGc/c73SsLyWc8u0kjskk69ARrXgHeKlxsVAHYXvila3Te1Wh7rcuxczCfr0o74SECH2AXq47IM4wEqnCLELNN6Ogx+y7bS2bHFD6eyyDPyeDFsOgGjmSdVY0V4IbsQx0+3RY40uDfbAF/Tp91bP0H//4ufoN6+8Trtt/7tw1CGGjHOs5GyAbq/Khc+CWr3mYDgYQLFAh4LETGSk2W7v8H14fahqNZxOpmk5v2wCISA9rhc+BQKQRk9D/BxAm4JbLKRoojTcJoMIVIKHKJopnDyQ62z1GLGyvWPBLeTyc9+kVz73GeqJdYsbHDc+mpe52RHyO1BDg2uaoPH7sP2ahjm5NZ4qf4junfgQN8wxs3Kj2lwImkOdn8axXjF5i11E4cDWIh9pTjQuGTaTP8pKFtvvDT5D8pCwplg32L/eDa6jHJ6BbcN+4Njvw0cY95am6IGyb9WaqxgUpjT7LJUn6sw1Dp0eJsu8Y+YdrHSXBp0+JkthNiugHbMCfrzrO3t9Q0KTuQR96j7rlQJY0WOHgZ5bD8BmGeLncICXw3oEE3qOxnn+ADQOhycTYZUdyMN4/bwNwd2qU+ZScLlBxHyi0aFpiDMkqWnUV6PXoS+un6V/cfab9KW18wOlK+sus7Wpi1kkKUVlZ0I+zxlcJ3aKqULgNDBgMJOepZLr13OttSOfENl8cgp8QNEu5hdkBMO+DwLXkRnzqZyUKazYbZnA7KwjG9H78Mo6ABKEEgVgasY++h12xyV5CwFVG39newdjZ/UKHX3Hu6k4M88h3NW4yQE0OdPwTBPRO14bo/IausYan4kzafFEnqXF3MPcOPu02TrPT+7D385BOYbX940axjXA1mQp2f6r6I5aO5mJo5JHAKybrMCrohWDCXEOJVa0h3KNwMpQNnBuAH7XWM5aG7vpHqAAo+BX8UgsZPL0vtnDdDhvOllT66Y8NsJ0cx0NYKFK2CMNyWA6hjdhNU2xpZNz8rLpwGR6cnCdbHnAenWHXrh0WVaQ+p77S/TgvD1LWjOy0qjfdrUIUXwA/BL0aLYWGPjZhRz1D/LmQ+lR2mNk2HPheLTUdoNyZ7YoVTXDvxLlHZO9Pv3nTIqupZJDD1Ow+rfbDbrWrFCTle9MGsO2Dj/YpWUN5El3Uj7BWZKHHP9hFYuGdHpt2mhtyf2PYoAfK31hWUdci26vS6utNVnbWoHT1FF8vDNeyi4NfY8bRpfLtd5c5/sZlWUAGZCl1Qek3QRdvtq2NioInWwkbB71++7mc6tUP++X/62MWNne4ajvbFF+aoaOPPFuaTTSeEyU57cbA2DC9hOwz2E6aNNRg2p+AVi1ZXeR6t1t2mie86gWmBHG4v4tO2wUkJLJT5gJPJRMCT0ujfrtkwsBq+RgH93d0ApS6Miw/CImV0UthhEGNjK40sxSc6+Ph/cJKe6IMgOos/fPrchG8emIb2sV5pqgAqKBxRPOVy/QDltCsIzQmdvXXv3o8DNOVniwR6oM9XlxxuenuVZfpW+8dp2SXLk//95ZSrOykR4akIviXRD49SJFueL1wgo7jcYFZHsI+7UKongGNHZtmh6KgWL2adnz25TDELIWgY9BVnzs8Ll/PZOUpb1NKi8tHD5g5Z6rbtGZ6ibNZvCNa0GUZpEfbvBdsyraQf2yk2f6FF8D7PhTdkqytGPRsmrBe75yjpU49m9GaUxavA6YcqfpWPHYYJWqvbDauE5d/rMRrhpUCzYpqA0WufAiBHZtAOPCxt+pdajy6gbVL1Uk/FZHrGzvcPT5yXrr4lmaPXEvTR8+xg3HdNhGTZqGoM3BwG8MPl15VQEHUystnSqwhfsQK7AkbbcuUacfXMNYFe1oizYE5mt1k4R5GZkRilByVrnwCAEBIQ2ALNdaGe70/Kd8rGe85DRpOd8YOePYBj71OV/NUYWV9kEx8pw98qj4hVyBPrl4jOaz3gQmD4NOmWH7o4AFDl7ceoEq3Yq8i8ViCUXuvO13hADkqMIOW7N2HIBPTc5vXKeXzq7Tuw7n6f3HzQpFAyC9suu5iRKDa4KCMJ8eNjSdxiEMDPg8ungtf5iuUHnmxwuzX+XaYLqzxVbtuS1yvNWOkMrmRIvC8QfZFNX46c3PyfeJn/+rnRZdqe9SjpXrdCbPVqdpj1HXEDOOsQjGZHqKprPT8n7d5sOEqna/RbsdDCObFcvzTk4WIzmUX+b2GDVT3vypH8BnQZvtDblPUAdCtepLqwerv25tda3N5n0eg73CAGiGjpGui7/8OvUaez/kvhVg7oQYdzS2r1ykX/5v/iJdeu6b3HB0sAiNyhx2AwDdxEc3FLuTMWFQfCUMhfvg1HfTqdL7PVo05EE8KCwSdX7ee50tyfVmWqzTMGxLua8K0yZ6QFq8ZVUR2DzgSLZGi6xo93OTo3vBpglbPXcgY98PDYyoyVgBcAG9keoAPrpwmBbZCoqCXb/jrNqtltkSEUUA31pznS7Uzwe+6xx3rZDGlg9eKNuLm9hWr0/vOJQz8dora73Y/gFAg2PRbRa7ngJ1FuJHejkhjyecLky3aZK3ygvx2WX2nOz5LXlfCw6QPM4Aljs9OoH3jww/fpgTre9yc4f+w6Xn6Q83r3pUA/sawK91DqUbBQwPr+QPsQV7lCZSEzLE/ED5IVrJrcgMY0BlqmtfR/hBh/ULqlQBn/tAlXrFURdSSjJJCoQB0cN+wkFa5SzfP1GN+i2KWNneJaisXqUv/8v/jWqbm3zL+03QIHzDI940Rbtp+q5pOMFUpuGCmk2V6W2zP0rvXvg5KqcXvHgfMlOZRUi/Fs46Ap1+kq5ihrK9Hd84RFipGC5u9I1FWkx26J5cg2bT2Do+GuGHgY1mhq6zsrVhK9DwbGStWakpZsMxzniW5wNNxMCElZVcmd49s8T16XBRTGK9cgibK6RXykpsg5NlEllRjtppothYbQifjNjyohAlG7Rmv0Ob/ZrsC3y9xkrbTi71YhEQxjHotT3XDsNv1adgEK0eRSgcTgeE5SFsy9Eyad7hePEbq9a9XsOwhpAjchJMsNK4t9WPuMYqMxjR6nfpC2tn6Wx1k4uBGh2WjHrH36hrgzgMPy/llunhqYdpiS3avIvPeDiNd+5YlSpKhi0b9wbe1/vVYMpsV58im0mKhesDTNHlG00HElQ5vU1da+vBtzpQrfEw8l2CzYtn+EmyQ4cff4pSDjpw3PKA32EbGqgmpPHm8Dt3Q9VYjQdMXCrh0kz2HlZmKbpSe4GpI4aKNBkjbCnaYewOtNvhDoH92EYPyvMgwFKNWDQjnerLXrS5vd7PsnzNvtlL0ul6nhVMcNjVRsCY5ioInAr8fEQY3COxlCnQDyyf4I7UX0DedvfCgI8drKW71eaODQsneGXDYvYYPsTGAxj2N6xB2QjjL3y9gUvVC/SFyg5dLaZo0knS05Mud8IsR088UAEMCbMciIJfC6IuAFf9Q/Hs8v+w33PVD4Tptgw9BzjKZ5cBfsBLV3h+la3axuDM1bUBmtJ/O+fIJPoovjAwpPzy7jody03RZAbfm3p57xN6fdBOcMh1ZBG4znhHj9XAttqb4seKU9geEfxhxYv397KectdMDgxXh1cVMmmq1e7RtWv43MvE+9AzVtl2Ddh+gB/WNhq09ewqNa5g9bEYQKxs7yL0Oh26+OzXqVXdpaUHHqN0vuA1DdMY0BDVDXawJmTH283H9yOdcZEG3+JOZ07QYu4UdyzrVOtseJKiEVa2NpAj22aya0+aG3re3pJvH5C5O5x+LtPkTieiDOYEh1Bpc0fUyLLCYqt4dPGC2C/fGHxw4RB9YO6wFxoNcy1MhrbfBoYhLzcuE7ZrszvRTh8TaxIyGUo67BHpw4Al9HrlIj27jU+D+lTlDvhpVkjzmRR1M1xP+iSETIDwdY0MM69cA88P2HzwSzBEU9fOa6TfeE06L078HthvoviHz8vdrFPhpeBKWgorlQBhjHt8Nu9QxXoS1PqMrFcmYYZyl8txsjTNVqp56ImCLUf/7Lak4W1+qMI611caV+Qhq9qpUb1Xk1nlWLYxqo21ey1WyNfZ2sb9YGjKNQh7LkZ9L1/pUEeaH/JHhHIrosKDypffyuktWvsK35PNg7Xjuxmjr36MOxLYXP75z/yf9MJv/UcJa7M1UEvWWLDBRqJA2G9kht/8KiBPYzAcupR/lB6b/lG2oo4JLQoyDKsd4xi0+0k618rSGzsF7uRHW5phQHTZacvs5iEwKXgGBlgl6nyjQJvd9FirdNxDQhii1Pbgn8/k6WiuzGUeXx9ax9rpwrU7YBullGchcxI9sLjC5dpV2fEHssJpVX4Ym61NtoRarKxNGG8ef7/WpfTFXUrvWpPikDxwrl7G4vX8g3j4PW8UnwkYxy5mFJ/4jXeYrhGWEKVxfWsLwGSo3Gv+JgA2wBFVywXWRO+vB00+rdMofgCyXt5dpfO1bfabvMP1btPNFTZ/NjSMbfM2WhvccSdlaHg2PUPHC8fMqlODcw8CKXEv4HZLoA7gscTrbShkPkfzra3FMABodh5R+fWpU21T9fw2dXaCq2i91RFbtnch2vWa7ArUbTdp6f5HKDXYRcZv1mgUflMBPdyITGOzmxyoPl/QLThzdLj4hIR22le4ow42NFuZ7aWMsAdunTsTzFTGyj0OW6pIYfejg5nJFkaKlcTGC+Cc6p0UWwdZ2r6JzebHQXT+iPJUu222RonuY2vHtawdcxX8v3CHawPxihR3ug22XmD1ANp5oj76ia4ML5ac8lB5NB+F+DntteYqvVrZoNNVY5VAHLr3pxodWtluSAbdrEN9/RRIKz6QsdJB88KAxu3lt12Vpa4C7BIWDyhBGTavej05masVyp3B/IZogB6Og2V7KZmST4Ds9VhMHXr5Cvx6xW+H88PayCeKuN7mAXKo3hn29fbT+3yIxoxlfLOLDf6PFo7wA+6sWLXhmeeApsXrBAwj92XjaYbUjakqeHEL+tWVoIuXO9SWidlC8KBls2lAOEy0C6v2i5eoi3f9MQaILdu7FPWtDXrmP/wirWRNY8CvsXDNrx4mbP4M7MZjmqtJBT4NKTwliIO1S96Zogcmv5tOlj/AjX/093+2RTda8SZou+fSa/U8Xaxn2WJHxz6I8mcm3wCabYfONXK0fpNb59mAch11JlF4aXeLXtk1C94DdqcavB4+lMfmFXBw0i3LQgraaaoOR1WvNTaks0c6W0ZUPvh0aKdV4QeR4PDfaT7B30ikqN/qUv4KK6pr2KAgVEaIlusZomuvrtdaXYVNH+KJkBUGSEpHMk0L2oDfl+2u1Sh9wawUNSTNI8AJxyH8ULdDk6GY4Wvl1yt+4X95d402W2aJ0KHrx7Bl6LVRdwBOhk9/cEymJ+Q9rWyPiIgIaNpGpyYjUFIdFi/uEa0iXV2q3emHJkgpkE7TWmUSIGziunzfVF7foub18cuhvhURK9u7GI+8/e203K/RvaUUpZNouGgWfnOLbqSmIfm/hss0XJ8a6AQY4MGBTQuenP1J+vDSL9B89l6JU0Qp1r2GUvtc7o22S5v4fjacHNbt+OQB4H1UhS3as80sVdiitTueKGDoezxHEHZR9postdVu0ueuX6BmV61H/08Rvj6IG9WxYv3bCVa49pJ84ET11nt12sDnQQh78u18bDR7Ddpsb9Gl0HAp8Dnunc9yl5Fq96hwcZemXrhO7o79rbWWjd3BtY4u7yA+4p4QqBaw04PXlmvLsOl6Twmd3dA9lr20Q+6mv68vWCQ1srSeMQZ0D/AfwbnDrLUucPCa2H4/rt3r0pnqFnVxEzLs+h91LWx6IA+PrG3H3i7R5hM/WLgemr2WVINWE/x2GC7CWEVKy+gDYfsYjZ2X12jnlejh+bc6YmV7F6PdatGJY0fpwbJLp4oOcTvyGqOqGdN4jN+nAD7NdPDw4VdDSkG86RT0abwvsyYX8w/T22d+mFbYTZKxINE5hD+h2R8SsqPPMDhfU9ABpFRY5geupYzxZcdGM03nazlRuPsBVn7U+gDEerUJFmzlGn6okDJFpDtb3aGvblwZ6ty0fsd1wnacXAv+n81glSdzbug4QYP1glmo683rgTRhQAa2cltvbtC5Wk+GucN4nXr0VebzRJO72xKlm1mvUaLD10d7cMD2A1H0MM2OQwZSj15YYfOoq7DjFKEg1j521+siXgEWHMjOW+hJoHSF+h9u8blaF1Tr1ciE35eucZi89trOdWNNejQbcg09jLpOaD/YVL7aqdKl6kW6WLtEr++8QauNa1RpVyTehsjhk9pomffFOD88jCEn+JUdrubewrkNZS8pvENhMxl6nxvZ1rPXY6t2BGJlexfj4cefpE7HDB8eKzh0X8klbMKBZmLUIqCdp6GahmNiFH5Ifcob5DMwdHxucKjwOH105a/TQ1Of5MZtGuS4Bf1HAStBuVHp7LbvQXL3hphlZyDmQWdyrZGh8/UcVfts0XplCQCsJtlIiO6OSBrGcKfHiEjXYGvnN69doO2OmcCkQCc5ssMdQQew/OKEY3Z4QRH0wOnucGe81Qwusm8DcrFaEZb1W2v0uGxehIUOy/lNFqaL76HEGbZsJ1/doMKlXWiUyPOUAth1Dr9dRxJvuQL1gDYgGnI4vcALiwyb3wpzmvxrG5SssZVnKEMYRVcUWUaJz3PUhHcDO9IvC1aTqraDcxn0uut1te8DBdZfxjfT56rn6PmtF+iZzWfpbO08PxSdpavNq/Ra5XW6wMpXNqu38oasHt9j7V7Tlw/x7IWrw8jw+897nMYXwQgEGMPlMzx96jY6lIhsqDGAuGbuYswvL5HjmEf1NF/pe0sOPTrhUiGFj3aMjaowTcpQ1A+YZuQ3uGC8fQTlAcgjyUr3kanvpffM/ymaz55imn/L7aXcFNjo3V5Efb9Ap7Hddul0rUBXW1lW9MHyBcBR+1GkNwqUHuLDr5o3Wg16ZQc764wB0njpojpjvT5O0qWV/GHKJ7MBLnSmzX6T1lrXB3IUKg+f+6w11mm91aWdwQ79QYD6De6hn+vylQ2x4B3uBCvd9FbTU7osV3p2C9qzA3a8CFNei6aZBDLjeJWDY8BnhYEB3QCWd/bsFiV3zS5HUfC5fbDEAPAMcnL4I1QPYW4LHHWpskt5Z/Q8Ab0W4Wt8oXaOXt19lS3Zi/JOHWscd1iJ4vR6rIhhNXfIfOYFIL3KaLKi1SFkQNKwm4IBy35b4eLo8bVrtzzmyBoBguVTpPIuzbxrmRLp6Pi3OmJle5eiUCpRJmtv3IwGkKDFbIoeYoVbcqBwAX9g2ITsBmbizE1i0g83QA1DtZrU+DXyTCjrTNK9Ex+hx2f+CM1lT3hxDM/ZE9wLuJHDyIxwcTw0ewm60MjS6WqONtoOd0/Gdh+FqPfJIzFO0BhIbYSywScZz2xfFxcwV8Jnwo4vF+sXqd7F0Jyp4yhourJboqOyQL0rnSeAoUN0qNutbap1/XeVNtApX6lfI0wgvdYcfYKwkf5ZMkVroRNJsoLObjWocGGH0jtmxrIg7DLkSgzCPt3mYaYQvDibB1AtoVB/6Hri3XLu9Q0RqzHqDx82QrkN2kJayhHNbV8/0DS0UiyzsgzumOW3FeO3XQDDw5drV6jeQc370OdG3LdoyfMZ7PplMJDDZUS8btE3OPiJr+M96eI0QIOLY7fSYwXsCZdyqd/wG9h+wPDhN7dQoOLJKT9ZjAFiZXuXolap0Dve+34v5MPhhnQol6Inp9M0m4HNCPiNx25eCo01jdh06iZkYjRk/HZqw2tWY+3TcuFt9IlDf5uemP0xKrpzXorh/MJIJ7ssIZpL3stawGpQ602XzlTzdJ2VbQer7qA32QPhod9x2FvaaETlcqFWofM1sw2Z1iMA/4tbL9Hp3bP04s6L1OoGN36w69pcDdO54lOQ6fS0KFlAT7/Rq4vC1asCIA2sWizvWOu26EpzxEONB8T+XipJL4yo03SlRZMvrVPp9U3ZjH0A8HtpfPUDePRB/bMrfp/fxBuvuDhgfcOCxjtGnKiWu80u0qt1zf5kvU3pSzuUapjyILm6UYcNrwQDIL7U7ZJZcyrMbYA6taGhGivMsms2D7Cv3Th0+h1ZIxmnotVhYEYXUtyFz6Vn+CF2TuZKmBjvoYz5V+urg5zAL1XLbabvtRsJM4zsPueVoFbbI0rJ1Q+oP1AQDxzHZCfn0MT9M8FkMQSYTRF/Z3sX4sR994uyXTwUvUoR3t1OuEnps6pdDNKaBhrdCZjma7vGb4cMBa3M0FWW3/UghGHlCXeFrd0yNbqb1Ozucvz4nWMd7j8Xck1/2Nlm9vxYAGO9mZXt8a63M2bpxXFCLRzIqgWYXdNgwheKJcPDnkXgvSr2fkYA/F58o9th5ZihUyW2CBim3vDJzhpdx9AvA5YvNgHHfrR2eZVXgTAWPABfm63hepetTGVhFw8V05npQccMYMIN3gdWuRxf3cSKR17EKLAMpH6K3UwwewFIqUaHHFZuPVbMPZevxcBaCkHPBe7AL1lQosJmNkivVCjJ/t7v71LiYp16n1+n5LPb1PvCBtE3tqn/hS3qP1el3h9sUeJslfpf4Xtqt039VyusfPkBgGnu6W1KOXwv8vWyqm8YuJ5dLq5fPUP4lUKaXkLbQZGFEhQYvCa+/7HpFbqnMB24fmHYaeHHwhW1Tl1WikIM6gWf8eAeK6dLtJJfpuXcMrkpf3ga6VTOhep5fojituOJxXnBr4cNlOvM5RbtbHMlBABGPeybQwUojcP831yryQpSfTz4xBggXHsx7hIUy2X6zRfeoEKp7FGi0WEL4CXumF6v4JsH3Ap6S5iGZCvNYFz4tjH8Gm8rbuMHNGzcndZV+ub6v2XL7QsSHoVpp0VH8nVZHQopwzm3egl6ZbfI1sb+ZhkromQBGLHGdraj4qMQxatyoiAPDqyA1KJ+bHKOfvzI/WL56OPJ6d3TdLmOZRhNJznlTNGDkw9KpxgG6lrTqR+LGby2+5p8Z6tJsLTjkzPvJNebdmsWPLhMZ3fP0xt8D3xl2/r2ZQwwaPn/6XTpkT2+d+45SaouF6m2VJLzFW2hkDJ5BQN9u00Jtqr6X96m7jW24i82qc+Kspfi87nGcaxPenVvEg5mP0OeWrBSSZ58fqBLsLWbKKao3+CHjxJbbPxUgOHRzLEUpdj6Sk0QufPmIlvPHVIaKSI8FoTOx1k+n/9uKkcv7G8bWQsJ+omjj9PDE3NeGBT/mgF2e1GgLK1ekxp8bDU3ZOa6k0rJyIWbdGWRCxu2zO3WFp2unKEKP0xJteBc+cBAAFw5T4a+t8XiG1+73qGLq23KbfbI2WOUw8CUWYH7ub3doBf/x6+ZUYYYA8SW7V2KR97xTnrPRz9OpbKZnToK6J8m0ynK8Z1Q537Wb19oRKbZBpsTgAaNX98Fr+H0G7tPV16jLE0qWNdFWso/RDOZI/zkvilrK0eCy7XElu0obGBrvE56D/s4COHUIofh0SIt6YNiVFqm20pzt92mp2YW2SI1Fkq316Gt9hbtdnTur5kANZWZkoUM9gNYRelkmuu2Qm2si8v26EJuQb7HVRmY5Xq5dlnWzf36Vpvq1rD8uNPGnFqXed/NlTTuESfByiGz3aTMZoO6fJ9185yvnne1S4l1Nj1ZufZ/gxXJr1ylzr+6RN1vstX67A71LjWoD+t2lw9oCFawcu/oPepdH1wnoav2kPfffLfJEHOXFW6fevwg0dvtUetCm5o4rnap/grHsxmfXmClzF5ROkjvFS98/k1uLP/TRJa+5a0gZeL5F4msazmcMkGHsyVWtPM0lR69bzEwFOYgrlU2maHJzKRc/zIWMGElC2U7DpuNTbrSuCZt3C4evBIO0bGOyev1Hu1wPXTTCXnISXLV+5/reYkCRxCQVz27LZZtvI9tELGyvUsxMzdPP/Yn/yw5Y2Y/GmCoKsFPyiluwFBc2LAaVL8hGUVpwvobDOmv6ezgMxzSC4nPAH6jaoXK/1hpaiJ9mJXMFNU766zsKxwfbKRFt8MdTCfy209gre3Sbnev84zACHkDIH4vnnE4QFoMDZ4qTtBCFsPECCfpfO28fFeJMA7s5IOl+nTVIP1T2GF10SnPZme4s87SfHZO0pv9TWH5dsSqxY5B11tduthoc4eA2jfXWx42fPEBoP9dZeX9cfaNf5wzwEIYqWZHFinprrH7YoV6v3SV2r94mTp/sE6dl1jhrvIDFRaul3eGeviwizLKvy9w4fusVHqs7JsXOlT5WpMSfP+nF4ylGwZIeLj4bD5D/4ytZe8zbqazRxV8IJ3Wvo/jhRl6z9zRgHIDlz6YjoNIs9PZQkLQnLEe9rXmNar1qkKTYnrJNDlocm95fjzKfH0LQ/esaFnZtnOckiMdflgxD55ewiHoOZj41laT1r54WfwxfFgDKDHuJswtLVO3yw3nAFjOpujdMxk6wmauKy0SzVQbWFDdKvx4G8M0kxqNUrrxgR+AYjlcfAd98vDfocdmPs1P7PYsau44OliQQxt0EJgQ1R6zNZ7ixhbTMBiR9VhohyhW1z7Sd9i0Ol+veJ1fQvYpTZMz6BDhpjgMugIdNf7sa2B33urHsn6LuUWZRIM1dJV+rX5NFraH0fhGBZOH+lLPuWRX3ul7pxANFrHOvP+6m+QO3aONARY8SLxep9S/OE+df3iG2n/3Dep8do366w3unTvcEen9BfjnYANUPdcwh4YRu0exWamYGpBDtFCP6i+3yH69bQOn95lCmv4lK1obIkUyDKeyrwKG/7N0sjglD1QAzgF/Npd9DQHlsenj/PoHmXDNAiXrRomimFZPj1xxaLFlBJ7jz9a6fH8YmoAfjOrTDm0ed6kxgXNHKkAlAOp6wjjDyuv+MqQxfMTK9i5FOpOhVGp/w40KKIiym6T7Sg4t81Otf3P4Dcr48KudhfErlIJf4ypMJ+DT/O7BpEaX1qf7Jz5GH1v+q3Sy/D5KJ82QWzrVZSWjPYOfF4AFL7Zbe5/nfhbTGGUxBM9jf9B3sTIqi3E8C3Y+6sc2bB3Wei3vG07MQMXnOIj1RFGr36SMY97R2bWrHazS4Lch9ezlo3FYAAFWbaPXYMu2Sxt8CLg+3WSfLeEROygpWEyLj3+WdumMR8I563krei1WZK83afM3d2jtP2zQ1m/vUu+1CkeY620O36eljIJ9jmFoCjs2LCWYEpJMrvjFu+Du5vCwJ2Scc1L0j0ounXX8evSlw4WEcG4mjN+FbIkemlgc0ICo89BrY8OU0vDCVR7bD9h8eA+PnZtwP4EHRQ5dFoGeClx8X7uNUa2IB6c+a+D6VJIa5aTXjvx8w8Bw/LXfu+CFYtiIle1dCHQI2Dw+Gb2i+B7oU4kV7tsn0/SO6TRNuEYdasPW7k4bO341bHcFgB2y6YZXUykMN95Lzufuo0enfogenPo4l2WWLSeHlY/HGZqQs9UODh/bimw/sC3esKIY4GAih6Byoz4VHsRxuc/UdvjBAjZen7q9Lrmp7MAiAVvJKXEHOnq0wq9v82eHbaAzPlM5I8ob84xerwVXNQJQjTl+yMly/uN0LixybFAw+FrEAyzZxoUmbf3aDm38x02qfm2X2utYXMHYleEyKQw1GIfzwN+oYgzT9bz3D64SfjDw2wskIP2XMy79Q24L9UFPqVJtl7mH7h0TnnBz9ODEAuWdtFcqxPjXBjDnZvj1fohaDcrmsxGWh/fz15vX5Rpqc4DYgN9zFTudPlUj7k9FN5OkypJLtdkUYZlyAwiAJJFGnWqLrv7OWUTEiECsbO9CoMHinW1frIeDwrRIDHktck8LK3eaFa6qVMBv2GjkCJvGbng0zoed2vCZP9x+yq0chk40mVmmx2f+KH1w6a/QkfzD1OxGPziss7LtaS/CSOz53UoQavEOl3oYo3j2UvAar3OPopS6XDPumGveogd4L4uVgWApABCBd7Z5x59g49cjas78jYLNZ/arvSLWDKza64ENvg0ffrGTUy7ZofSYMXjI+2wySdflVR+n4iJ0Njq0+8Uqbf7SDlWfrY7cak3LpNBQkGpgzm30+QVjTCgsXyWDPiQJde1tCgEg/qKbor9fTtPXMZlh7DUernmEcdxfnqMHJjB3GzyGK1wu0PEAdL1xnd6ovEEvb79MV/j6rDfW5bWBKa+fPgoa1+13ZdJbo9sUZaq3mlwavt6QJH4rEg6Gki9HrdEZQpOtW1i5vsL1sfGH1+j6Fy56oRhhxMr2LkSKLdp6rSZDyXvDa40BmM4gxa1yJefQe2bTdLygQ7V2R+H7TVeAsMozcdpFoMOwuc3hL8KoFByGz8iay56kdy38JTo59WfZ0jopMYpKx+HOJdjq9zNcDNgKUnxakANAdZAqz1E6aaBcvSyRN6xFvwQG11v1wXJ+SIN9aMGkRZ1yzXe4Cu1gbQRreTgeHTE6cmCXrZkz9sITglAaLmiGT8zVc4jAJeb5ZSdBTe6sq9+q0fovbdH27++w0sUaxMF0dvnCiCovMIoeBiTjsLmVZmBigvJU8TJVF3rg4wVWtP/PUpou8+Uw/HYahS/Zup0Gec6lC/T45CEqsVUbRvicMKT/+u4bstn/WnON3qi+Qa9XTtO56lnaaG6KEt0LqFtMjLpax3b/wTLJ5WOCaaMclkIaP5wL9R67VoIR6KfwHjdFNT6MwuUHhUqT1r56ma5//oK8NogRjVjZ3oXo8hP6wsohajWHhweDiOpAhuEmE/yE7tDjU2nu8M1TNhq23QkhbLqtUQ3Wzkta+iClgZFgpBq5hoso50zRdPbjtFj4Kcq572er23w7vN5MU13f5R4QAwXIkNxCYqKk2mcAhBX7KEUf7sSQN/ILyzuSL7IlYzpVTBrr9TvSEWpRZ7OzxmPB1JWpPQBh9Su0VmX4ePcM7bTNalVrzQ4fe3fi2CM+l+pFfuKDc6vz8cu1FF3/7DZt/fouNS+wVcWKfPgMhxEsqX8eQNR5hGFTtCZs2KWISm/qC+DYZFd4X3Ud+oeTGfqqjKFLZAhKBLfntzLS/PDNtJlT0OC695VQ+JrBet1p7cjwr1xvEPkH39debazSa7uvstW7JrxIo+lUjgIKGd/W7rarHsWHfQvCL1KQlyfi9R2steyVy2aOAsc3yylqlpJUu7xLl3/9NF35jTPU3tmrv3lrA+0n/vTnLgMs2+P33U8f+OR3e5RRQKPao2EJzOdBk26SrZwEW0Q9WSXPT2s6cxMK/+LwGrFHNbzmz48zPsNhYPwmJpFwKOOu0ELm3dRJuPTc1uu01UnJZyrjAGtTcvDYJDw+iQCW5x6ibzkeLE/TgxMznK2pT6yHjNnC6ANns9M0k5mR4WXAr79hKN2Oh8VzqX6J1ttmr9HVRofOsVXbkKFFm9eW6fuT8q48Qaz+DcFDrtWnp1+p0Y99bpOWX65xj+8rlaCkYDoAFLk2e8KkTfADCPRAMpWmBOYkpHOUyhQo5WbJyRYpCeWWzXNcmsvrcjhN/W6Hko5L/Z7Z/Wq4FEY63o1nHs7T5QmH/l4pR19PRy2ROIyBROUT1wR22k364vpFtlq3qcn13OSHnXQSn9gFN3zHtd5obchqX7jWJk/m8Fiw6QDWN8ZKa/lUXibPRQHfU1+oXxx8Lqaywi5g+y/Uu3SRLdv9fLswUMTcD7T5nlj7rXO0/cUr8WpR+0CsbO9C4An1g5/6HnrkHU8eeEbyXsDkqWMFM9S50+ny07TX+BjagdgdCfw+ffjXjw9S1MdnI37zFM8uK91i+kE6XPoIK9oeP8lf4jKM7ibMcJnxA7aiHfsEPyZqL9gKfb9KO8Md6DunF+lwvsTsnIDLtt1kK6XLVijLOFo4IosZ7GV1mDoLApNtMByJSTMyQ5VZnmMrZFNnIO8TmFTd7WGla5MHJnx9+ku79Gc+u0nHV9mqwblG5I8ymesXhM8ZVWoGa8BUJkdOrkS5mUOUmVqh/NJJPk5RfuEEFZfupezsYSpwOMvx+cWTxl04Trm5o5SZWZE4pAdfEkqYFXKSlXOvVePzMZ9BIe9kOkEv3J+nf3QoT19jRdvhSsIfOMAQWT4LEh9iEtlM22o3ZC/bc9VNrvM6K90OP7ymBq8MkA+s0s22/8kMlCGglxvv63c7O3yfZKjoFiUN/hS4xldra3yNVweKFLUua4d7bCrLBmjPbHPenagrtAecBCUXc9R8fpN6O+HXETHCiJXtXYhkMkkn7n+A3v+JvSzbGwPaLHYNcjmfWhfDk0q1G6zfsuEzHYOhwQ8+5VC/xpoO0ISMz/xqlw3XTRZoKnOYJtMromzr3W0Zdr3VuBEL11bogn2kx2SonzvxkCynCOCBqcMdMLbFm05PDRazCEPrSV2FhmEVXWtcowu1i1xP6LL77G+zJdOWuvQBfnNdAISCp24o6DBa/SQdWmvTH/3Pu/QjX96mQmhZv3BZ9g/uvFkhwkrNzR6hwvK9VFi8l4or97GiXaTM5AI5+Qm2XmHN5iiRYuuVFVYCliJ2OeL7MQGrl8Ni5bJShWJ1i9PkFiZFEUPppkuzLPMBSrIiT6aYj916o0L/y0en6EtFZ/B1GSYN4eEGQ8Hjz2g41tSBRWdvja3sy/UdOlPZYAVcl2uR4Wua43OAEm2zRYp1kIXdSqrKU6/NbGZWymUDlvHVxhW2ar2haL14Ib6BIvbIG3ztTld7XDYTPhBYSGoiQ73dNjVfiL+t3Quxsr0LgY76A5/4FD365LtkSPl2AB+/z6STsvJUrdujymAWsN/NwGfatPn1laj2BD6U00hRHgM7ZKdKJ3M0nTlGU+kjTO9RtXOdLa/RG4PfCGxlu98h6ABsfpY1SnnDqn2gNE1p73qhM8UfrJiF7ALlUqxcrI7TxOrjxzAQh3e0F2sXZMIM9kAF8I72xd3WYDjYFAd+X6GYsP76kE6ar/uh1Q792V/fpA++WKOcNyHG5lP4UnwYWgiwYFk5pifmqXzkYSodeztlp5ZZQU5RKp01ytR7CDGABOu8pV68ipUM+Ee0jQWkd1JS/5CZdDg/VrpQvm5xiq4dW6DPLDVpI8sqEGJY48KFGAfKVkRDuAjzXEU4HA1cP8jEeuSrzSq9ytZuXTahyFORy4P1jjv9tuxZa0Ok8w/Kgi0UJ93J4FAy07GRBFYCA6Q6BOFy4Ty4DMyvPK9WujILOfC4xPH7PCXhS5Zcaj63IUo3xmjEyvYuBBrUoePH6UPf/X3iv53IpRK0kMHaygnuODCpQ5q0/BkYhRAuBcKGy/yp0gjSjd/EGL/vM7kAmEB1qPAYLeYepEprjXY614S+X4xSoto5hv0K2YA7It1IKC+78s2tF8br0O9ZPknHCsFNI7D2bTFVlOUV93sdtU7wwIWh44u1y56i7dNOu0dvVNu0471XbXszupLyBBANI8/ITLKSOHytTX/6V7boidMNcmD6McIl869T0B8Glk1JZfKUmzlMpaNvEwvWyU2wcuVuSc4X8tkVEZ4c0D2v4bFcIKqeslx/pRw/nTnyKRXWazayDWD9TlCe/v6DF6mDrEH0xMhdxn4oXBv+ecG145Tuw6bAD3lIgYVMLrGl+5W1C6w88XpmmkrpolxzTJDDd9AY8eAoSZjm+wGrgGGNZBtX2KLFZ0MYioYiBSQP9mt1oH3hPkt4C6yAjtnor+12Kbz3BDiEy0u7172XLLjU58bffGHE2uYxBLGyvUvxxHvfT0++532U8t4L3Xpok0ywlZugMpu6aVa4Ox2sQoMWjzjf7kLnZP8phwEo/q+Bz+HHqTSFpjD0nDNDh4uP02z2OCv+TbZ0zWSgvXAghWnhhtJpGivtiWKBnppZYqslYisZ5jNnaddmEBoPQMlut3fofO2cdMB9T0m0un16YadFay0z4xZo4P1rH68DlGIVihHO7dHX2/Tjv71Lj5wxK1vZsMPhOIVNxzBwbuEYFQ8/LO9fnWyBGViroGMHIx99tt4S8qExCF5pBh2/xycYeAYAt9QL8ycmWXYqaRSNm6I+NjTA7GCRZY6vTG3Q16Z3qJJmukk8cOFgNS1dbjEIn2aug1dOix70WwDZOy7Xd+laY5dmM0V+aJyhklOkucwcTbAlm02kaSo9JSMcmCSXSvhWLRY5eXH7JepgL0GGVl8gSy6SGRiwiViis0vn2aod+jQdbEHWsUhwu09w+298Y4368eYDIxEr27sU80vL9LEf+rS8v/12AB0R9sc9Xkhx403QBnfq2mJ9ZeD1XgPXjwu2d7/bUi4NmV+4hmb8hgNHKpmhcnqRJpwlViJpwsYGzd7wpxBRuBWjADci44kJVqP9TS6vQ0XuZOVEQvDrMOgHNAzLZrWxSmeqZ2irtTNQtHj4OVPr0IVGR+rK0JLUwdMC/+swaRCGoLLnNnv08/96nU5exiILUfCpw+ULAu9Py/c8QYXl++R9qQwRG23ALqdmS5SKWUq4bIk63EXxA4RYo1pIMd/0qgOei/gBD9+TUK5Zfthki1auC2Rze5DFHdrB9/vbyRr9y3vX5D1tWCxcR5IjUqGRgO0HELZ59wYmrl1tVGQC1aH8BE2k8zKiUeD7YSo7zQ9iE1RwC2LxKnSGuQ4fK1BMVJGcCsoNF3/we0Wts4Z9iZXt1i0a+U1kU9Q6vUOdi/tra29FxMr2LsXD73iSnvrgd1E6vZ+FLW4d0KnhE6GJND/psr5tBB6bTUuXTsDz668fhms4NGwsOqUbIKQchsvnT/CTfyE9RyuFxyidLFClfUk2UsdSgcJlWG87pG+28gorYnTgR/JJug8L3CfwzrlKOx184oHZyRnpWO3zCkNozNzpd2SxinOV8zKkiLACivb1SosuYO1fjx9Ovest/c8KN5PSeg3moaEHz7Toj312hx64cDPfUSYolc5RYeEeGTJ2i/jEydCNoy4f5YJYoQkoWhzwy8MbY1BUKB0vEKhXT6qScmlR2gEgEjOxRWkbxi/Mb9CX5rblXbb5M1FGcWGSFHeWAWVrYFKHoVTjetIGbhhCRxSXa7NVk6HlebZwJ1x+4PCSRD3Erdav06XGRRlqDkBkiTg5EBtmeYUVrXzuM3xKkQjfy2Fg16TWa9vUen1ncFliBBEr27sU5ckp+t4f+/HbOIw8GhhWhpVbYG2CWY6YsWzaqq84vf7A+/VbcrBD8vnUZ/4MtE0bij/IqhywmGayx+n+yU+y1ZinteZp7lxG74urctGxiF8J+0DUe98oGXaneSibpMcmHMpC6zJgmdZ7dVmUYIetlWa3IdY5TgxTWHBe+MQDwLeU1W6V1ptrdL56ka41rnIY2xP2ZY1/k02fTu+26fVa20yP8iqo08dOScZCggJJsqKHETiMBBVrffor/2qDHjpn6s2vfRvDtDAF70XLJ94hn+5A6cLCNPA4tV5ghWb4nvUKhPpKYL1oKF1WkEK16nAkwAMlzfJEYVvAOSQ6XCP6TTDzfnHyKn1jsWLeY0O8HgC7EBd+b6v1GVkeifMS+oye6wMxOPyYBG23G3w9K3SYLdyS6z8sS7nByQnw3e2F+gVZlnEUVMFq8RCGH68UvrXTJWwTHECwIEF49CilL0BafiCqf3nVTOOOMYRY2d6lWD5ylN738U9Rvlj0KN9+FJwkHc6xlclmASZj4BMhNFXTXLXRhin+LzoWKA/tAzTGNOUwN36lK+J4P2x6ARKle7T4TrZ0s6zMrnFZGkIPwMpI+5RB58Jx4vOCQwjzM8Q6g2Uf0mRQM9jg4YkpR0YAwv2X+ZSpIbNSYanCakXnilWEKmz5YrN3bI93lRXsWnNDdu7BZz3amQK1Tk+2zTsvFq0HjoPKbkDRekPI4M8MvbM17vJah37w8xV65yt+XSkHYOrXAD4Nw/UlJmTWb5mt2ezsIc5PlSwAfq/QWvi0axSkXSnwYxkr8LCS1BjkYfLUA47GAhybZ2UVepUiZYOi9RZiaCe69IXFLXp+usr1yIrdCDbw/Aj6s5I9wCP5icQBYAl35PuhvljECq0fS4IgGDKoeWsinyhOs4xg+Ru9Jr1eeYPbVEXSSplwmOgB7Kqw743nd7t0ha3awX3hweYfhZHKlsndrRbVv3qd+vtYleytiOBVjHHXYP36NUqig/oOA+9ysb7y2yfSongzOrWS4XdRtko1sLsv7VCNEsWvuoDx+67hNDA8CCcTUGwr9ODkp+idsz9JRwpPUDZVMmwKI1AwkCA9rwcvPmzgAGF+dErwYy1ZGwit5JL0Lla0k6xwAWslP+kUFe0eFg3psaKt0HW2YDfa63S5flVWlaqwVYvN3wVWGqSv84PNM9steoMt2pYlEAZHmxVBjw+luuzzS6hU437fH1Tpu75ZE/8wIMOXDYTDQHpqSd7PYoGJIUjGnEbLCNez3MNAfUIJS2cvfEwcnJsEjDzQPIUgjlqvUTBs5PYden5iW85IIHT+gc7weEwMAn7dGRe/HpPnYs5Cg+0Y3Op+7dr1pS6oGm8Di1z06asbF+ml7Ws2OyvxNl2rXZGHLwVOeXAPebxSRXwkxMMuZwNvmx/+Xtzp8H1h+GxEkIYQaA8hJMtpFD3GCMTK9i5Fs96grfX9zca93cCw8nw2SQ9POHSskAw87QeVLEKqTE0Y8Lspv6EbDvxqeuNqCvzBr+oWIRz4TOhE+X30rvmfoQcmP0Zld54VcXCYMQzp4Pnfz/3GgZ2U3jnp0lwmKQ8iIhqyWbj6AQ0DGj8ogIYVHh8WSVhtdOmrmy263OA6s3kYnX6KDUPRAAbM4CaNRewjQZlmn973hw364Leqg+9oh+En8rK3gLpOyver5eNvJ7cwzbQwF6eXjJmuJwo/sguUx4IOJ3swVhYzw5VKMnSFiA+NKgxg0S9na1Rqs0XN/sFnUHC9rOSbW2QjHKFMBErrs5IkUWQOaEL24wAjw4bGB334w4Ikv7t6hq41zXe3UHQXq5c5fM2cMojW5ZH0oOuRZClgEkZYxH16lq1aHRuIemhURG0HuSfaPX4gilXKKMQ1c5eiUa9TF++l3jRIsCWZpAf56ffD8xmx7nz4CtbrFyRsFKWGFKCjl4BrOhg99Bcu/rRzNH8GZrFB7Nm7QI/N/Bh94tB/S6fKH/BioxF+mpcOzIPp8A3w3lZhpwHHhJOgx8oOPTXtssL36BwhnTi7OtKpYYWKUVo4DMCPYeNXd1r0/E6DVllBykxjbd6cBtZsE5/6IMxRSJPmzhh1BD+4Dfr0tjda9CO/t03piNkzSlF+uKDZnPDLAhXHHyMnh2+HlcNOpYemZJeDCWzEMMIaFesWSlJO3pIJa9iqb61EcI2S1cdsZGFL0FSV6MVZtuAlAf+g2ag4dvveBLKOnQfDy0F8Crzz1SVMpZgh+HfiMLC0YiAJB/Du9nRlQ8qBrREvynvatpwiJHmv3gMj5RInkXhIMBIRXuOngJdZ2SrAMgoq90DgB8heNfwiOIbiRqo0xh2Ayu4ObayteqE3F/Js2j5QdulhPiawFBXfhqYT0q5Gego57M4HXRH4vO5DXNCMq9BQmGLSmg4GadEJ96noztBT83+CfujYP6R7Su+V2HGwlStgK1V5TRcBbB7zaDnFDxp4fw0Zho6hPyS3XcTBRecJv62EcSLB7GH99OlavUvPbDfodK0tk9FS3gQVVQ6wZBq6JRHSM9lh0wXKFuYNuLRWp3a69IkvVenwquk0jYTRCMfL9XBcKh19hNLleb/AdsHVKy5+IMUj4uRFEQ7nLOUMVAAqCS7/ROWDFFq5CqloPlvvfS2u30szDUrxwwqi5BHOHuiAaCZJvrboAMCAIV5WtKhnVnC4o0cjQpAoRb0/AQ6L2D69VlljJXtZVolCvBTFE4Ey24dCefQ+2uTzfb3if/ol8GREIXyfA6CMs4bb5yuxZTsGcc3cpUCnt3H9OjfAMa3jOwQ0ZKytfG/JZaWLb0uli5Y4U1rjNzSjJAHjaiegyhM0pZsUoNmu8qpfASpSpPA+1z1Cj8/+Efqupb9EhwuPjxxa1vr0pVhQIrOgU4IBW2BzN5fq0Nlak57batJ6M7jKj3SInquAHzrC1hOg+ZeyT5VOly5U2/StrQb94VadNrzZZ5KWBYLVfOqToBY/BWAGsg4NYoEGDB8HvxvtU5otnx/93Qrdfz5i8lgARr7xBZHM5ql89O3klmY8igckGDDD40mQE/fCeoLYGjLCIpXkAxmApvHTDu53JTXbpiKFxgTIrfL5aTrGdbdOTdcrCmeAlcEAGakQNu++8qxEHyY90uBOanK8PHDxgQnmyELv6yA0nYFw4FoEWL0wH+dqW/Tq1lm+5lUjk2lSfESzP3Agng/EKw9O/+XdDl1teoR9IKrfACVcBQOlzA8wSW7Tva14m71RQI8Sz0a+C9HtdOjJ972fHnz7E/x0++Z9psIuQvcUHbaysPoUFt83dDiqOgH4EbLbugmHO37lNPD94fS+D8D703SqSJOZIzSRXqYMFVhZNWRBDGxtptDORRRXUIQAitPlyFyyS1nutWFBgg8TlSrc0WMFpys1WBis3DgCW69luGdG5wbZ2ncBUIamgzclwPvAtUaXzlY7dKbWovPsrzLRFMUkFH4oV48CIxef+cCPbfJgeKRZi4iC99IoHjzTpj/1q1vkyukiLhhvQvjVGh8GFqrAIv8GPh98A2nqCZ4s/4CLywoHR2hWskiDVQoFOqDD9fweLWCVKb88vbCEelM+UdEkWE/r5fIO/e4hs5A+HlAG60bDsUThukpLsmgI4NqZRUJMO8PnVLjuwWZnEoXr3CCK5lP7/S5ho60Jb9s/fXbQ04QL3YgDE5dRTxrX5XO+1OjTi7vdQduyIcpZM7pJ7P7qeWqf9iduxQgiVrZ3KdDhLK0cpvd9/JPsD7T6NyVKrHCmWPFCdWIih3YM6AfQQUE5mbCh+FC/dmP4VW4DxPgSNEVQBkJ65J1pWi4+ShOZQ9yJVqnW2WBFF3oXZSdnYCu2LB85xwzPpvA+FL2YxYc+ssM/OL9V7vDP1dusLLE1WkfcOh+7bKHiVft6qyNG2NVGhxV0jy4wz2u7LbrClvEGM4Q22hkAWcqMY84Y1lYKPTBf/iwrWChaRyxa4eTDr6V7L7ToRz6/S4vro9+5mVOxf4PITq+wsr2fkoOFVAwXcvH52YcACoGyCQl+4wWk3vDuFsPJeCqwN2eow+plZk0rgEAOI16CXlhz5frAu+A+16kocisOd9z/fuw8nSmztcskKE3UHSZFaXJxUHfswXW1gTg8zLTlDuAwX5cUlxkPNAJJjJ9gulHwzsCCeeEx7aZogg+cGjh0VGLY2vaBmFW+Ub65jfvL0IYQTu5XTSQCDzIW+g2+dz9znrqre42KvHXx5u+Fv014+niJ/s3P3UuL5W//IhC3A3jarlZ3qVYJ7iDyncHeHY3LHdR8NkX3c/0fKzjyXhd/UBhBRYuQT0EYv+DyAU5za2vnZUvQdAqTgx02qgobG3xo6b+kj6z817SYf9CLNRALlnky3LuWUl0q8pF1u2zV2MOzdplMrvJjCiGx11npXm136bVqm/5QJji16HPrTXp2t0Nf2mrQq9UWx7XoarNDNb6m+imPORNz1npWAiZAKcjrWA5ic5g8W9i6eMUg81DZPvDNJj3+aiMgy5IqMCmC6QCkSSQdKh17G6WyRYvFSBjIHChBdTy6nBMOE497V0h46qixJVqtm6FltlChMAOfBw20j7nefTYnRTRmLuMiDWTCNbkMysHultuiNGcjRinzJL367aMCjddYuJ4/DBjLGKaXVZyYr8/1LfVssvOAxONq1kfwPvQzrnNGKDayAY9XzME7WUBdBdK8Wund0JKMUKr6vBCAKcAQmq9sxXva7oG3vLJFe/zLH1qif/cn7mWFW6RHVwpezJ2P1154nttGRMv4jmB/5cBCGA+ywn3vrJmxbPoP7aggA36EfBWpB2BoCIl9IhQcmkrTGRg5vkyT3ufxlG72fvro8n9FH1n+v9Gh/ENUYOVVYOVaYOWaY1cUbMjiCcLIDsNOYXJlK4l9GNKuddGBY1jTICzdlM88aPjnw2CCxPAPXBiBCPgdsUnjlylB73qhQW97tWbSya+B+mx+TaVSAOwlm188IXvNGsuHpXDD6mNdYqwGhW+90NDkXlSp6mc60njp/BwA9rPC7ddY0VYa1N+pmTFU5WdN08NQczZN/WKW+hMFSpTzRFPchkt56pdy1C2b3X78gpv8pV3wkWb98Pq0twoTP5D0pBwGg2cmBnY8soICiGiydoUyFkuYw/iudbDSlCcK9xZSB9NrPmHXh6bAr1mSkSlwwMrlxAOEnAduEna06CDhe9pn2aK9coD3tIKBDK6LUdohVFRc886VKnXOvxke7N+8eEsr2+m8Q//fH7+H/sYnD1E+naRiJkUfvm/Ci73zUa/W6MrFC17oOwnpHYx3X+jLqlNvm0jTk1MuzabRWYEKGabzAMVINWpSlaWGzAFe4/c7O6TTeMBI1r9hMI07T+ydi7WWn5r/WXpy5mfZCj8lcejg5DDMA9f2BTFM17ID8KUwcMjZ6ickNkZJtYFvRb3Xh6Kww2dlwh6VnR/+vQotbZnhY7ssPkALpApwuaVpVraoD4BjUCFYgIIVILHC60+wAsxgwQOkslMCLBHaAYfE+xCyxw+/gC3YPnbugXKdzEsecrBST2KYlY9kyrgpLgMOYgXchxK2l230Ltz1fJs2XKNsobzkmcnLy65+TDoTm9mLQz3h+rTbntLzLGHUvflW10/sJRGY+gVFqcprcynVyMCvPHbyPyzZvszC4iAcPvBpEvz+u9w+na/1xKpt4QawgKKZ1Hsjasg4KM2gzYq28Uy8vd5eeMsq2yeOFOgzf/4B+oG3TctDt+LJowXKuXdHtWyuXaedjTfHwhYHA3czfE0yrHBX8mZoeTnryCc0prHbvwbw+2FbcRoXlxgHOm8Tq/Hm4qNjMzx2WFMBsFiwCtUROj7xcXpo6sfpVPl7qewe9+IN7DIYQAr8vpww/LIYYCITKC22mkxfqWmDqX1qEKbUzMn/XVER0ZxslNP7nq3R8csto2QEfg5aFyiNSvAlGb5kOkvZmcPk5EpMAg0HKyZWbOis5YCGKGSM4oXCU80pnblVtiGF6/EBsJRzLIMtVexNK8qVlapO/otSDMCgDKx8STYkYD7OR2gceq2I3ZFMWjisO31oMT1XasH8y5yCFp5oQvo7M+g6rLKblAxz7w3DukJWtM2bk5EB/ufDO2WvulkmK194kT9op6s9erGiYyLDAO9+sN9Rsc5agxpfeXN+ZvhmwuDWeCvh5949T//Xn7qPTs3zk3cIh6czdN9Czgvd2Wg06nT+9Ote6E6Ddk8Jmuce7KmZND3ESjcnPQ3iTGepHZLhNmH1gxruLkAxKU1qlYBfw6u/mlL5jR9zfzHhbC73CD3KFu6DUz9G87knuZPFpy7anPwS+JJUHqD5A2HX+DDJCn1ds6cKV+HzYZB7CMwLKjpejY2ykIGJnT796Od2ZRIVsgBXIKsIaO0qX3bmEGWmlryQh9CSiwOFhyHlrDtQbnKC8ErYo0VALFlWsElYsLCY+R6AvINA+EMbEmApzFKdaD1vrHrUs1xBZhXpHMB5eoakZ7EC5nOqvg7femTE45XCaGh6hX8OEmNF+zF4B891x8p2cM7IAvl6QbsqNls9+spmm7ajph4zwrfC4JRuEF1WtLXfv+KFYozDW0rZFrjTxrDx3/+BozJkHIWpnEMfug+r3tz5wOc/Lz3zjBe6k2F6iKMFhz66kKEHy8bKNXS794BaNDT82f2I+qEs4Dep/PSaCnG2ovVdP53JA+jTSuGd9N7Fv0pvn/k5KqfvYRriNJ3h05APUJQadk0amdDENKgB3aEHAJfmri4wyBUdM/vkF8mYKMraROJHkG326R0v1+nwqk5qMakUtuwg/IcPvKvNsVWbko3fmWb3+oMt7IJIYDi5wA+5Opw00nrieCjHfIYt2bzZbu8mACtNJkxZ+WJo9nNHdgYTgSRGDUKLZg4uJ/75kO+WOTWGlhGpCmwwAzkAlRCF0LkPsZoA1kme5f5KzgFJcF0tPqExrja69M2tjjxcqWK2dX/kA4pFCsdDEe+ljPGpT/33YmW7H7xllO0jy3n6zJ97gH7o7cFh4zBwv73nRGiB+jsY169eod3tLS905wPrLB/LO/S2SQwtJ71hO3SFtqowPYQJmzgFaIZi/pRmgDBUiU/RFIgzVI0zvCp5pfgUfWTlf6Cn5v9rmkyf8KgGRl5YbhRMPgAULRafAK3NnTssXHSqwbMxfshV106Pf1SPmeYFmF9gca1DH/2mvdE34ky8f4Y+v/pMDiaUXzhBqfyIOQ74xikCsNCSbOH202zlBjp3yOSwpzn6bMHCmpX9aFMHt2TDQHrIGWgmzq+e6rLibHkTgUwd9TCZiz14UJEclR0hloFdgbB4hcBTzFBosGqxr4SyGw78gjIQwhQv7QAaDtMBk24K758lmlN7bHD1VODfYIv2a5sduubtMADFLHUm52YQNSxsU8LxOM2wJWwDG8XX/vNV6nurccUYD+tS3L34mafn6T/+6fvoYVa4+8GDi3m6d/7uGEp+7YXnqNO+u6bk413ucs6hhydcOlF0KMdh0yegswiriGAHovHg137EV9Nw7TSq2nwZCPs52HzGXcg/Qe9e+Fv0xOzP01TmXqGqDD8doHmOAHeUDtQkJ0EfCGtK3hHaIobgRYpo48cQqA4362+63aeHzjTp5KXWeHGR0HInjLLFfqsooBzodBHPfszWwQISUfj/t3cegFEcZ/t/pJNOvaIGohcJMGCKDe7diR07brH9OYmTOHHi1M/Jl/yTL+1L7z1O4tixHdfYjnuPe+8GgwEDAoEoAoQa6uWkk/7zzOywe6c76aqQTvOD0+7Ozpbb251n3ynvKwRXhtEbgtiOb8KsKs5Ok1GrohVZH8Q5Dsoxu2KfScnoQi8O5GihEOvk1xB/LOQcs8qvNShrCKhlsoMSV1rGNnuiu5lJpPFO5BnLba2/vjBNfyc7Z+C8KjU/NVlYzeIes7Jwqjtl855q6h3A2hYvWjkqSmWRSEvYmo8HXW8eQPfqRmvJMBIJLbZuUQj/6eKZ+NUF01EgrKFQKchKwTGzDl8c2FjS2dGOTevetZYSCwanX5CTghMnuTFVe/e3CjIWMyxodOHHv7roUfP6o/8StYX+2AWVXlb7tv+qLdU+VCpjj6an5KA8axWWT/oSFhd+DoVp8+V6nUdh793GmSb2KQrzdGF9aSuV1ck9ug3Xyso96rNXiHMSi/Sdz1SpASLBDqs3iBn7+3Dihm6frZyodH2uznPWxxJCWzZXBoSX6w8JIuc5kWcsx8Ue6iLrhwwowM8hrHm262ali/U0LZ3ro0e2e8rzsb6hOM+NBe1yXiGOR1OOpSKzqK+qrFwxz5cd2f7N01K7kLCdln0qB2VNhLobFHrqj2PjgNjbpYvrQNemrNFxXg4ptGI3dd2DWN3SJyzawNfZB5E/YE23BU8/2Bn7b9df14WedU0Y7FLt3YaRSVixnV2Ujqf+eyE+sapY3qjhQJGmk4tEoK2lBTuqNltLiQZ/V1HwC9FdIqzcVYVulKS5RIrv763lVKXa8zqXXmIRqNZyTm2l9sVlopfVPPFdslNdyW7kpU3HrJzTsajwclTkfwR5juplvd3wJMmqyVQqpzyNJOkdqsfLwUHB9iDOUaySAsElce/LbyKFQBWac/f2SY9RxH8velldAzWnU+28g0Js58ieyD5oNaAK0MqlCyx6fPLt4SUZoJjqdH2I1BQMso2W7bMxFloyKI6nHF2ow7076SByey1LVyAMfsEgklk9LJLkKVinyOutdFrlJYzSw1B6avCC/hLE2ujQ1Ebl8s9n71Nhb5ctyqJJVv8SXlbNgPguLX0DeKelHw2BL/FQxGH8x846aw741YLtxn+7lLJMZB5fiqR0y7w3jIjfJUwMLlk+CU//9wIsKQ+t2jgQHBqUCN6kBrxebN+8CZ3tieuzlAUGy6PJ4sFnYIN52anIk64fWZBQapwFnCpQlKTqokXlUTCn+qfzBUbtW+9Z57bTFSlCdIvTj8DC/I/J4UIzsj+A7NQZIofaanjY91n52aWjBHku4j/993YJwWUkH1qsGn0mzHPowbZK6AGhvlw/va4PKzcFd6lnn7kTlarXpRfPUFYtE4KKorgiPDd6fur3s36EaiX1ss5T71FMWXWcJYQ2DiKrkb2Y5TF5bmIqzqsxS3Up5iKdifD7aGGRZycVSFw5sSDPjFkoujJZeRATemghtxAcSpBwyZmi7yn1ewWHvZDppjHTJX5ncUx9aRjpqabTi7cO9kt/4qHgvK4+53LoNwjMcL9H+lHFSJ2TGJ1JR4OEEltapH+8eCauuXRWWNXGgSgVQpso3qTeeeWlhGu3HYooulg4uVWQevZYnuRmRB8WFixQbNnUxQcLO86rv07B9S0QpWVoLXOq59Se9FShRFfN2XsRS2KxNHMZVhR/AYsLP4HJmcciwyUsA+dATQvnefD4fEjp21h1mBJpouDlHP349opP/wDFQ2iYTBUfsQOVU81raP1Mre/H0u12W6rK58R5dIV/SmaREFvp/1hs7SysxbwsvHUBzQkPyig7bL+l+0WqRk8fknpoWXNbkUnkTxIWLS3beIrtoDi2GnbE8xzA+0Xdh86fyYwBLC8xv4I1tWfEX/4QIp+uNUgTv0myjHWr1vuj7iu11jeHTmcq5wNvnyPKs7IMcX+ILDw/fakptG+2eGV82mBYt8ohfERVzKozGJnhxNhVmI6MlSWsR7dSDMORMGI7Nd+Nh74wH59YWSxFN1oSyZtUF9tt33tXFjAThcnpKTipOB3LCtwyhJ8qMnhfOC1dpuopUaLKf86CUmNvR+yp3jenel6t1XmYqvbN6eTMFTi29P9hxaSrMCl9mSirsg5tQdQ+NGJJrGJhy8KdjvBloW9l8gqhpYXL6uVD+5Dz4uFmRx4BxZkWcFmTsGo391jnobG2OYRaF+x83HnFcqiPvV5MHQXyoXRLHeQqVidTcPlp7ZTCO8g05mX2TDcG2VM4zlDIVZst55OxI6NVii//qRoCdW3VnJrqGbVa/JGb06MYX37UvqycDtT1cF5n3xx2uo3OoaashygS1j4j/fAa8tPhHcR7Lf14r42xioZHnm8QuG6k7YfZ/BBJopzNWD4JrgTpTBpvEkJsz1lUgGeuXohVM7PlMx4rEsWbVGtLC9568YWRn7AEpDw9GcdNSpMOMRhZSBUj/PgWhc5Lo24hZ0WvFl+1nZrnFtyHmhKV14brVJottDov/5ZkLsVJk7+L40u/g+L0JTI9GGpfg1JwWaWsj6WOroYGdXiF6FJgxXqmH6oOFVMuFwpr6PiNwpoTcHu1D3U+zhRin7uTJKTll6lgA4cQ28uHzpFbiqzeL3NY6/qESDBIO61dnZ1h4zLiW32soWWrDpyEnent6JMepfhNeb7WeXKqJnKqfmuN+iZucX0ptPYpM7czH/FdZg7iuz+i1/As1JQUpyWjLNOl2okFB3sH8JZ4WaJnqB4rLZbX7NB7g0af1jDw6CmTs+CenZtgdaTxYVxfIvZ1+PG503Dj5XNQkhP79tVE8SbFdlt2kjrY1GClTBzYDsfgBrOyVNWyHpvLYtMu+NSSPdVokQyG7z6IXvYtOlXB5Ls3sSQSuVyUcQSOL/shTpn8a1HAHi3XqY+NXBJ/6OyCsXJTXAOqh6hI41TuV6gqq5W7heiqslOcjXXArO5BHL2t145qY31s7BR1ZP5VcxpatCkZecKioUipdfIbcZ+HsnLecRUtQTjkNN8BrdlB9j6OoWgMi+5FJA6X3+vC2pIOn28oV9tZJLJjGResibRok8V94n/O/t9N78jnCM50G2cOfeWmiOuSK+7bPrHfHZ1evHKwD3WeQcjAEhb6eupTjAZZW+KA9+ZIyKOLfFmnTkZS5vjv3xJvxq3Ysk310S8uwJdPKotJtXEg2nu8MrB3IrDmtVdRv3+ftTRWGVoQBSbUfDYcp1iekYKlBW7MzU6Rw4YofsR3b3pJSaMq/Phx5uK8vi9UHqbYOZx5nTCn3pfKo7ZVhXdB2jwcVfw1nDzl1yjPOl6uD0YarauUARlFdUDMS1EVhS97zTKIOdtzuV9daKb3AqetYSB8os/dxpmi8tjnqElJz0VqziSVzA2GE0mu0+ulKPjui2lJbgYPGKVCmsfjlIo6OIA1JW3IUB2yJTrYvryOGsc8v0qaeMmhG03lttFeaX1LB2pfCpWP1fzqxxiaW++Ja/ibTc9IRb54I2wU1uw7QmTpFap9mBE2ctfWvD9DjxY+w1rQ4rlKrchDsnimDMMzLsX2tMo8PPPfC+VY2OHug0jxiNfHu1c34sQ/bMRbOxMjbBR7I29Y/Q68DMo9pglWbGhGWj88aaJwqMhJxWnFaUJ0WdDr/XHKm0l/iBZc/tU51Tq1rLfhX/VP70cXt3rKOZXfmUOvU/BedidnotA9V/pdPmnybzAt+1RrrQORj5FdWPCzWpkdp/gga2HVHagO7V8IzZIdXcjt0nWF6jyIPgM7xZmm50RasguujCy43OzhL3JTQKWA2Xl8Hkau98GxjvN0WJEmCmhrKE7cEefmZQctnmNSMmrTOtHLQEQ8F3HhrK+jSkR9Sswq0vjawg5qMnSe+PifsfymMlGvkSkCtcyOV9Kyl+l6XWDYVlsh7sv67kG81tSPmq7BQ9XGoeAvjEOqh8OEX1n+zsPsJ0lY4GkL8q0lQzDYFfJHanbsw+fyu2eV45fnT0dhVnzepOrb+/CVf9fgTy/slzEhE4lUtxunnXMeUlLGapUPCwrfwmIooeQZGfZSpr9Z+ltmIcu411oM1f5tIeFUzdsFrTPN3ooFqpoyXaf5zus5labyE72t+IhzS01OR2ZKIfKF8JZlHiXONxWdffuF5er7ssRnQpR1SrPEDuSeWUJK5RUf8Z+dgL7+SDOK2u1tudaXoSk+iF0yOHwK/SAHzMs0fgN+CE+GB+e8mDo3EelJ6WnizWIUq5DFj5xMf839/ege7MNrJc3YMEm5q6SOqJoAx3k6pry2aS620dq/oJ0hGFzPL5+E7oEkIdSqCcC5WaA9pCW5sK8HqOocENtZiRbDWpgWzCGF0cqqX8CcyGaHkXclOfQTkiDbJLtd0slF74ZmR2aDP+NGbBl79p+fnIuPH12M1DhUG7N26ektLbj4H1uxfm+XlZpY8Dk45pTTUVhcohImOCxIWL2cK0rC/DQVrL1HlMe6ryeLVnWn6ftNpygrxS56VZouaXSqyq9SOadlWe/Dnpd2qZxXeRVMSXVlIiu1RPpbLspYLEQ4C939zcJaUh2dNNI3r9gNHw3uLVmUpuwrxf0t2NOL899uR7ry2nAIfRyN/zJR5yf2m56DnKkLweADcq9DCn595jpdTGUe32PKZXHN5VCfKIMLhMtgt/JolSqKvd8vqkar23voazAIvD51ac3pryFgGy3Fkr+f3yrJoWWx0imIvJ88QsRZtc99yBeigNgr6ECzqY9NAb6ZuV9nG62asab+BD2OIlSh9WGEbQa6+tG7ugGDoXiymqDwuRzz0JvT8187AmfOzxv6jMeAxs5+fOvBXfjYP7ehOYHdj+3btQubx5Drxnj8lpGQKUzDaRnsQJWKWdkpsmMK/VDJ0tNCiauac8IlSiTXUZiUOKmc6q9Kd07VVlp6+de/gFKiy3V6i8yUIpRmHImKvAuxvPhqzBXT7JRya61GhXhz0woT5osqlJNw8vvdcNOHhFzyPQuiU/SyQqVqeUnLL5VL8kP/wgwmkJ2BwYx01clJdpoSDPlRreVD6WLKyD+jMNTHifQexXMXgrU1uw2ZHvH9rFOSUZU4L1bzWzs7C9EKpJcowiz6WwTjUCcwMeF++eErhR2eLxD2Oh6avZ2HxToRKewjZCUhWcQiD79rpLinZyEp3bTbDseYtmz5Jvi10ydL/8aT4lBtzOfileo2XHbTVrwsponOwIAXWTm5WHnSqXCn0SmBwUm6MAvp7rHAzUIS6OAwFZGuJU/JDz9MUVPinFfr7SWiUvRfTtW8WlLL9tZqXqVyXh9DLacmZyA7tRR57lnCGp8n5qfCO9CDXm+zzEd4X7MVt18UoEVtXpy9phMz6NMvCHrfGntOkZScgvSCyUgrmKJEUoqsW7pVTGa7Ky1U8bDKslocW3lpCoLYOYf6qEDuoweH/SRJX82D2JHRhodnN8IjHVJAOgXheGUJ1U4k66pWBhmQ4Q79BND/GkmYyI/ISpHt9SYLEWONg9rH8Nh7pPDJoBMWTqvWH31Ix+YRM5zFO5JgD/YOoHd9M7wNwb2TTXQc73BjC1Yb3/HpefjuB6ciPQ5jXbs8A/jpf2rxkRuqUNsSvCBKJPjAvvHCs2g8YOJPDkeBOwlHF6bilJI0TBFv66pAU4WNZR9Zf3UZ518Q6nX2Wnsr9Y/4F186v52uRF2la+FV8+muPGHpLsLc3LOxdNLnsaz4yyjJWM6NZA4tfPP2ezC1yff+VntQH6LOTMFj6Xki84iCNiVLOXih72KkCpEVaboAliHwhPgyuDtD4jH/oZ1rZF7xociOslVL5Ol4+fI0iINpfWh3q/ZrRvCRDi2s82VHJs5yjDL1kcsUSmu1QM05r5ET5ufwKx2Gj9aM7Fh1COee7HnnHvkLsJe5nOeE9dFB4GGsQwWEq0bU+RAIKvbWPZCcK16+jJ/kYRmTli39Et/56QqsjLGTCsJ7ZsO+Llx+yzY8suFg0IcmUfH09mLqzNmoXHwkXCmm2ic4FLQklIoCpChNjXfs6LcLXTWVRdmhe8guPFUal50FqprXH8XQ9fbelNSqPel0laLTxAOcJKzOlALkpc5AYVoFSjOPFkKYjObeXUgWhtzyHT04bYMzbq3eh9rePrqN85xIksuF3FnL5fhaxqINFshdRurhOvEZ7KcHZz/EeYmTVQHkR5lBWrV9PKck3DlzN3bk9hwSqR5Hey1hgAG9nCKsUlqmvujMjo0kwiIV4q1CIYojidWpwkTmPsKF0YXkFeQh/A8TLgG2d3aiChUp2kG24TrPrg54tiRO7OxYM/qvmMPAauPPn1iKB66qxLwSv4giMaCnbwB/fnE/PviXTVJwJyL0kXzvP29A20G72tHgjy5RWG3LquVk6YHqyDz6W+bgDD42zMPSx1e2tNVqo9ZrAVMyp2SU/1R+VYrpOX+0uOp9EKdc8h8FNsc9GWWZR2JR4Sfx4enXYkX+JVixxyWsNKunrYU+JlP08ey1er2dlppThIF+yzrWLo2CIC0dxqplO66fNUStle29o404D4oBq7eb0nrQJ5TGawkgxyRLhKHL78sPxy3L9kuxwCt36CIdQifYK2gd93pVVCaJmNCi1cP0nb+dL0PTmTJU4ENAbCIFMQQctdQBvp91VuGcgngxVWETrWXDEMaMZZslCrS//ddsfOmkMqRxLEOM2Vbfg0/cug13r27y8cIyEelob8ORK1dh5tyKQ9VA4aEvYCTbjj94jRiwvsDtArsOsAqVNXu9juo9VZhyWReratn51/d62cUv55wCrFFzdi7f/WuUSDtJSc4Q55uFguxKtJ7wcbSXliO3+YAs+JO8/eJjDwHS+B9XH4240jKRPcW6V5hIIR3mvpFrKPB94liHBFccQaxIyok8Elc0yMAH4kXB09+LOyoPyKpkwvjAss7dKnJ4upylGMn2VvFxUUSCIK+b2Ib+qb1CbAflG4WC3qYCW7XB9yfhdRKTXtmOPEJeJ2Fm18hNAmw35Ccebt/ia/bv70LPGhNMPhhjQmwXT8nEfZ+rxAlzcoZ7hiOCDirufbdJCu2u5onRNjsSdN+Ylp6G48/4YIRjbvkjxfiHCopdWI8FGDt3cnqy9EDFTlQc6WC/vLHo5YKa6iV+WATLgvnQVG2k8gydV0v+y3rO/quOopbUFna+5CSXKPyT0DKjAltPuxCNsxcIA8SLvrR0pPT1IaXX9pOsj6L24lwG0oumwZ1bIlaJdVQjBhFguyurjQMhVVV8aFH225ZwUrpbtdnG+iEfAflduii2g9id3Yu7ZtWiX5R87BjFYTn86C8sT81xenRmYZ+unrEzsLqXw3uUhWz96mK19J8stlU6zT/2NgrHsji285Kw7oSn4xX7lOfmh7a6Y0Ys9iX20bu5Bb0bD8rrbBjKYRfbK48rwfUfm43JebFvx9nb4sGX767BNS/WJZyDimjp6erCUSedgqLSMitlrKJLgliWLtHDSELTMlOQn5qMLmEodouPUxjVXyVc+q9OUyW7WqvnCKundU47t/53SA/kvEat4TrO+efwXe4onoLdy09B/fxl6JlUhs6CYrjEi1d663BNCknIKJkOd06xmBdHoSrQMqbosrrYqRIOmJrkEfnotck6vuqFzCJnlKEzC2Fl04J9vvAA3i3qQH/KAPrE9ZYiydPze29gmybfJ9zyi6g0fyjWbJ/t58bqh1SXQwhtBg/mt09/huyW24t/vI+4n/5+IbZixj+frqk+HAStCRP3g/dAN7rfqFfXwjCEwy62Vx1fimXTYhs3li9WD69vxsdv3oaN+ydm2+xIdHV2CKEtxYrjT7RSxjKHsXQZAs9FfyCDHEzPdMm2XDrE6BQftVatt8rgIVNdqCpUblnIqoRDa4hOYy41r/bAj70PtV6lE7XGmaLnPNl5aJgzH/WVS9EurN36hQuFtTSInP17rPyOLZJTZKQfd26RlSDWidJeVkWzapaiy2YfmS7m9ZQPIQXOsmzZY1mKc5DOVfGEY2yTunrhSfZiTX4LXp7SJnWQw31omR76to72Vn70kB0ffeFFFStpdbIKmpYnk6Su8jKIpTQxdUmLWG/o3AFxLot5LvpnEVBopXMLHsCxPqjgBYB55e799hELfM5DzNOq7d0oXtyMYROQwy62HD9LX8fDtYuEAx1UfOP+nfjlU3vR3acedMNQWJXc2dGOY087A9m5dBYS4ydxAsFrl8ExuunJKBSWLnsu09rVQsjiziry5LJGF/M6lcuqTNT57Tx2Lid2Tn7s8lT/1WuILeSE6wbc6WgrnozmqZU4sGA5tp96PvrT0lGwYxOQkSmEsk9sNoDsqUfIiD9qQ+7FKkzFJImWa4/IR/HlEbjMauaeXgzSoqTwEopWVrq1/egyKF4KkhjeT5zL3bP2Y09Ot9TVXmmRihl9SpzyI0SY7bVs4/bvPsIShdXGHNozyPFBRG8v4ECxdJf2TOVYMSwqn/q9bLjMYUR+ySHBqmb97iAZYR8jHWLEUxAvNH37uoRle8BKMPhz2MW2TZgD5y4uRF5GdG+8fKa1g4o3axIjeEC8aWs5iIJJk7Bk5TFIDtb+ZggJCi57LrN6mQG/6YWKxl2X9ZbPglPbmvqfTrdxLnFOLVtyZS3pHL5rdLq9hT6eSlPpRJ8Dp2r9oDjvvswc9OQWYP+io7HxI59DT0GRuCe88GYXINuVDneaQ2z1h/sREz57SfyeHjW8ZrBXWLQUXCm06rhyuNAIHaviRnevFIOO1H7cPnsn2tPF92L1L6uQeYq89fkdmFd9LX4zGeSBonsoUczSmpUep7RIWxNC4z1NCK3TbnDMinm9xKlznsew0Wt4+VhF7bvWgT61APgIrYW0cvXO/NYPEWc/nJYx54f8jCKh65X98GxrVW8khiHwkgX9LUeL+z5XgVMr1KD5WMLCjmHyBuRD7wtFvvZg4A5TtS29QTtTrd3TiRe3tsqOV4lA5eIl+P0d92DqjFlWiiEW0Ipq9gyivndAfLw46BH3obWOj51TevWd5JxTqBzMqQpqNcepXlZ5dT6NPUfU3vQR7WXn9vYatVZTunU9pnf0oKilCTN270Zuh36RtbbXE1HY2o4P9D7s5cE0F5KyM9XwkNGElnansLI9/Xi7oAF/PGIHanJ70S1Ek1XIGp4pl+QYW/E9ksS7QZYQTv0d+i1rlkN8KDYq1fod5YZARhIjA4lfWe6Wf3xyyXnCOZllCDrVyiHOo9WbKsuxQMjz0IcJvMOI0bsNRKB1g+Ieb7tvB9rvq7FSDP4Md01Hjf85fTK+98GpQ9+WxiD0PHXVndvxn/cTY/B2qjsN3/rV73DJZ66yUgyxplEURPt7BtAgph2scRWPnCp8lWTqR1A/iPoxsHM413BL3+2cW9gpOo3YR9M51FpnHr03lVPPaXI72pHb2YZJTY1YtHkzyuvrZJui65AFqxHzScIak2k8U8tspDOMnAyxzveYcUeI7WBLpzifAbyXWY8vnLpVzLNTG6+FOBd96n6nxWE76UI42Sarep1bY5WZ3y8vFznEJz1JiLPfuqGo3yBwNp2qTorerbqlyPMa+uJ8uTkkujGElq6swfZ5iQrOoDA+Gn/+LnrXNlkpBn8OezUy6RF384eXFCAjDm4ZYw0jDjV3evHsllYrZXzDttuB/n6c+MGzkZYuCkNDzGGgA3qiYnQhFqT9ovBSFSO6hGQBzL9c5l81Jc6/CqdkKlR+NaenOg9TbHEmas5eVvjvT62nh2U153Gnoz07Fw2FRdhUsQBb5laqDkHJqpNQuqdXLDiOYs0fmrIX8miG1CPiOg+yaltYtfxGD8ysw/sFHZaFKr4ZT0V/rIslJ2I7WRQJFfNY1cZ0w3goL9HLYgMOD2JsYf1dibqC/ssK3zX+OPKJWR5fepISx5HbBaoZCJA0ItzfMLUMoYi38/sOtnrQ+dxeDDSL+8AQkDEhtq3dXpy7qABluaPvxi0S2DZzz7tN6A9WvzPOOCislSnTZmD+kiPFUiRPriEU5BjdjBQUMv6nuHV6heLSaFDhDuwrb0+dIizLRwu1zL/2nP9aTnUOvf+hRb5a1vPqn7K8+E+tU2ehrLFBiqt4ADozMrF9+gxsmz0XbTm5aCoqhNflQn6r/RKqthdTFsriJXXU22x5LPaYpptNMX9/2S7U5PfJ4TqHXCES1u9zni8PYsJ3In5jiixl+lA+C67jrmVeIbIU2kBRfZyb6avpS6A0G94bXnFSskfy8FkDo08pwLYySX4RzkSPZ0e7HPYz0C5ebgwBGRNiS9GaMSkNx8zKsVLGNgyM8EZNB/YEafMdb9Bfcv2+vTjhA2chK5uORWL0BE5oApV0ap49l6dkuKS1S4tJdqISU6fEEb0HwlS1lv9UTnvfamof0Zlu59W5OOfchxJXov4SvU7tVW9L1FF4j/DTn5KKxqJi7Jk8DXWlZdhQOR+9aekoOdiIPrcbyYy2w/x0ZjHMuNx4QP/MtGrZWWt3egeem3YQtRkeJaDiw6rSQ19MJclvx6vBjzxz5iHya1vXQfzh13CLRHeykEOfCjluS92WOQV6qnbhvJLDw+vL9wRLbFVSZATajmmR7s8f8cX693ai47HdVoIhEGNCbAldNJ61MF88jz537piE57qjqSehej23NDUhJz8fi1ccbQIUxARdkgUv0dLE01eWocbpsiBu7aPsyVJdoItlTp3PxOCh8l+vVzCf2kbLqEKlKFQOVeirZTu33kLl1Uv+2Ol6W86JfYqZbmHtdmbnYk/5dLx+1DFozcsFgxPQCmY1cwqf7dEUW/FVkro86py9XvzxyF3CWhUvCF5lwvpoGC+xuLD67OSUf8RHnrLjQ5Gmd6i0FPH9A3wfn5RDF9v+TdR06Hb+adKy5fnqEx0BnpdPVs6PsKk0yAPkCeuFW2Rl56i+mnYrwRCIMSO2nR4vzltciMI4xK2NNbwP6Y/9vrVNVtE0/mGs2+bGBqw65TQUCEslPuirFcaDPK4Z6XtyfZIcy1manoJ52SqcX6NHia4unpU82qit1JzOp0Wa81xnL9l7cuYjaplT+5exUduotVyvl7XNxhSi/3Kq9jIoBJZLjYVF2DJ7DuqLSnCgpAQtOXnIEKKbKT6BPCPFGo6tlTFsBS+UNuC14hZ0iePShSVJFqcrxUl/iGOZHYv1ew6/GfMniz+pLlq0HBak1gXGsdInn1rg/jinP4FgOntBK0t8ZELUZB/kHcAvok9oGIaIucVgjxet/6zCIN2oGYIyZsS2o3cAy6dl44gph8dRebiwM9fTm1vR1NlvpYx/OtrakZOXhxXHnyCeP6uUiSn6SY2gVEho1PWgNVEszN0FuSlyzG6LEAsZa1WttaSMIuV7HVWKnW4Lr/6rpdLeg0bN29sS33neB1pYidq73k6h01S6SlXHZNCG7sws2bHqQGExqqbPxo4p08RqYaGLdfyk0XlGHBjs7pFVyOTZ4v1YXdopnURI0RBfS10NC70gTl5/q0Mz0smFKCyF0GaID6P5cDkwfiuC5LOrmQnnh2bkFZSWrd+6YKIXDLl3/QP5Y30Rmcdaz/0HyhvsmJ3P1MrA8QwgbwjOmBFbEmtvUvGE1d1b6rrx3t7EcQfp9fZj/57dOO70DyB/UpEs/EMj2JMciLH/24ZGON85XJJQ6E5GRY4b2eI+owtI9mBmui2k6thqqs9FTTmn1zvniM5vr1VLtpQr/Pei1qglO1VtE3gdp871g/CmpKDHnYrW7FxUT52BHeXT0JqVg+bcPFGQJyOvK3bNMoNCZNkTmc422pM8eKWsCRvyu6V46bM6hLpsQpCs72At645TbJNNFWZumhBaWTQFVC65Qnyc39lGLdl/h5yDD1Y+MaETDWckISK3VVlCZsRH2bE+HCEnLbdvQ/8e35jJhqGMKbGNlTep0YAvBJ7+QemDOZHobG/HgX210mcyO0uFTphPqA+BCq+xTOACNbaofeelJmOWeAktcNN1H9AnrCw17lEJry2TzrNRc0zXV1bJq0rX+bSg6u+j5piq8zn3rOftOaew2nPqr14mao/6fDXi+Ul1o6GgELVFZdhXVIL1c+ajXwhyTkc7esU6t7B4nfsJhyS281ieo1LF51dLtuMglZInz4+Y9dFMTpkmJlJsxIc9jDkESIbKE/OR2ADqSqgN7StI/HfmXLbyiw0Y7ED2nHbiv2mEhNUuG4Sul/ej+/UDGOxKnBq+eDGmxLal24vpBWlSyFLFG31vv+rJmMJhA2OQFHGej244KKvAEwUW5Lu2V2NWxXwsOHKpSAnl2kfz++giaGz+xoHhuY7u+TKk37RM1YOZI848/CMKS6/4vewzUXP6r72kpE7NaTinrr1vus6t8jOHUzDUkl7Wx9br7Dm9ncqrloj+67TQGdy+Kz0dHekZ2FU6BasXLEF7VjbaM7PQlZGB7K4upIwQtN4J72FatkndarTAewWteHlSE1rc6kxkzbh9ynLeJXZPkeWHxY17cABuF6uMVZi8QLoUIEkQOFXDtcPnsOG1oVML5y88EgGNbgeyHVqsp9AO56wiVCFu/sv76K81Vm0o8IoGv+JjCN7wc4rTZVspP8fOykGamBZlp6CyRDljmFrgRq4ojNhOlCOnMjluJJo3KSe0bH9xw60onVJupRhs9CMT5xssIKo07fGKlyJhTezv8crxup3io87GfqRVTnvqXMd529JUfwPha436wjVqnb1Pje++1Rk40ziv8U/TAs2lwvY2ZPV0o7jtIJZu3YT03l6kefuE1Tu8JTXY3kVvOXL+ydJa/GxJLVqFokrnFOp0pPCw7dY6nIzwI4PFSyvWPj9iZXHgTHGesW+6nldzznWE29nf2s6rUmnVdnjZU53rhuK/N8LTDrcaeDjYfktPUv4MirKv8/m9aL2pCoOOmMWG4AT6vRKKgswUTBMiTI6ano3inFTZ+3Ph5EzkpLmQ6U7GtEJhTYsrQRHnGNpwuPG1evzvQ7uspcQhJTUVn/7aN/DF7/wAycljv1p/9OFjE8NSLUJo2e7t9uJAzwDaRaHH4UNEF+FEF9722eoiXj3+WioU/vNqXzrVN6/GXqty29j5neeg5/V5qC31X71OzxGXsDQpIpObGjF7727kdnWgrKUJRa1DX3QZUm+wrRtJff3oG+zDPdNq8bsj9uFQpbQ4JPcll4SgyW7GgmwhxslCge0zUuetptFif+dQ99crhFZZtoEJJoSjgWdjMxr/uMF4jAqDWN1JCYXTiuZQpBVCpFllHMiKXr+3S0YaSpTABE7yJ03Cd377Z5xx3gVwpaRaqYaxCn0vN/YO4KCwOpo8dAupLQ4+5gr/At/3rlVriF6rctr57RxO9F5UPnUELZT2ks5BnHt2pnJeb0nsPesURaawdnO7O5HT1YkFu7ajvKFOpueIdEYfGuwUIiAtrkF88eh1eG1S16Ge3dRWaqzTCnSLl5a0FJHfz6IdCjewz8qeJ3rZTg88Z1+Poah8tMAptPTJzI5a0gKPF/qUQ6RvZzta76xGzzsNVoohFOw7wGAIwJErV8nq5HITFWgUCLPUG4J6lGndtvYNoFl8DnQPoNMa/jJU9NRfdVRdDPjm0XNqvc6vBFSvtbe2RZLYa3Ve/7X++9NLehui96xz86/OIz70UJWcjHRPD2bt3YOSloMoaqjHzK1bxcpk7EnvxP8dsRmrJ9ne3oZUtYr5jCSv7ARlN87qI3AaLs7t9Hx4+2Kv6U5h2erIRElsoxcv/KHuIZTqZN1uG0pejbeuC83/2CwDxcPECw+LMdVByjD2aG9pkb2Slxx9DFyu0axOZrESYgmQEOhiNJrvzG0ZvDxJ9mLOF5/SdE5dskNVDwtssd4+gp5zpqsRoGpepel5LYpc1mdLVJoWWucWyhzT+Z1b6u1Vmr1F4Hz6CGrOPgvxoWCIaZ8rBY0Fk1BTVo79xSVYt2gJOrOycXCgES9N7cfB5C7VIcjaTCFmvNQwYdUKc9fZJ0gdyx+fjS2G5goFtZVzW8e8UD56jZKB4w8hvnG4nVACZecl8E+3lmWnqMBfXFjXg/A29KDlDmHRvi0sWnkvGcLBiG2UTM134x8fn4PphWl4IwHdlfX19WHze2sxp3IBZlZUqAcy7ugHOVbHisX+Yn1O/nC/sd03mz4yXMnITU3C1MwU6Y9ZBkAQBSXFSvn70dLlLDzVPP/yjNRUnZueqjn1z86p1+nt1ZQwn85F1HZqquedx9HzalmdoxPffMRaFpPu9Ax0ZWRiz5SpqK1ciZTMKch3T0d2agl6vK3oH+gVBR/bQoVlJvTMLT6uJKdHKOfR7LmRGHmb0NI5BoPxdtVYDItgmwZD5NfPKi1Xn10Nsy9WsftbuYPipul9rwltd25HzxohtNyfIWx4Wc2li4BCUXj97LxpuHDpJLiFJbH7YC8uvmErtou3v0RkzoKF+Mm1N+KIZSuslERDPwbBSqKR1o8H1Hfolj2ZvWjo8YpCfRAdsmOvWqfFTUGB1ELnrN5Vc851Nr7Xx1dw9V+V5r9nO8U3R6DjMEUvqy2IyuuP3kdPfxu8g/1o8ezCzo7X0dnXgM7+BngH6mQP5JFxnoPvvDrH6KHx7Rl0oYv+m0PgUI9qzgsVDTScJ5xqYicUXq/Hi66X69ByaxUGE8hb3uHAWLZhQmH97llTcePlc7BsWtYhb1e56Sly/pkEiXPrT0tTowxQcOIHzrZSEpHhSiSui0VxejhR34Ed7ovSkuW43QyXC5nink4RBbXQXx/RYLFtf2NKli1mOl1N7SW9vV3kK5m003RevUah5/Ux9BpO1Tp1ZDuXnjpzcjuVoterPCo9JTkNaa5M5LonY1r2SpRmHIGi9NkoFlNu2+09KPJkYGDQGc1L799GHcH+hsQ+pkLN+2+rU4fm1LD6uIeOS4ZsG4QQsoVd/SwY6OpH76aDaH+gBh3/2WOENgYYsQ0R3q+fOa4E//pMhXQpySDyTlg1MyXPjRe3taJBmQoJx95dO5Gdmyut3JSE650cfoE0fuF3FUW+uGlzZbuuCzkpySjJSEaauNHpT56d653iplCipbHnKQ72sprqvxou+6apJV9ZGTqvxNc3txI6O69zK72W6G3seYVKdbuykOcuF5/pKM8+DnNyPyCe6zxkpBSJ65AlrN4DPlv5Y69z5gme3yZIHiG0nQPJ4tqHZtX6Qwt2uCriUBjo6lMi+/AutD+0E54tLXJMrSF6+NPY96YhIB9ckI9fXThdercaiXvWNOGLd++wlhKPtPQM/Oy6G3Hahy+Ay2VC8SUabM9lfOlGUcDuEC+NtHa9gwNWr1gWFao0Dzyn57Uo2+vUPFHp9hr1V6VwSVu2ejuNvW+9J43/sYZur7fQaSqv869CzQ8M9qOjTwhtUjL2d76GXR1viPlBtHuEhQe+SOvjBUOv988XaJkMyuvLDlG+naKGEo+xtRyX7G3sQd/WVnS/14Sed+ox0GqCwMeake6aCc2K6Vn43UUzsXhKZshvjK3CLLji9mq8vK3NSkk8GBXo+3/4G2ZVzrdSDImGlopmjxe14p5u6xuQbbts7+VaXWjoAsRZkGjxc+bhX52il+0tiEq18zjzawHW2HNEr7P/OvPrvHpvan9cVuvsVKK2s7chXG7o2Yyu/ka0eXZjX9dL8Hj7hED2yI+N3rPepy/6iP4IrRPXNQWeAA2rMkWs56pgbbJhw12I/Xi2t6Fvdwd6329B36529O/vNGHy4oipRg4Aexj/8xNz8P2zp6EsNzWsqhl6oCrOTsX9CRTr1p+G/fvQ2dGGZccej/SM8RES0RAe+pbPcCXJauaiNBdyUpNkdTMlpcty4sJ5JTF6zn5Yhi6pv/aWasqPStNPjM6l1ul0vQe17JyqdXaKSiNqT77b63xO7L2oqd6T3jIjpVhWNxemVWBe3nmYlF6JrJQScU2mCsH1wDPQhmSkiPzBxco2SNVRqJusMqbzir7hqo5V9rCQVcpyRi5KZB8wsczyjNZs/suZqL35TfTtaMPAQToBUd/WEB+M2DpgD+Pff2QG/nDxLMwtTg9LZJ2w7XZncy8213VbKYnFwMAAtr2/Ed1dXVi04uhRElxdEET4oxgihNebnapU+26B+LBz1dQMDp5JQrsooFNEFrbq+Vp0TuFSU1XW+6aqdLWdnVNP7dxqTuWzbVad096GcN65pZoq9H441fn4z3lunFPLCpVP4Upi00mSFNpJ6QtQkDYPU7NPxLTsE0SqG+kpBSKPG73eg2KZxas6Z394vegdikI74JDhYAQacqfFMyDOk3ZipWW7J6HINRdN72xFX3fihAkdyxixFWSJwuM7HyzHDR/37WEcKYxSNCkrFQ+91yzbvxIRVmft2bEDZeXlWHDkMit1NIjutzFEB4N8pIn7W1u883NT4BbPC/9RdLVTIfUr+QupkjM9rxia5kwh9l6cqXZue079U6h5bqnT1Jy/tNtzaq2e47zer/rLf/ZU7c2V7BbfP1NYvoUoy1yK0owjhQgvxPTs08QLCl27porrlYMeIb6E1iyt2C6vy7Jm9TGHJ6DYHvoTIo68fGk4ef5Xse2Zp9DZVG+lGuLJhBZbDuP57AmluOWT83BaxdAextFQkuNGXZsH79Um7ltjb083arZWYea8SkyZNh3JjLI9hEDFZCRw+9j9PjY8v3jsN7Fh4a8EIAn5bmHpZrqQm5Is5ynEjEqkaiXVtVU5lbDoFDWvlnzvEq5ziqTKp5btOWdupuhtfPdF9JzaTn3UP73OmUOfmX1W9no73U7RMCU5OQ2ZwrrNcBVicuZyzMg+CbnumcL6PRXprklo6+tGSvIkcX26hEXLNxPf/bADVICm28CEmi8AU7OWYl7eaWio3oL976+1Ug3xZEKKLQ3XDy0qwF1XzsNFSyfJyD+xht57yvPdeGT9QXQnsA/R1oPNePOF5zBnwRGYMWeOSAlWAkRRMowKY/38xjqDQmSSUSCeJbqJnC7EtzAtWVi6tmh6HSKl02xp4zL/cqpETuUgdi7bLlX57G3t/M5lnU+nEXte7YswzbkvjV52bs29qX2q9fqfWmv9VTPihcQlrksRslKLUZK+GJX5Z6MgbboQ4RXi+sxC/0C3sIrzxd4GpGcrsYHaMAiBLNxwyRJW+HElVyE7rQht+/ag+tVnxdexr4UhPkw4sT1udg5u/dQ8fF5YtPkZ8R26MikrBd39A3h9R+K5cXTS3dmJ1uYmrDrlNGRkZfsVCJyPvoCIH2P9/MYbdB6RJKuW2aFqRmaKbOPNEEKc6eJL7YB02uAUQDVV4qWwxcspATpV5+MrLNuNlUVr78Hemjjn9HoN53Savc6WUYVzTh/LmaawhV/PEZVPpbAKnksU3jz3FBSnz0VF/hkoTa9AeeZiYQkfITfLcOXClZQKz0Cn+H6MZ6uuAp+rYB6irMMNC7fPSS3FkZM+gmnZy8Umg+hsbkTV8/+Bt8/pyMMQD9SdMAFgyLxfXzAdJ8/Lk5btaJHobhw19C619Jjj8K1f/A7zFi0OUqVsmFj4qgCDIXSIl09WMe/rHsC+nn4plioEryqG1BZa1OypbzGlBU3ldR7HnuO83taJzqG2V9Kp/vqnqyW1rNC5VKr/klpW2+glNU/4V+9b51Zz+hwGBr2ibEpBZ1+jbOPtG/CgtvNdMd+G9r561PdsQ3pyNjqt9t9A6Bdd9jbmbtVxKLIlQswXYm7OySjOmCuOQ6c0g2iqqcZNHz0DPe2J6fluLKF/8YSlNDcVPzpnGi44slC20Y42fBH9y0v78ePHa62UxOaUD30Y3/rV7zFl+gwrZSyib/nRvx8OL2Pje9M645lQD3Z39aPRMygEhTF4eYZ0v69FVp2xvayFzTdNo9cRZ16NyuncTq3XRwq2XqepOfuvWm/nV1Pi3AdR+Xzz2+ijKLhGrdX76BvoES8q7cLGdaOuayMrnNHcuwctnlopzg1ChFk13NqzF1nuYvFC04QCdzl6ve2YknUkslMmCaFdjEnpsw8dVx/zwOb1uO/rV6Bpd+I64hkr6Dsg4WAP42+cPgWfO740Lm2y4VDX1odLbqzCpv2JORTISUZWFs7/+Kdw1Te/g8LiYpHiLFbGCvqWH4vnFk/G4vfmOSXJgPe9A0Jwewewq4seq2jpJQlhoeSofLagqfPX6cSZpueUpOntmK7/qjU6p8LOYe/Td2udR69X2NvYe1PHUHNOfPfhPAudau9b74OpVg47k3xhoYerXmH1prlycbB3l4xq1OapQ1bqJHi8ncgUAsxxv6pXNDdUfUfUtVI7YzXydRceh45G0yM53iRcm208exhHSnaaC9luFx5nwOUEp7+vDxvXvIPdO7bjiOUrkFdQaK0ZS/CeOPz3xegzFr+3Oh/2YM5OSUaheDGel5MiezWLRTnMiLHvKb7M6zx7tcS/nHK92puasxm6jULntdNUitoj5/Wywn+/ekstt0SlOPdBmEOv0XlsVE61RuEUWnV8uQdZRWztSWYdFNcoTc6mp+QjRVi57GyVkuyWw41cSS5h+bqtbfQZcFN1NM417qhC1XOPo6fNVCPHm4QR29HoYRwNUwvSsLa2E7uae62UxKZ+316kpKRg2THHyfZcgyEUZCci8aHwlqW7pPhOSkuSPZuF4St7N7uERceezZQOJR++Iub7V8mMnVNhp+t5BVOc8/ZWasneQs9rWVT/7CV7TuErdr770NhL9jpOfY+hv61ep9BTncs3XW+n96lIQlvdPqx94Hb09yZ2n5KxQEKI7Wj2MI6UieDG0UlfnwfrV7+Ffbt2Ye7Chcgr1BauftANhpFhr2YKL71XcThReWaKsNqAbFeyFGXlq5koOVH3lxIb9VeLnP3U6Xz2VOVxbq/m1BpnHrVOC5jvX+eZ+J6VM7/Cnueczq9yEy5zybnG/i5qSeXVy845otfqqcaRPjiIfRvWYP2jd8t5Q3wZ12LLHsY3fHw2vv3BqWH7MI6WLs8AntzUIsfSulnfFQJluW7pwrE6wXsma9gjcuv7G2QhsfKkUy0LdxR/JEPCoC1eiu8kYe1yOBGtXQ4tSk1Olj2dGR6Q0eCUHajutGTxT4sUl7X4KDHzvxu5ZOdVuX1F1ilJdi77rxO1tVrj3KOdXwuoTld71yn6XNQ+1FZEzevcNjqP3qfahy/OFF7P1278I+q3bRZaq9pzDfFjXIotexgzGs9vLpwRlQ/jSPCIN+n7hHV66Y1b8e81jVg6NQsVpeyAMDJsP6bgJrIbx0Bs3bgB+/fsxpz5tHALRMoo/mDjCn1PmOszPEmy2ShdWLfpYqY0PRlzslOQZbX5ZqQkgbHOVbmgBE3Nqb+2eLEDlkItB7r+Kl1vo/7Z+fUWCuc6taVOce6Df51LxN4P05TIqrVqjdrKN03thy8UznS1R7WssLfVqJTGmmq89/BdaNm3WyUb4sq4FNtzFxXi6lPKkBaiRRkLqI0MDP+Rf1ThrtVN0isUb+29LR6ctTAfmW5eypGZCG4c/fF6vaja8B6aGuqx6KiVyMnNs9YYAmMXi4ZgqGukOg2p+WwhsoXiOaTgVuSkIC81Ga6kQelMo38wSXxskVJbDBU1hb1PPa+WdD61pObsPdh5FEy1hV6LvF5Sfyn29hL/2QJu5/XdVsFUGzuPStf7IL457fNec98tqHrhSfT3JP4oibHAuBTbzXVdWDUrB7OL0q2U+EKh/fPz+/GVe2rQ1uMbQmtfqwfTC9OwTFi4oVjYE8WNYyDYQ3nf7p2YWVGBgqJiq6A02PB6mGsSGfa1SxH3Faudc4TYTs5IkS4kaf2WpIviToguAyZwvXKmQfQMBYv7UHKkUuy/di77L/EXMzuFf9VH/7X3THQuTu2qXzu3fSa+26o19vnYqQq1hcZ3rZq27duLV274PZp3VstlQ/wZl2LLm+xAex/OXlggOx7FG2pCeYEbz25pxcGufivVZq8QXPaE5hCfUJgobhz9GRAW7o6qLdi6cSPmLVyI0ilTrTWGsYVdjCcCbOeldUvxZcCE0rRkafUWiylLD7bzMoRgH8euqk0kSuBUCv9y2V7SVrFGz6l1/ji35F8t6r57YLpao+Z1ft89qm3sv3obLqlt1DqNc55LvR0dePGan6LmjRfh7e+z0g3xZlyKLeEQmvmlGThiyugEL89NT5Gh954RgutPQ0c/inNSsHJGTkjWLd+qaQ0HE+9Ep/FAHXZVb0NRWZkQ3HIzNGjMoW/iEG7mcYT+NhRWCm++OwlTMlyYKV5+2bu5QIgvO1l1eFUe1mhpWbThkpY+53VSkqekjylMU+vVvHMbLahqWeVX8zqn3t7ej8pB1JxzOztNTzU6RSG+k3jh3fD4PXjxb78yQjvKjFuxJTubenGOsCizQrQoR4I9jPcc7EVB5tDCnyI6XVi3b+3skFXH/lQd6JZtt4XiwQ0FinePsG5f2tZmpUwcBgcGsG/3Lrz+3DNSbCsWLbHWGMYOzkI6MZFSJh5sl/hwaBF7OReLsmSBeHHOTBGCnJIshx11C/Glbxw2+doyqa6PUxj1WmJPffNpSbbTdLpCr/Pd3t6vXqPzETWv8inUvDMP0zoPNmL13TfhzVuvNb6QDwPjWmwbOvowI4z20mA4exi/UdMRtMMT0ziO95H1zYdua01H7wCSxdvwyfNypeU6EswyozBddrqiZTwR6enqkj2VWeBNmzUbaRkZcn58ootOw/hFCS/vQVXNrDpbSY9WqUmyt3OemLK6mbAKmp6c1S+v0rTAcarSuaznnALIOc773jPONP3X3o9K03Nqnn/VsW1UDnsqDImDTXjhL7/Aazf80QjtYWJciy3ZIazbs47IR14EziwC9TAeqcNTaa4b7wbxBLVFWLenV+bJ4T2hMJHcOAajraUFrz37FPr7+7D82BOQ6g7t2o1dAtw0E4hx+64UBHZo5MszezpTfNnZisOM2NmKlVjs/Uw5ZFniTmavZ987QM/baXpOt7Sqv+Io4qNlVVuyzq203GrUVqrSWi2pOZWXDA4mobulCdvfeEFWG29++mEMDvh28DSMHuNebNnmmStu/GNn5YRkUWqaxXafuHUbfvPMviE9jIcT8OE8QfUJC5mf0+fTP2lo5zLR3DgGY+v7G7Fl/VrMPXI5CicVHiowxg883/F2zobQUb8tLV+WM/TlTKGl+E4T5cS0TJfq/ZxOxxv0bjUo8rikhyvKMUsYfXdoKSX2nC2VTtEcWu1sb6GW7BR7aRAdTQ3Y8frzeO2mP+HtO65DXdVGDHqN0B5Oxr3Yki11wqKcn4eSHMZoDI30lGTsa+nDy9VD20wp4PRIFazD05Q8N3YKcaQ3KH8Yt/aEOTmYJkQ0FCaaG8dgMIDBru3VWHzZ51FWNAnpbCQzGMY4FF5+2KGK7b78cLjR9MwUIcZJmCfMX1Y/M121/w7KzljaqQ3tWTXWlvjKptNqVWlOSdbrrbxqFg3btmDzc4/Jdtk3bv0bDmzZgD4zjnZMkBBiqx1MnFKRF7JFSREdbjjPcB2eUoQQUEzvX9ckLVknfIi4vw+KbY0bx/AoX3IUJq86FZ7cItkrlIJLS8JgGC8o6VMizPvXLYSV7b6l6S7pYnK+FdFoRhaXXcgWIsyOWdyGHbIIxwmnig8jHdFKZhHDscEMxODp6kRSsgs9rQcx4PGgaedWabVuefphvPqPP2D1vbdg4+P3oWH7FgyIF1jD2IG/sa9ajFMYv/aRL8yX7hNDhW+D/3yjHt96cJeV4svnTyzFT86dFlDAKao/eGwPrn/lgJViw+w3f2Iuzl1M14ShwTG37KA10RxdOMmbPBVXP7VeWAnADGHtF6WLQiotRRY0BkNioItbWqOD4qVfebaiwHb1D8jhhb1CXRndiDl7RHHA+7+r34un7rod69a+i4aabUhJz0Dzrhp4Pd3obBYv/b09ppp4jJMQli2hhdnp8eJMtpeGWAUp7u9hh/MM1+GJb670BPXQuuYhAsmHJBw3juwNXVXfjTd2dKDVr/14IjH1yKMw65iTkJGdI97oVUHT1ueVVi7jmmr4uxkM4xPevOoG1j3vWZYQVkVTdHmvZworl+3C7BXNzlkp3R34n4vOxu61b+Ng7S5h0VbLHsaMQ+ulBSvrkQ1jmdDqOccJDwrhey1Mr0xFwoL6ysll0hr1p7N3ANe+XIeeINbmvOJ0XHl8ibXkyzu7OvDYxhZrKTBstnmzpgPnXrsZH/vnNuw+OLE7SbXur0Vu6RR4RWFEoSXdYrpPvIDU93plZBdiypWJxMT9sZUYD2L/nj34289+BE+PiTk7nkkosWVZ/NeX6tDKUehhcEpFLj6wIN9a8uUJIZjv7um0lnw5KI7TOMwY2ZteP4C6tqHtJhSLrcKSvfzmbThHCO2a3YH3P9FIExZtSy0jkAxKYWWbFekSln+tuNZ1QnR1WmC4brj1holFYtwPLzz+MB647WZryTBeSSixJS9va8NTm4a3KP3heNfPHFcS0LplFfHfhIB3CMtKQ09Tf3p+Pxb/dB1ufqPeSh3Kpv3duOfdRh9LjNXL/++BnTj+dxvx1ObwzjPRad5dg/R89dLDXpsD4uOkSVz3qvY+NIrfYnjRNfgynkUnwEMZMtFsOxYYxDuvvIRH774Tnl5j1Y53EqbN1km9KJDDCXtHhhvOs6OxR3a8mlmUfsjTFIXSTwsCons187mnaH/6tmqsEZaykYqhuDOyUDJnPormVMjrkyqumWyrdTTS0mlAj7B66bmHPTbZocReyzl7aWT0rxDONuOVifAdAzF+v3d7Swt++JXPY8t7a8ULuykxxju8ExPyV2Rg+c8cWxJWZ5p1tZ0477otsq3WHwas9wp1bWRU6jBhKMCWrn7pSMMwPB/85s9wzBVfkTdletIAiq0AEMR5s3I+UwhxeYZLjl+MDO4tjBvEYBglmhvrcf8tN8m2WkNikJCWLYnEjSM7SzUJMQ3UhkoB7opwWA7H3U7kIT3hkOJOxaxjT0VqRqaUQuosxxpy6v9WyHikreK6esRbP61c9uYMDyO0hrEHrdj7br4B/77hOnS2T7xAJYlKwrXZaujJ6c53GuG1erCGAsfTXimsYXqPMhweql9/EW0H9kkZ5OtJW/8gvF7ltCQQrFZuEi9C+3v60eLxyvGJBsP4hPd6P7ZtXI9b/vwHHNhba6UbEoGEtWxJJG4cGV7PI0rwQG4cDaOAeKtPz8nFtKUrkZyaKgWXaW6XcouncdqklFfW/LfS1BXQK4+xWQ3jkXdffxV/+/mPsG3TRivFkCgktNiy6jZNFLyhhr0jzDacG0dDnBHC2la3FxWnfAhZBSogAa1Xtts6HVsEglLb6R3EgR6vrLJhm+74DdmX6OgaCPP7aDy9Hvzkq1/E2y+/aKUYEomEFlsSbtg7wsDuLNyfEYIbD9i0uGRqFj59TAm+dtpkXL6yGJ8+tgSXLJ+ES8XniMmZ6PMCdW2ekHo8Jxr9vb3ImlSE6cuOlWLJS8CqZHrUYcxgTaBimmnMz6FDHALNZXqjCvVlyzDa6F9MT8lE+60GsXt7Na7/zc/x3KMMg2f6dyQizjs8YfnIskJcc8ksGWEnVBo7+nD5LdXSE1SsmJrvxnfPKseHjihATvrIw5LoxnHjvi7c8kY97n23SS5PFCbNnItP3vwIckumWCmDcCcNSqftbpe4dgHKY53kLLLTxE+eL353On+n20cT2GCsMVEF1sbb34eff+OrePjOW+HtM7VpiUrCW7aEY11XzcqRQ3BChWN08zNS8Mj65qjfRtje+N2zpuLvH52NZdOykBbiUBVa15Pz3DhbiDOdbjBuL71Z+UcaSkR62lvRWrcXM5YfK8ffDoqymGNrZZuuuH7+1cNcCnRVWAXdIa4XvVDRKHaL7ZRx7Lu9YbRxiuzE/S0aD9Thgdv+iTuuvQb9HhOlJ5GZEGLLx/pAex/OXlgQlnU7RVii0Ya+m16Qhn9/tgIXHFkIdxThazLEeR87OwefWFWCbs8A3qtNcMcYQlQbqrfISEBTFi5Dkou/W5KMtjTADlPiUjqrlEeCossOVBwqxCFC6XJ/hsPHRBJZ54uFjae3Fzf9/te46x/XorM9PJ/uhsBUlqbLsvLEuTnoFc86o8HROOkfAzXzE0Jsya7mXswvzcARUzKtlJFJFQUyf6gn3o/MreJyYcXefWWFPG6sai8z3ck4Y34+Tq7Iw0vb2tCW4FGCOhrrMXXJCmSXlImiSlxEcSE9ouziWESKZrhtsVp028SDyP5WRnQN8Uffo3oq7r+Wg3j8nrvwt5//GN2dxjd6tJxzRD6+cfpkWQP4gw9NxQcX5MsgMZetKMLcknTpBZAdXg+ngTJhxJaE48aREXi++/Ae/O7ZfRH9QOcvKcSNl8+RnqdiDfWF7b8fWTYJ2+p7sF3cSIlKR+MBNO2qFoJ7NDILJonfQv0aFE12naJLx3AsXMI9ULBZtdwpdsTrybbd8d5zeZyffoJj/zjtra245c+/x79vvA4dYt4QOZNF+Xr1qZNlR9NjZueiJMctn2N3SrI0luj3ngYWO58WZqXKGsFua4jgaDOhxJYxa6cXpmHZ1KygBRPdMf7x+f246l/bsX5vV0RCe/Upk/HL86eH1AkqGrLEjcTOVp2egYSOHNSyd7d0dFG+eDky8gpEsaV6KHNsbb93QFYpu5LtsbWcBvl5D8H1FGz6WeZHdz5LFT+Z09uywRBL+vo8+Nff/4Lrf/1z4x0qShaUZeAmYdBcuHSSHEESDIovmw9XTM+So0Bo5e5rHf328QkltiSYG0dG8rnp9Xpceft2PL+1NaIhNzSwfveRmfjKKWXyzWo0SHUl4YQ5OUJ0IIPgJyoce5uSmoLpRx0vLFnXoZcgxr5lGy6DbsuexmHqJLPzRZfjcym60gOVSGTzuhkuZIgVbPbYt3snbv7j73DPTf9Ab/fQgCeG0MkU4vnHi2fiuDm5VsrI8HmeNSldhlS9651G9PJtexSZcGLLenv26j12Vo68+LRoHt1wEJffsg0PvdccsQ9jNsTf+sm5uEi8ZWnH+aNFihDclTOzE9rCHejvQ+17q9FSuwul8xchI9e2cPsGk8Tv1i+rk91WG2wkvwBFlz2Xe8RDyLuAPyP3k7iiqwubRP1+Y4eerg784htfxYO332yENkoKMl244eNzcFplXkTPJg2t3AwXXnyzWoQAAFWHSURBVNzWBu8odpyacGJL6MbxVPFDMYD7lXdsxw2v1UfV0Uj2OL6yAseLt6zDVS7Twj1udo6Ml/v+/sR8mAcHB9BYsw3JLhdmrToZSY7KgwGx0C+EMmlgwKpSFj9EhL8FRbddCG5nv/LJzN3wUM4HOzH0l18iIb7ImIW+jt9/9x385ac/wPOPP4IB47AiKtJTOIyyXPZXicaoqShJx7t7ulDT1GulxB+erX69nVCwe3gsIvGwx/E/PzEX0wpC91AVT+ra+nDJjVUycH2ikpKWhtnHnYZTv/JdlFYuOqQXqq11AFnixSPf7ZKBJaK5wfWjzCrlSWku6RyD3qhYZW0wDI+661595kn85Sc/QPXmTfD2G4cV0XLG/Dxp2MQCOgw645pNo+a3YEJatoTjNaNl1cxs3PqpeSjPHxtCS9j7bl5xOh5efzAm33EsMuD1omlnNbpbmzF16dFIz861hFYVcRxT1yXrh1TovWh7GXNPHcLSPegZkPMUcWK8URkCM4iOtja8+MSj+MP3v4MdVVuMC8YYkJ6ahF+cNx2zwnBONBzZacmy2W3nKFm3E1Zso4VVx7RoZxSmWSljB4p/j1CcN2sSt8MUadhehepXnpFRggqmzoTLzWFWQgDFf3qbki8b4uMaFB/ZAGuLYyCZDJSm4ToWl+xI1ShEly/DHKdL+BCN92FDhhgh7rXaXTW46Q+/xR1/uwb7a3dbKwzR8qFFBfj8iWWyySwWcGgQezTf+laDlRJfjNhGAMvtP18yS3p0GouwbXHmpLQJEbmoq6UZTTXbkJFfiKJZFUhOcVmimSQFt0eIYo9QST6ffLjUGl3Jp/B/dP2XA8FAB7R0e4WYK6GloHPbULY2JCaD2L2jGj/48lV45qH70dWR2C+7o81Pzp2GytIMayk2ULif39omfTDEGyO2EXDRskJ8+eQy2Qs4lnCM7zUv7sfn79yBn/2nFk9vbpEuHunTOdy3uXhHLhpLdB1swpbnHseBre+jaOZc5BSXiVT2VFaSSou0p29AWPteJAtBTOUfB84rq2QzdFQc3QHpIENXFHIfpoo5HuhfZqxd20E01dfjsbvvxF9/9iNsXPOOSArnLjKMxMLJGfj6aVOQwU4TMSTD7ZLDPl8QghtvjNiGCTtW/e6imdI5Rqzgc8kxshdcv0UIbCs6RAnOasr9rX14fGOLjPizfHo2yvPoHcXaaASYb1JWCv7zfgtaE9ylo6Z1fy2ad20X1m0KMguLkJaZJVKtblNJyaxRlp6jPN5+eeOnBBDd4YpIrteXX081ctiQ1YOZw/d4LObR7buGWBDs6h8+OH62tmY7/vjD7+Gu6/+Guj27jdDGgU8dUyw7R8WjuYY1Uo+JcpYv5PHEiG2YnLkgD585tiRm7QYslO99txGfvq066PAjplNwZ0xKw8KyzJAFNyfNJT2lxDJM4FhmQIjowT07seP1F8R1HcD0FccjWTxJ6nIJS1fMKMFle65I8tIlhmWFxughptCyXbdDHIBVzP1Wwes2ohslWsDGxnUcGPDiYGMTnnvkQfzm29/A2y+/YHobxwk+mt8/eyqmFcSnf8wUYcRc9+oBdLKaKo4YsQ2Tb5w+BUun0WKKHjrU+ONz+/G9R3arwn8YaOm+sK0Vq2bmhGxVs+2WA7jvW9uUsD2TA+Ht82DPu29i9b9vQnpmLkrnL5Zep5ztqSwWu4Xo0iLldUoS10dpbmwKc/6cbCumtdsjxVccSOw6PcZNDxOPsXD9BoW4voi//fSHePC2m7Fv9y4r3RAPZhS68YUTy6QzonjAoT+sRYy3QyAjtmFQkJmCr546GcU50QcX6Oj14psP7MJ1rxwYturSCW+K17a3y4gWPJdQoE/Q56va5PjbiUZ/Tzd2rXkNu4XwpufmIad0MpJT1W+nhZcayPZWj7CEWalMhxiycjnCMt1/M/62FPQuIead3gEc9Hjli1OmFF3xSRIiH+nBJhTW9TrMNB7Yjzuv/xv++pMf4P21a9BjvEHFnaVTM/HpY0rCDjgSKuzbsnFfJ16ujm+YQyO2YTCnKB2fOb5EhrmLBgrflf/ajsc3HrRSQoftr+yYdfK8XB+PRsFg4Pqq+p6EDlQwHLRyD+6ukVXLbftrkVc2VY7LZbuuEjn18Qox7OofEFaoVz582nFFKIZuCFkkFFkKLyMNHehV1cwME0grmPsI5fc0HA4GUbuzBk8/cC+u/eVP8Mhdt5v4s6PIUTOycf6RhdZS7GG7+56DHjyxMbJQqqESnWpMMOYUpyErSqGtOtCND/99C17eFnnvt8c2HERti8daGh4KB6NdTHTYY3nNvbfgts+cjxeu+Rl629swOMA2ctqeAvp+FFatZyAZB3r6sb/Tg45+r+zrMlJ/lxFWD4Hiyk9z3wC2dvRjV2c/GoX4slezjj40Honlu4La1+G+FoNoaWrCM488gP/7wpX45bf+B+++/pq4b8bvbzTe4G2wZEomGGwkXrDpiB1f4/2rGrENA3aKirQ84b3ySnUbzr12iwzxFA2Mtfv+vi5raWTi1bFgPEKvU2/c+jf86YzFeOrX3xcpeoiQ9Vf8wMlCeD3i0Wju9WJfRy/a+ryyY1W8nnd2qNrb48Wern7UdqsPO1jJc4pjIRNrYnmqh+9ri2s+MIDmhnq8+vST+OFXrsJ3rvwU1r75uukAdRjgbTA5zx3XWh8+YwxMEKtOr8EwYjtKvL6jHR+/ZRuaY+RkYltD6IJdlJWCsjgEsR/P9Ha04a07/o6fLy/Fg9+6SjzUdqWyhA93kgseIbxsZ60VonvQ0y97FyvhDawGwz2uPvsPAKuYW/oHpZW7U1i7m9v60OAZsKq3D5v6HEaGu1qxRF1br9eLXdXbcN8tN+L7wpL9zueuwCtPPYH+vonX32GswMAD0vtbHKFlu7elL67WMzFiOwrQEv2f+3eO2LWcYfrYxhoKbd0TY+xsvOnv7cWGx+/FTxdPwh1XXYz2+jqZroL3qQeRojuY7EK7UMPaTo8Qw345Jo89vCm6zl9suMeV60J5nHmXcDxwt5ipFb8zq5r3CWt3n5hvEeLLY6r9hLI3w0j0C4t157Yq3HvT9fjfz1yOn3/9v/H6c0+jvbXFROk5zDDc5dziUaiZE89UvMPtGbENg5rGXulzOFze3NGB7SNYoifNy8Vb31yMez5bIUXXMLqw/Xb7a8/hD6cuwI2XnYE961YLKaOY0eJVc4NCeJOE8PI9p16IbVOvF+3i093nlR2soiXYHphOi7dOHItVzJuExVvb1S/Fn040vIfeyKM/h7FL7L4bX1Y84iWLPYtf/M+j+OP3v42vX36pHC+7Zf17Vi5DPKADCctrakjkiLKwNc6GBZ/djftDb5aLFFOqhwH9DLdz8GSYsFPUcHz0qCLc/qm5sm3ihDm5+O2FMzBSzQnzGuLD3g1r8M+Pn4m/nbsSm558QKRQcJ0/iLJ7eSscFOVAkzBDDwrBbe/tQ2+Q1+PQ6isC45QZWry94sNgCNs6+7FHFES7xX1Jy7dLCHKfKDhs8U00ovte/f19aGo4IN0p/uO3P8fVl12EH37pKjmUh5F5jBUbPzhW9qKlhbjjinl46PPzce1l9C2fLVtrhoO/eLzLOj4ub++M/2gNftVEfTJjDgXw0S8uwDGzsq2U0PjpE7X40wv7rSUb7u9bZ5bjq6dN9qk+ZvXk75/dh988s89K8SXc83ivthPnXLslJvF7JyIcn3vsp76CYz71ZbGkWnfVQ6P+KiEeFG+uHDI0gBQxn5XqQqb48EF2Figqpy96daB0/zSN/zq+NXM5Q9xH2SlJMrQgx/Jmink2904sD1a8EuI3Ehef176jrR3bt7yPrRs34KkH7sXGd1ejT1i2bKM1xB8Gar/x43NwxJRMK0VR1+qR5eINr9VbKUNhL+Fnrl6ABWW+28aSvS0eXHj9FmxvjG+oPTPONgz4CM8tThciF160n231PTICjz//c/oUfPPMKUN6wbHn3fJp2fImeD9AEHieB/dZmuvG1Hz3iP53393diXvebbKWDOHi6ezA9teex1t3XIfu1oOYfczJGKSrx2SHK0hryuK7fzBZWJletMqhQ2KNsHYHRA76Ypb5lRYcgrNq++A4f2Fnfp2ul+U4XqGuHMu7R1i+WzsG0NLaiidu+CvaDjajtLwczcK6y87NE7n9TmS8MzggBLQf3V1d0qvTxtVv476bb8Rd//gb/n3j9XjqwXtF+m7Z4Un+Loa4w7Lpux+cijMX5FspNtnpLpwxPx9/fbFO1sgEIj/DhY8eVYyi7Ph18HxnZwdufrNBdnyMJ6E85wYHx8/JkVUh4bgOY3vteddtGeLFiW2zd326Qu4zEA3tffjUbdUySEEwuI/PHVeKTx1bjGn5aUOqZVim/PypWukW0hAbUtLTMf/Uc3D6138Md0YGMgrUgHv70qtWXiXBTE0SlqVYHhgQlmayeFunxascWsgOWDqbBWcjeSi5TxYYDP/X2TeAnsEkNO7Yhtf++WdsfOzfyMjMklWpx5/xQeTk5WHewiNwwplnob2tVcwvRkqKssRdKfRO5ndSYwhtsXrFywy/T29PD/bv2Y3Guv1yiM62TRtlqLu6PXvg8XjMkJ3DSJ4Qy+euXjhswPc/PLcPv3pqr6yBCcT67y1BuSjb4sWvnq7Fb5+Jf/kY6XM9YWG1xsNfmB+WowgWYH95aT9+/HitlWLDIPTsFDWvJPDNSAv20hu3yh7NI3H0jGx844wp0ruUrpZmEIPLbxEF7nbj8SbWJLtcKF+8Akd/9LMomlOJyQuOFA+TrmbWYqUeLy1bSWJxUFhg6a5kJIspY+ymMwavmJeeq8SyEhOxBW8cpxj7TTlUgfn6hOXsFSUVxbVbzPeLKbN4ujrx6A+/io1P3CeWhpLqdqNPiNGCpculaM1ffCQqFy2R6UedcLKsZi0sLkLBpGL09HQjKzvHPrchJxUL1L60mOqv32/VELDqt621RUx7sGXDe+hqb8Oa11/DjqrN0vkEvTwlJyebttcxBDs4rf72khEt06JvvSN/b38Y6ezfonxkkPd4sL/Vg8v+uRUb98Xf7aZ+WgxhwHBPvzx/BtJSQi9kGDPxG/fvDFidu2pmNm795NygPpcplB+9eWvIUSlKc1PxlZPLcOmKIuxq6sX5wqo27bXxJb98OmYcfQJmH3sKKk89G2lZSph8dciWYbUkPiLPgJhhGyurQdlTMzWJ3mwGkW4Jh0uIOrfhtqymFkay9JPNiPjdHAokFLwPOmi+sPj6+lBfvRlr/v1PvHvfreo8wiAnLx8dwtqdPX+BsIYzkZWTi4ojFstzWbziaCSJl4JJJaXIExY9XxymzZ6L5oYGlM+YidaDzTK9z9OLlFS3rLKVot7nQapYZnqqOw293d1wp6Whu7sLbrFM6zo9I0NYp/vk8bZv2SKmOVj/zluyj8KGNavR2tyMxvo67JNh7CAEtlG+8AyYttcxCz3uPXBVpXS5GIx2YRB89l/bAza1ZQux3vWzFdZSbOFT8dC6JnHsHSohzvD5DO9JNMiq20eEdbt0anhuEBl84NsP7cZdqxutFAWt0Os/NgfnLSmwUnxhWfnohoP4yj07wgoDxUIqK80lb2bD6ODOykZmfgHmnXAmll70CaRl5yKrYBLShIApe1NLokJZwkT9pXjRg5UKRU9xVhKbxC5QtNiEAPOG4DAkawORTe8zCQPCQt3wxP147cY/oHl3jRTeWJGSmirFk1XQnl4PMrOzMam4WFqbsysWoLmxQVZNN9YfwPQ5c3GwsRFl5VPRISxQuU1PD1IpsB1sFkkS2x0ULxIpaGqoR0pKqqwKprjvr+U0C/X79yE9PQOdHe1GVMcxnz+hFL84f7q1FJj/fXAXbnx9aEepWZPScO/nKsQ0eDV0pHR5vPjoP7fh1VGq9eNTasQ2Ai44shB/uXRW2EEJ2Kb22vY22QuvubMfM8XNxLB9R0wePk4ty9R73m3EV/5dE/eGfEMMkJbqICYfsRRTlxyF3LKpmH3MSSieuxD9nm5k5BbI31TWK3Mi/vlXPWvUbWGnq1z2zUKLs6+7E3vXvYP1Qmi3vvgEulvCD3JhMMQDCubdn5mHuSXBq4KvfbkO//foHmvJhkOG3vjmYqSlhFfOjgSbYB5+7yD++56aUav1G/pkG0KCVuNf/2sWLl1eNKxIxpKRhgQZxi60cGmdZU0qwdwTz0B2UQlK5i5A2cIjpVAWTpstIxS5Ujmm0BJdH6uViwMiNRleYb0yR0f9PnQ0NWDXO69i19uvoK7qfbQ3KA9YBsNYgsMUr7lkJuYUBxbcRzc044rbtltLNvNLM/DUfy9AdlpsY9myrZadVnfEebiPEyO2UTBS56Z4MFzbbyTQor54eSGOmp6NecXpMnyfpt87iB1NvXh/fxee29KKV4RFHk41tiE4KWnpstdvkhDgqUeulNW95YuXISN/EtzpGZg0uwJdzY3InzYDrftqkVVQhIO7d0jxbazZivodW9Dd3Iy9G98VT/CA+G8eY8PY5txF+bjlk/MCGieMZPa5f20fEvXqY0cV4Y8Xz/Qpl2LBH5/fh5/9Z6+1NDoYsY2SkTo3xYNQhgQNB9ucv3bqZHzymBIZpCBUaFlzGNN9a5tx8xv10qOWIfa4UlOl+Kbn5KGnvRWZBZNkiMC07Bz0drRLgeY4X4NhPMHawJ+dNx2fO75EzPuK55Pvt8hALf5894PlcoRFLFm7p0OWnww+MJrEtiJ8AkLB+8Fje6TFOVpQ2P98ySxpWYcDb/YrjyvBu985El8/fUpYQks4QL2yNAPfO6sc7//fkfjXFfMwR1jDhtiiOzVRaAmFllBoiRFaw3iElS8/eHSP6qvgB4evsXxywtEei/y8TkULO0WxGW60hZYYsY0BrNL96X9qR1VwWXXNNuNQgxYw3+2fmodfXTAjbJENBDssnHVEPl79xiLp57QwM/p9GgyGxCYjNQlv+9XIcWjautrOIR0/i7JTcNzs8Lz1DQeF9nuP7JFNYocDI7Yx4h+vHpA9hUezapWdDj5/Qpm1FBwKLT1VURz93x6jhcOW/mtFEd741mJcsnySlWowGAxDae8dkH1AnLB56s0ATWKVpZly6GIs4LDLXz21D3e83RDUU1W8MWIbQx5e34wLr6/C+r1dAatKYgk7Evz9lQP40/PD90ymxytW9wZzCRkraC1fe9ls3PDxOSFb2waDYeLBGkBnoPaqAz3YUufrwYn+4j+8uABqbHr0UGRveO3AYR02aUrFGLNhXxc++JdN+MVTe9HYGR8rl29p339kN3742J4Rb57/PqUMx8awKmY4aDUzjNZjX1yA2cP4QjUYDBOX+va+Qx2kKLpPbmpBi1/M2oJMFy47isMqo6uK6+jx4i8v7sdvnt43pKfzaGPENg7wR6Vz7cU/XYer76nBpv3dsqokFvBG/dy/duCmAN5W/KHjjf8+ZfKIUYFizZLyTNxzZQUWx7hzg8FgGP/QJal2IcrA8A+uGzqM8dSKPIThDTcgTcLY+Y4wSn70eC1ax4AXPX6dwyv3EwRWrXIsK32EluWmSq8qu5o9uFAIIiNjhAKDEnAsGq3nkTgcY4D9qWnsxadvrw7pfA0Gw8Tgx+dOxVdOnizn7323EV/+dw2jUB6CVu2dn54nA6tEatk2dPThx4/vkcMUpR/xMYCxbEcJOoN4aVub9AD1zQd2yUg+dNIditDyJfDNmg6cf/2WkISL7bTXXDrzsAotmVWUJttwwx2iZDAYEhNatf3CyGSZxohkrKFzCi1hD+SVM3MiFtpnNrfg+N9txF2rm8aM0BIjtoeJS5YXyQ4AI8Ha5wffa8alN1XhgF883GCMZjvtSFDwKfx8ATAYDBMblmdsZmKF6otbW7F2j6/xkJOeLH0BRAKF9an3W/BDYdGyCjlc+CIQT0wJeBigpfc/p01G+ggCxLZfOuj+/J3bQ3aTeOnySYelnXY4KPx8ATAYDAaOye/pG5Re6Pz7spyzqCCisbV7W3rxP/ftxMdu2SZ7N4cDm/JYHt90+Vz8RRgGXz99MipL02UbaywxbbaHAUYL+qjsaWclBIA9jn/yRG1IHaE0Y6GdNhjs2PXxm7fh3T2dVorBYJhosK/KQ5+vxOpdnfji3Tt8eghnpCThia8sEJZv6KFL6Xnqvdou/PmF/bJXc6j9UBkn9/KVxUJoC+TIicKsVFm1rctkxgHnPm99q0ElxAAjtqPMuYsLcO1/zR52LCqF6av37sTTm1uslJHh/ui4IlbjaTls6cbXDuB2cbPVtfXJTl2nVebhc8eXShdqkRjOdDbODlMx6phtMBjGGfQl/+8r5+HiG7Zi9W77xZvOcX55wXRcfnRxWEEHfv/cPvziydADCnDP88syZE0brejhogl1ewYw70drYxaCj0f6kZo1jAZ7Wz1YNi1Lvk0FsmzZ4/iTt1bjjZrwAhqzGuSSFZMOjV+LBrpO+8g/tuI/77cIC1vdaJyyc9atbzZgvXiTPFo8NHkZ4bloLM11412x713NoxfWymAwjB3OE8YGPUg9+N7BQy/d9IH8pZPL8IUTSuEOIW4t22Yfeq8Z37h/l+zP4t/Bajg+dES+EPsKUQZnj3gsOtag7r+yvT0mFqlpsx1l2Pb62X9tx+s7fMU03B7HTthFnp0KYtFOS6uavaV3HwwuiE8Ji/v0P23CM1ta5XmHCntef/qYyDo/GAyG8U26ENWSnBT89aU6n17CbFL7v7OnIm2EPiz0bcxyk0Hmv/fIbry9qwO9/aEXQCtnZOEHH5oalgvIq8QLQKxq4ozYHgYouPSjTCuW8McMt8exky+dVIai7OhD/NGNGr1ShdKu2tzVjyvvqB7y0jASrEaqKAkcQNpgMCQutCSf3NSK9h7bFD15Xq6slRuO5s5+vFXTLr1AXX7zNul2saEj9N7GtEFo0d5+xTzMDTNKWacoE3mOscCI7WGCluNX763B3hZP2D2OnbDn3knzom+npYXKqplwgtL7vzSEAiN5nFIRm5vXYDCEzozCNBwxmc79D0+x39s/cCjiz6TMFFx9Shmu/9hslOe7ZZo/1Q3d0rvU/z26Gx+6dgv+IiziSDxB0ZEQA9DTIAl37C630d6uooVHjpGRbIgEjj+NpgH++2dNxdfEm2G0TbWvbW/HR2/eGpHgf+qYYvzy/Bmy7SUUnth4EJ+4tdpaMhgMsYJW3KqZOfjY0UWyeWlKnjuouHLYDUc97DnoEZZjh3zZfmtne9w7MKaKk/zVBdNxxbG+TUqsWmZT2H/eP4jnqlqlm1tWFUdDhjtJdhw9cW5kL/ge8YLwpbt3yDbmaDFiO47hg/XoFxfIUHvREO2wHI6be/RL8zG/NLTqYT5E5123ZVTDERoMiQyF9RtnTMHxs3OQ6Y7McmU5wF7C/iHwYslHlhbipx+eLttuaWRkul1Ys7tDuld8oaoNd69plB2TDnZF58uYL/5nH1GA/z1zMuaWZETccbTb48Wpf9qEbQ3hjd0NhBHbcQzbPjlmrTQ38vZattN+4/6dYVUfB+L3H5mJK4SFGwp8k77w+i2oaRq5VzLbeNnOcq84v8MdtcNgGEvwZZue6L515hRZRRxt7dYLW1ul2MYT1uSxDZRWbH6GC69sb0OWENxQyoJQ4DXhy//lq4rxlZPLUCDmo+H9fV04+2+bZdtttJg223HMzElpUbW/sCnirtWNUQstea+2M2Qx5DnnpI/cI5APzrfOLMc1l87C6m8vkWLONINhovPBBfl453+X4G//NUuWA9EKLXv13r+22VqKH7Rm6XyC1cT3r2sW1nR/TISWTioosuwsuvH/lsrezdEKLcP/PfBec0yElhixHcfQj2g0w33Yk/jHT+yxlqKj0+PFQIwbey5cWnioipydKH530UxZwHAwuhFdw0RkqngO7vtcBe749LyYiKympqkHTwkRHC/QCQZZOSNbuqj99QUzsO3Hy/Djc6fJauhYsHl/N/4tjJFYYcR2gkKvUN9+eNewHaLY8enmT8yVb4yjDaubrjimxMd/NAsWFjC3fnIuXvt/i+TbvcEwUbhEiMpzXztCxnqN9cvmq9XtcjhfvGHVMZuGzlqYh5mFaZhdlIZpBW7kCMu0OFuVM8xDI4LTSVkpcrqgLANLp2bi/CUF0ncxO1ht/sFSXPex2fj7R2fLQPOxhB2jfvX0XuyPYChmMPiTmYawccpHlhXimktmjRjQIBC3vNkg22qDwQeColack4qdTb1yiM9wXq1YNcx4vSfMycEKMaV/Zop0oHPjWOILrq/C1vpuK2UoHOjOduDhejjTkF6/t1MOcg93vK/BMF6gsP72opm4fGVRXAKMtHT34xO3hD9mPlLouOlDiwpw+dFF0pseA8hPLUjDxn2d0isdl/ncp4mMrMotEWUQq5/Lct3o9w4gJc7heXY09sgy5ZktLWF5pxoJI7bjGPpBvuOKecgNof3TCW9cdmd/ZH3g7uwUzke+MF+8SdoOwdmR6nfP7sNfXtwf1tAAtpscKd5I2UtSu6nkw3TpTVvR0B74rTHQ8YeD58Pxez94bDfWOPytGgzjHT4Lf710tgzHGasqY39e3NqGS26sCuu5jgW0ZpeIsuGKVSU4uSJXvJxzHKy18jBRdaAbX7tv56HxwLHEiO04hhE0Hvz8fFkNEw6sLvrIP6qEVTi0iz9fnP/6X7Nw6fKhUYn4MPJt7yt318S1yinccbsajht8pboN//vQbmyPQVd9g+FwMtyzGCu84pn50eO10rHO4YLtr0dMzsAFSwtxRmW+rFoOxUdyLKk92IuHhfFx5zsN2BJmiL5QMYEIxjFtPV6cu7gQU8MUW/LajvaAcR8/KYTuKydPDhh5gw88h+Gct6QQG4RQ17Z4rDWxg1XP7OzAwfjhwrF0syaJ8xPX5FXx/SJxfWkwjBW+eeYUXHl8KVxxqDrWcBgeQ3lG4pkpVnAQA/uQ0MJ+fONBbG/skS/abIIKZdRCNOxr9eCdXe3443N1uP7VAzLaWbzgr2gs23FMpB6k+CbLdgl/WG31p4tn4YIjC4fthEHPM794ai9uEDdoLKufPn9iKX5y7rSo2qZGao82GMY67GHLPguROqhgO+zGfV2yWeWdXR3SLayGnQ+PnZWDcvGSTrH543P7rTVji4XC2j37iHycMDtXhsUrlv7fB0VZF/3LB40FOqq4Z02jDKgyGhixHefQN/LtV8xFfpjh7vgmyXYaenMKBKMIMULGcPEeKbKPrG+WUYJiUa1MqzYcT1SBGOl7GQxjnekFaXjgqkrMKkqzUkKD49xf2taG3z+7TwpsokCRWlyeiRXTs3DCnFw5LRHCmyqs31A9Q7ULyz09JRm3v92AtbUdeHd3F7YcGN0ywojtOIcGIIfnMCh9uLD34adurQ4qlIunZMp9j/TQMxDBl/+9I+rOSaw2++YZUyKuNqOTjn++UY9vPbjLSvGFu2WPxro2z6h3BjEYQuU3F87AZ44tCau2ilbs1+/fmfAdBNm+y6rl8jw3Tq3MlX6g2VuZw4YKs1KkqBZmpaKmsQdlIs997zZZVcUdstMTa8y6ovBFHw1GbBOAk+bl4hYhiowXGy58SDmsJ1AMXefwn5GItlq5LDdV9kCeE2YILCeMpER3c8E6R+laAPLsllbc+Fp9QlkAhvEPq07v/WylfB5CJZogIuMdCliGO1mOeqDQcsghn38K8FZhBLDtN5yYt/HEdJBKAHY198qq1yOEJRouvCkvXVEkfauure2UDyzfHj97Qil+c9FMq51kZNh7kIPtK8V5cIB8uJGMvnbqFOk4PNLmGFq1t73VgAfXBXc596lVJThlXp5ss1o4OROXryyWHVAWlmVIt3F8AzYYDif06Xv2wtCfA7bFXvmv7bL5ZKJCP8sUWorq/tY+9Ihpk9XRKZbjZKPFWLYJAtt57vlshXyziwbesHR3FkX/pLCrlWnN0gUdv0Ok8IXjguuqpHUbCArsw8JyZntPMNgT8elNLbjulQNxjXximDjwOeL4ckaxobOE4WDecKN4vbWzAx/622ZrKTT4Mr1yZg5OnqfGvk/NT5Nxpp30CwGrqu+WkXgeEC+wwZ4rQ+gYsU0gou3BGEtYrcwhBTe9Xm+lBOeH50zFf58ceUxejhX87bP78Ntn9lkpQwnXAYgRXkOksAr4oqWTpG/vRVMypbixyeJ/Hwrcl0ATybj5kZpOKODsyXtaRZ6MtrNkapbsiBjOyzSbheipjX0hjNOYyDFim2Aw3BbjWsbDrVs40DvUp26rlm/ewxFJG5U/LGgYH3e4qjT2rP7qqZOtpdBh9XRjR58c8M5qaiO8Bn+0pfixoydJUSvKHuoJKZQYzh9YkI8bPj572BEAgagW9/+tbzbgzZp2cR7ZsmmI3tdYy8Vz4fnFgp6+Afz66X245sWxOVRorGPENgE53IJLT04cfvCbYSxNTSQ9L52E4gGHVciPf2k+jgzR/WMwnML7j9cOBLUmDIlPIOt1OOiA5vJbtsnOTMGIxtf5aMHhRb9+ai/+9IIR3HAxHaQSEHqH8vQPyrafQJ6g4gkF6b61Tfj+o3tGfIs7YnKmjDsZ7pu8E1oMdM4xXIesVeI6XHlcqXRsHg18IcgS57p8ehY+K/bHl4RpBWkyHudwFoshceCwE/aa/9mHp+O0yjxMznOHNFTN7UrGjqYeYX0Gr+lRThwKRv2ZDQd+V0bgeUOUMbGMiDMRGLuvUIaoYFUPHWqPtgiwSutXT+0LafjPV04uk1VekUIL+s7VjSM61DhdFIrhBmsYCQovh0R99vgSvPXNxVj/vSNl23M0nbwMYx/2eq1p7A27Job5GYxjONp7BuQ9PdbhM8smmcPcUjXuMGKbwNz7bhM+8JfNWFfbKS3OeMN22q/eWxNSz8WjZ2QLyyDXWooMjhG+4+0GaykwrEI+ZV50xxkJFqQMbn/1KZPx7neWGOFNcBhqktWp4TK3OEN2ggrGtvpu2Wt5PHDC3BwcM2v4lweDL0ZsExwONzjzmk34w3P75Ft5vOAb+fWvHRixQ5TmSyeVyc4bkcIhSuywNNJAflb5ziqKbjhUODiFd40Q3nXfNcKbaLAq+GAEDuvp5Yj3YzA4fG289APIS0+RzTOG0DFtthMAvoO/sr1dilNychJmF6fHdHiQbqf94WMjt9MSerz62qmTo+oI8l5tl2yrHana7dPHlsghD4cDCi+9etGl3FUnlOKyFUVy2AUdoE9Ebz9jAVZ90iL77lnl0s8uQzKGa6SyaYZtq+FG22JbbFOnF09vbrFSfOFpsE309Pn5h300wUjw3u4QL+8PvhfciYzBFyO2Ewh2ImIYq2tfqsPL21SvyFwhBqnJyXA7YsdSCPiW/ZB4kNjWSZ+jw7GtoRtfursG7SEICMuQH58zDUvKw/d2peEQhJ89WRswHq8TViF/TxSq9Id8uGHhlC+EluN9Wdjz5WQ8tM8lAnTlx85svzh/On4pPgwjyR7EK6Zny+E2r1S3h9W3gb9aaW4qThRizd81HNhRis8V7+FA1DT14Mz5eWPinh2J5i4v/vVOo7VkGAneKuaJNwQkFEcQoY6n1Zy1MB/Xfyz8sYROGEDh0hu3jugSMtJxi/GEtQB/en6/fFnwh4HC6XaTMUYZkYSOBNjhjFWLRpdDhy90rE34xKoinDwvT3boGc5QpNB+5+Hdso9DqITrJEUTyhCgaHydjyb0p/7hv2+Ja/NUImHE1hAUeqO6QlgBwaBl9qun94YcD5MF3t1XVsjewZHS5RnAVXdux3/eD1wV54RB6NlbeCzBOKOfuKVavjA44bX5z5cX4KgZgdvBWNvQ2tOPnU29Qox7sfVAj+yowxqIiewXV8NxrlcI6/WS5ZOkr+twmyh4L98lrDR6SQql8xOtZQ4B4nCdcODL1s+fqh3xmWEErK+fPiVmDiniQSSuIicyRmwNARkptiwLjXvebZQRg0K1uhgI+h8fmxNVe/FzVa247KatIx4z0sJQw2o+FsCxtorp7u7867YMscqjiXrEfX3p7h14ZP1BKyUxoNDMLUmX7ZdsEmDA8zQxHRQ335ObWnyaEaL9vQnv6ff2duJz/9oxoh9j8vfLZuPSFZOspdB5YWurdLE4EqHElA4Ffq+D4iVv3Z5OGe/2VWFVs+mHL3B8yfvw4kL85qIZKBqhucifUL+HQWHE1hCQjx5VJC1bhqgKxNb6blx4fVXIVhULSwZKYJi7SKG/5c/fuUMWtCMRbRUyCxJWVbM68osnlcpqw3AD9PsznFVDBx8PfL4y7AKP0Fq+RBR674rCdKwRTDB5X7Hdnm2Y7Dg0e1KanDIYOB1HUASCwRehq++twf1rfTvnRCp+/tAv9vcfGbla+ZOrivHrC2eEbX2ymeDC67dIZygjMTXfLTtzfeiIAnldQoEviYxgRccT7KPxzJbWEdukR6rFCsSfX9gv/Z8bQsOIrSEgDBp/3pLAAenDbaclsXBF99iGg/j07dUhWdLRVCHTBSQ9YP3j1QNWit0OSOE9aW5uyAWfEzrfoChy3LM/0bwchFN4RwotRzrIj5VgRkNv/wC+eu/OIWIYS3eHrEr+5+v1+PHje4JWK1eUZOAh8YLEzlLhEOxlYTh4LReXZ+Hshfk4akaWvOZOGKGHbfsvV7dhS1132G38HB3wf8KKDhW++LIGIFjPasNQjNgahsAH+3MnlOK7HywfUvjzrfkHj+3B9a/YQjQSLKBHCm83Eq3dXlwhhPblbW1WSnCirVI8IKz1C4TVTus9ELw+p1Tk4cpjS6TFG6rwcnzmh/++OWBByLbGP1/CmoTwhYIhDT983Rb5EhQvwi2M481PhUXl7583kqg5w8GaiLd3deCqf21HbcvQWMe8DxhE45SK8IeW3fJmA75x/05r6fATrmUbrDnEEJzoXwENCQfFgGJ67rVbZEGuYeFz/9om3OCw+EKBVXscahENbGsKRWgJvVNNL4y8wN1U1xVUaAmvz/NVrfj4Ldsw+wfv4pIbt8q2ZHbeCgav3bNVLUEtjvI8d8S+m2kxx1NoyZ6W3qDDVcYKtOyrG4L/buHCYT2rZmbjmasX4pxFQ2t5+Fu+uqNN/rbhslLco3wpHAswNCc/ocKaHw5fMkIbHkZsY0WyCxlTy1C+qFx+yqZmwK+mZ9zBrv2nX/O+DB7NgoXh5b7/yJ6gghEIdrTiGMdgbb+hwEg7w0X18Ye9nSNtq2VB8vTmVmtpZHgtKLxs353x/TVBhZcdVBiIOxiVQTqihcKuOFYfj1XomCUQDMIRifgNB4cO3Xj5HPz43GlDqsbf3tmB9t7wh77QIUY0nbliAduaWVvxx4vDi4G9ua4bd68242vDxYhttCS7UXjSiTjv2x/HxZ/5AE676HT5OfMzl+Bj370MZ108F4Xj2KsZeyx+7l/b5Yc9j0dy+u/PJcKqZfDqaHheiNQ7u0JrH6a1EE0nLBackbrMcwrvHGHxfuLWaumhiMLLoTocNxuMcL0ROWE0mXjDjnCR+AOOF6n+qmcRqfiNBIXpyyeV4dEvLvBpo2XUqdqDQ6uYRyJHvAwy9uzhICstWYbgfO97R4btyY338h+f3x92OWAwYhsd6YVY/NlLcM4ps5AXqEZICHHxwuNwztcuwsnHRD62dCzAaiNauuFAq5Y9NqNxPVff3oe/vhS6VcuwgjOHcfY+Euxx/O8rK7DlB0vxl0tnyV7CkUBhemLjQdn2S+H91K3bgtYIsE07K8LhULTE2Z4db+i4gO31Y4XkIJcrUvELBVYr8/568WtHyA5thL18GRAjXLivkaIAxZIZhWnSHzmrxKt/vFz2x6DFHg6sMXh0QzMeWW9cNEYCS8Gx8wSNJ5KzUfnZ87GyLNTqSi861j+Hxx+qQ3yKgrEHB+Z/U7xBhxLvMxB8uP/5Rr10NBAqkQxhGA6eQ7wDxk/Jc8sOXbOKwn9JGK0xtux1fP9VlfIFaiwwnEOFWA0BGg6+TLG3OnsrX74y/kOAAsHvedGyQtkzuKG9X76YOqGYFuekyCaVWPhapterj9681fj1jhBj2UaEG2UXnR2G0BIXspd8AOddXCa2TnzopOGSZZMiFlpyQBQet7xZby2NDIWAlkcsoQXijFtLi5fDiiJxPhGMouwU5GVG1sZMsaVXqXjDgjySSDeHA3ZEi3dnLme1MjsRxiMK0HCwNqSyVI1fZm3MvJJ02TPe+WEa18VCaPkd2YxkhDZyjNhGQPZJp+O0hZG1Q2YsPAUrFiW+3H72uFLMjiK0HS1KeqhitWCoMORXPEPZ+Qsv49b+4rzpUQsvq71ZeEZCa5dXWN4Tr/2ML1b8LQLx7u5ONIzCNdHVyjd/Yk5EPXPZVnpGpaqODpdp4j4frWAF7BDFfgihxKk2BMeIbZi4KlbhrFOKZbikgAx0oPqxB3D7T27D7X/6D9bV+benuTH3Q8tQlsB6S/H5yPJCWRhFCoea3PF2eD0ez5ifH9PQgcPB78a4tZ8/sRTfPyu68acsNMOtgtS09fSHFbEmUtguzOrKeEPLid+HH/YRYNUlP/9e04jfPLNPfr541w584tZtaOoIPNwp1kOARoKiH2k/AQ6Ji2QI0OLyjLgHKuALL8eGf+SGKiO0MYBPuGmzDZk8LLz6fKwI+jLajap7HsbbWxytsunlOPbq0zHXz/jZ++TdeP7txGy9XT4tC7+7aIb0eBNJDRYf8mCRcYJBS2c4X87xgkHs6ZzgriiGQtD/7VdPnWwthcdo+qd94ssL5LjTcGG/qk37u6SDCG2Fs2f2XstRBNsuY/3C8D+nT8b3Pjg1qhe+0SCUKECBiOaeCYVwAzMYRsZYtuEwex4WBxVaLxpe/I+v0JKeZjQEKIfL55YFt47HOfTRe9qfN+Hym7dJ5xAUz3CgE/gbXw/PcUa0VcjsOXzWXzfLOLP0NRwqdW2esAtKfyZHUR3IjjFjHb5wPbiuGd98YBd+/fRe+WHUJgYS4Ccelnm8hgDFmkiHAEUTD3ok+BL0yVuq8bX7dhqhjSFGbMMgY0px0M5N3Zuew/MvBxgLml6MsinWvJP8DBzeIe3x56nNLTj+dxulH2V24glFdDmU5V4heOGGjYumCpkFCp21cywvAx3M++Fa6T0rFOF9r7Yr6iq2GVEMVao6MHrVpePJeUY8hwDFElre4Q4BYu/1mYWx66Cn4Rja6145gFP++L58dg2xxYhtGATzCOWtewtPPhBgSA+HB33yRMyawFeZVYiPC6vx6F+vx/97YOehqsNgbGvowU2vhd4DmUTbC3l/q0dGR9HwnBkr1im8/A7+wssq5GgdsbO9L9LhNHTIv1ec+3ggmMeneEFrmdXW44G5xRnSr3OocIjYpOzYDcHifUQvccf+dgO+98hu47AiThixDQNvwA6HHdjwRBU6hqwbYXhQl2fCjLclFDA6Xz/qV+vxXfFA+48JJGwnuu2thrAf9mirkIezTrXwfvLWah/hpZOHWrEN20yjIVtY45FGqekTFvloOLTQ7G+L/I4N5vEpnry+o23M+3MmHA97zKzQrVs6WonUCYoThhKkw5hFP31PeogLFGzBEDuM2IZB985aIa3+eOANcI+ONDyobsvEcW7hhFW2DHJw5M/fw++e3ecjrPTEc8fbDdZS6Jy3uDDiKuRwrFOn8DIAwTl/3xJ2dbc/7Imakx7ZufeIcx+ppiCWtEUh7Nlpo1/URDMEiM0ZowX9hjNsY6gwelYk49fZjMOAFezZzf4JlT9aix8+tsdYsqMEf7HRu6vGPYF7I7O99pEH9kL7nncvWoXzLqoM3ibbU4Vn/vQW6syLpPLTevoUfHxlMX7xZC1uFdZvONB5Br0vRTrWdVdzLy647vANbYgmBiu9WZ13XfSCHyrRhNljDN//uW+ndLDADkF50tkCsFBYaewkROgfOtcKV5gl0gaFOgSKWxsO932uAqdWhO8qlbGTGTqRIjgaPZrZxszfMpTOYoxqdVplnuwkxZc1HUfYCfs17RH3Nps+2AmN/RE4jCcendEMoWHENkzcS0/ExefNGtKT2NtYjTVv7oJ36jKsXFo4TE/jAMODDHKcKauRwzUoog0Yzrf9fa0eWbje9EZ9XNwxDkc0Ajacy8J4EMvg7KESKG5tOEQ6BIjix3itnzq2GP9PvAzG+ztHOgTIMH4YvacmQfCsewvPbxraA9RVNBcrzz0dxw4rtEGGBxlk9XIkNXf0wBNNQeh0TqG9Qv3wnKlx9UTlZHJe5MN+gjl1MNhEEwJvweQM/PG5/XIcc7xdYh7OKECG0cGIbdh4UPeAEMwhnqFGJujwIENEsAqZ7VexQgvv1adMxrvfWTIqwjslL7zIK072tY6u2B6OMHvRvIyQSIcAOcWP7fRnXrNJDoeJV1NuJEOADOMLI7aRMNCBqn8+hjd2hj7GMejwIEPE0Nk6xTEeOIV3jRDeNd9egm9/oDzmwjspO3Kx5ZCl0eRwhNnTbbiRwjbK13eEXzXrL37sREQnLd9/dHfc3FaGOwTIML4wYhsp/a2ovu1ePPK0ePiGHV3gRceWF/HgjYGGB0XB2Ih0dliJtgo5VNjxk75vGTLQKbzOIOKRQMu8KCuyH5JDWug/OtEJFrc2HN7e1R7RECB/8eN7BnvSX/SPKhkFJ9aEOwTIML7ga+OP1KwhEnprd2LL61tR2zqArMIspKe7wY6BXk8HWvZWYc29L+KNN5vRH0ODwL3oOFz8mSORfnAP9tdPzN6FFCr2Yi6MUKwihRZPfmaKtKq/eFIZLltRJJ1S0BlHuOHHZhSm41PHlkQ0bKnD48U/Xq3H/lHqiUz43S88sjBu15xWMzsKMYIOLVIGImBb6XNV0Y1lptB+eElh2I77M8TvslWI6nt7fYPD72/tw11rGqUnp/llGeJlTFyYGMCe2h3iHuI47kTEPWUWFn/kBJzwoWOw4tRFqJiXA0/jATS3jt5Y8cMJ75LRrRcyRIdPYANhNe9YjZceqkLzBGsKZu/lK4RQfWJlMSqsuJ6HE1o92+q78f1H9+D5EMXhAwvyccPHZ8vg3uESbeDxSIhmmBXbeh9a14ydzb1o7e6XHZcorhRW9gCPd+10pEOA7lnThC/evcNaGsqnxT34vbPKI4rcE4hwhgCNG9ILUXnxKVgxOztA59GJMzrDVCOPK9woP+9ERwQhF7Jnr8I5V5+LFfMT3dOyLyy8//HqAZz4h42Y/+N1+D8hciyoRrtNUUOtZ6DucDrj0NJKjTC0Hq21Dj2we5SIJszegPhdGNSdQQjof5fBKjj+k9Wxo/GTvbajPeyAGGSkEHg3v1GPD/xls/wusYC9oBdOTpxn2V2xDOd8/VysDCi0JEMI8YmYFbpPj3GLEdtxhHv+Mhw7P0CHoJRCLFxSaC1MPGgFXPty3SHh/fmTe2W0odHW3U11XfK4oVKe50YaPTtEADvs0BvQaEIrlF6rIoE1rbGqbo2EaIYAjSR+jFL1wb9skq5Go+2tnTBDgFKyMevSi3DxZYtROJLRn1yOyiWJbywYsR0vpJdh6bnDeKUqyoYZpaeE9w/P7cOxv92Iih+tHTXhpXu/pzeH17ZYGUXs3fEUgYfwpYIvF4cLum6sEaIYLqGKH0WWHrI+e8f2gH6/Q6VP3EfRhFwcC7hnLsSZ37oIJ8wPZs0Opbgs/Cr+8YYR23GBG2XnnojK+IWwTEicwrvoZ+vw22f2xU14Oeb1mTAjABXnRN7OF01QgGgYbyKvoVX+zq5Oayl0aIyHM/6VnZs4JpfevUKptnb6K2aQi/LvrJYB28clwpotv+BcXPzJo1AW4Nb2elrR3OJBoPqFhrroOsGNB/jiYXojj3Hc84/CmaeUYdiBJslt2PXaPjhbjljtvHR6B/bvN6N72VP41e3tuOn1elndx9idHEebm5EiC9RoeW17G/75Ruh+nTNSk/HZ40pQFqEVs2pmDr50UhmuPL4EHzqiAMunZ2FOUbp8kWBVb7yi3Zy7qABHTInsrY9RZRg0PlzYZlpRki6HWvF7fmTZJJwwJxdnLyyQIhpqtBq2kZ85P3+IH+GRyEx1yXjHTZ2hdVpij+q7VjciU1jFS6cNDRpAK5g9nK99+QCuunOHDMjx+MYW+T3iXAETN9wzK3HCZ87E0qkZASw4L5pXP4vHbl2DLW9uRF1OBeZOdpRmAzVYfd92tCb4wAreBeP1950YuMuw8uoPhGDVVuGZn7yFOmuJ1c4rv6K28zZuwPO3rUWdcV41BDqp+NjRRbhk+SRML0yTHZ3ChYXn/wprhCIeKhw2wp69jE0aD9hRjJ2ZGtr7RSHeKzvwbKnrxsb9Xaiu74m4bfEHH5qKr5462VoKD/qf/v1z+zC/NEN8b9XLb0ahG1Pz1TXIFWI41XJS4nYlyyAVw8EXiqvvrcH9a5utlOHhmNkHPz8f0wrCe8GJ5PfVMGDAny6eKXvPP7+1Fbe/1Sis3vZR708QV6YsxnmfXYZgFcGtrz6MR553WK5FlTjrS6tQbC2i3wNPshscAedtq8Gah95C1c7EMxCM2I5pXCi74CKcGVLnAafYulF28fk40xnib6ADu599Di+9mfjVNZFC4f30ccW48MhJ0uoNVXgjGYbDiC33X1UZceD4aKGA0AJjZBie/4vbWnHXO40jinA0gRNiDYOehxsVKF5DgCY6eR84H+cdE+S6DjTg7ev+g6pGMS9Etfyi84cNP5qow4FMm+0YxlVxFE4IuZdeIfKsDsmuimU4wf9mTs7GdD4QHxouUMLEhmH2fvx4LZb+4j2s+OV6XPPifhkvdqS2tw17O8Me70qPVKxKPlzQ0qL3qmXTsnDekgL814qiiK3dw0Ukna7iNQRootP67ItYF6yFILkYKy6qFOVTOVZ+6ZIRhJZkoPLcJShOMHUyYjtWcZdhxXnD9D4OBH/N4bbrqsLbzzcH7KBg8EUL75Kfv4dVv90g3fQFEl4KFNvzwoVttRS8sUKoHZ/oIjJe7cGjQTyHAE1oBlqx4YG1CPYkuMpW4byvnI7KQutVv78Ve7fUoDlYO21mJWZVWPMJghHbMYkLZR8K1vu4G1WbdlvzTlxwJY+w3WNrUTe64VoTAno4+u4juw8J742v1csepBTeA219eKW6zcoZOuys499x5nByuHo3R8vsML1ZxXsI0ISmdkMIzVT0evcWHv/Dw3j+nlfw+I2rEbgl3IXCksS63kZsxyKzlwWtPvZseR3rXtwf4AYtROFxwauduze9gnUmjm7UUHj/96FdmP+TdVJ4f/jYnohcJs6eFL7Lw3jBMcIMnxcKhyPM3nCkhvnCEu4QIH5Xerv6gfidbwmjt/lEpfXZ57CGbbPBaFmL5++oQrN+36nfLV5+rHk/WhPMB60R27GGbN9YGLgauKcarz6yN2iYvllLglQfi+3eeMyE94s1FN6H14fWE9afGWMolBoFpS5Ey/ZwhNkbjkiiAg0XBSjQuFeOm6WHsoTyVxwvBjqw6b5g1qogfxmOPcm2WLOXL8PiImvBSU8VarZa8wmCEdsxRt5px2FhwGpgD6qfWI29fCMUb3yhtxI6tjOMCYpzUg9bL+RA0NpjdJ3xyLQI4guzKrmhwxZObb3Sv/a8H62VtRZfurtGBo1PqCE6o0X9Jrz6cjC5daH4pBNRObMQlZdfhPPOnRXAQOhG1SNrUZdg1oER2zFG67MPB4yR69nyCtZstO6+AW/InZx8tjOMCTqEdciCfK0o4Bs7+w97tWxrlxeNDvEZDroiPBiic4exCqv96YSE1uv511VhxvfWGOs12YXs+cUxc/na8fIreLsuSCmVXIyVnwwSnGCgGZvuTswoQGac7VgluxALLzsbK6aI23GgBi/97hXsPmSd5mHx187H0pEiZfRU4/lrXjdW7TiAPZPnlqRj0eRMGSOV43Dp7IEuHRmCL54hBN+r7cQ5126RFu5IRBNmLx4watCHr9sy6kEZEgaK7KIlWHnGQpRne1F1z71C6GI0XqGkEmddtSrkITyJ7nzHiO0YJ3v5cajsX401651vetmo/NJFWBmoreMQHlQ/8ADeiJlVm43i+UDDFuOG6nDAMZ70gMQesRQ6emHiWF32kqUYR+Ny8vUd7fjw37dYS8PDscGPf2k+jpyaZaUcXthuzvivoXbwMthkL1lmiazDvmxZjUeElR8r1zfZJ52N804pHmrBOqHDnZdfxBsvNyd0vxIjtuMSN2ZdcRlOmG4tBsBb/SLuu3N3zG5e15IT8V8XzAI69mLTs29h3XojumOJGYVp0vXjiunZ0jqmH+HZFON0F9JHcJ4RrnekJ768AKviMAyGnZa0dc1qbR09h+4mdzWrO5nDdrYcUGEMud6IbPhkz1+IFR9ahulOkT2EFzUP3Y1X18fIuk0WhsFnz8fKssBy623chJfuXI294bvMHncYsR2nlF38SZy50FrwZ0i1c7TkYeHV52NFvrUo8Fqiu2FjB7zj18fBhCBQFXVRdqr0EUyr+JdP7sWfXthv5R6Z4cTWCObYJWN2JVacdxRm5Q5nZ3rh2foKHrw7di/q0hfyF/yrk7ux+8Xn8MarwpqdIOWHEdtxStkFH8eZS4K8mT5yL15dF7sKGW3VBjyaEd0JxwcW5CM/w2UEc5zgnjlXWLKrMLdoOJFVVuYbD61Hzb7YlR2a7BPOxnmnqepkb3OVsGbfwt7IRs2NW4zYjlNcsxfjrMuWodBvBEmsq48DWbWB8HoaUPXEK1hnRNdgGBO4p8zC4guOw8IRRbYabz+xGtVxjbSTjcqrzsX0HU/jpecnjjXrxIjteCa9EJUXn4IVugv9wF68es1zqAnfe2BQXPNX4eJLKxGqu3cpuk+/jg3rWifkA2UwHH5UtLDTlmQM2zFJiuyTa1G9Q9VQxB1WI0/gMoG/hQkeP17p70bT+s2obkpF2bxCND/zNNbuiOU4wWxUXHoipo8YS9cm2ZWF4or5WHDMFLi7GtB0oBdjyLufwTABGERHCzBrxRQEHqDVgar7HsaTT9Sg+aCjvCgsw9wZQHNjnCzcCV4OGLFNAPrr92HbGxtQsye2A/Jd85fhtKOLAr8dN9aguiMLeVmugJ5RtOhW5B/Ali0dpvrEYBhNOprRWszx0IGeXjcG66tQvcsS1dxiVH7kTHzwrCMwfUE6Wt7ejdYJ6tsjnhixTRRiXj0znFXrwaaHnsDbT2/Eps2NcE2fisKAotuANfevQ0OXtWgwGEYJYd3W92HK0VMRaER0VlkymjZ3o/Sc03HWh5dgWmG6en6TClDg2omq7ePTfedYxoitISDDWrX73sJLzzaDL7+Dne3Yv1qJLspKUJTrPiS63q3v4JW3W41VazAcDrpa0BHMuk0pwqyVFZhWnGG/JPe3oublF/Dqy+LZNv0tYo4RW0MAMjDngpMwM8da9CdnCqbPSUH7rjq0W30rKLp1azc7RLcb6+5/G/XG94XBcJgQ1m1tD0qPmYZhXZDQg9MbL+L5f61BdU2XLbTJbhSuWoXTLp2C9jV70REjPxcTFdMb2TCUuUfhvz62MIQeyF7xMG/C24+tx956vycx2w1XhyfkgAkGg2EorrI8ZDS3QjxKEVN83mU4a2mQp3nfW3jwlir4xKEQIpu3dAlOOGvhoaGFDS8+gCdfNm/O0WAsW4MfGZh70SlBrFoP9m6sQX9hITJk3VMy3LmlmHXUEZiT04BtWx0doTxe8xZnMESAK78QM084CsdceiKOWVmE9vXVaIqi30PX/k4UrZyBXJpW/mT1of5Nq0MUgxIsXoHTrjgJyxeUWs+4gm289e8Y6zYajNgafJm7FGceF8RxeONqPHfbOrz/2mbU9qSjaIYW3X7UvPIOahuNvBoMEZM9HcdefS5OPmE+pk8rQJaLD1cX9r4TndiitwUduRWYOznVSnDADlGp+1CXWYnjP3YqVi4ptY7rR0oRipJ3omqH6TgVKQGuqmHiIqzaU4JVH3tQ9Xw1ZEXSgAfNb76Ox391Nx55bBOa963FpliF5TIYJipsdsn0f83NgDsG0QwbXl6NvUE6PeWtPBvnXbDYN/qPP+KZ96SLc7EWDeFjLFuDzXBWrUgtqpyKrL6DaKqzOlEMetG7fx+2vdsUQ/eQBkMC485A4ZELsOL4AjRvEc+NT2VQNspPngPfyJlutG57D3sbrcVIEdZtc/pMVE4NV7m9aF73Gp6561W8T1esVqohfIzYGixcKDxqGSqmOoYC+JMsCoo587Dw2Gm+omswGIKT4kJeRQUWnXsCTj1nOSorJqOgeKoQ1e1+/ogzULZqHor9/J03vR8DsRX07u1G7rEzURCo7XYIlsje+TI2bGhBr3mbjhojtgaLQXRv34oNa3aiPWMSykqy4Ar2UB4S3ZnITWpGw14jugZDMLJPOAsXnFOB4jzLcYRF1owi9G+uRkOnlSDW5gqrt9zPkUysxJbjaFtHtG6FyG56E8/f/hLWG5GNKUZsDb54etFSVY333w1FdNNRMNMS3bRWNOzsQL/pI2WYwLjcsnXFB09OCY5cUGgtOcnClJl92LGmwapOdqPo6DiKraB3j7Bujwtk3XrRWv0OXrztBaxb24xuI7Ixx4itITBadN/cjqbsIpSPILq5vXvw/vpW06ZjmHC4yspQccYqHH/RiTj6qFTsf3MfupwvnYVTcOQRvi2xh8gsRdFAjeWn2IuseUsw00+XYym28Arr1i2s22nauvWiY8e7eOlfz2PN203oMp2N44YRW8PweD1o16Kbnovisly4h4huN7Y88QZqD1qLBkOC4zsWdh7KS3ORzjri1GKUZ+/Dpq2OsTrphZizbHKQnrzJyJpehN4t1WjqHERG5ZGYU2ytsoip2Ap6a1uRftRMpNe9j1dvexpvv9WAjlGKsjeRMWJrCA2K7rYabAkgut7db+KVF1qkr+SoKFuIc75yFIqSO9B+oAO9oxF5JMUFd2YqXG4XXCniu/SZenDDyGQddQrOOKkc2QHGpKZOnorUPZuwX798ugswM0hAAElSFsqm9qBmbRPcC4aKbe+ezajZG8M6I28H9r6zCVtW7zvkbtUQf4zYGsJDi+7rQnQzKLqp2PHYa9gdA6u2+JTTsXhqLgpnzkHl8YuwYEE+kgeE8DZ0x7wDVvaSZTjhv07BsWcuw+JjF2ERP8ctwZEnLsCcilwMejrR1Rz74xoSA8/u3WgoniOEMYCjCKSieK6jOjk5F9OPnYFctTIgydmTVXVyZxEWzPSV5d7arXY4vFhhgkyPOkZsDZExoEVXvME3WWnRkFyMBefPdwx7SIYrqwBlFRVYePwCzJydiu7aBrT6NIZFQHI2Zn3ifHzwmHLkpgcIC5gkLN2cQpQvEMeVQ5waUV/bbdqiDX540VHdjPTlc1AUUG+LUZ5/AFWM5exJR/GQ8bP+qOrk5F4XiooyrDRF187NsRdbw6gTdEilwRASsarqHWjAmusew/MvVqPB4ydtdIw+fTqyU6KVPBfKzjsbJ8z0LcyCklKIuR84F+d9ci7y/MY+Ggzw1OHt295CQ5Daj4wlJ2JFBe0ZgV+ehsYGa86BeOGsnB+o17IhETBiaxg7tDVj78uv48lf/Qt3/uNpvL2pAR5dSO17HzV11nykZE/HwiUhCq2DjJnH4ZzPVCLbPC0Gf+qr8OqLDUFqPjJQed5RKHN3oLXZSrJofvkVvF1n6ksmEqYa2TAmGezoQNOmarz/6kbsqOtGe20t6hqiNKNnV+KEQEMwWjbhmWv/g9df2oxd+zrhKp2MwkxfZU3OnoqZRQdQvcm4rDP4Mmz7bWoRpuS2oSVnKsoc42cH92/EW690YsqKqcgKNqTOwlQjJwbmXd0wthnwomNLFao2xaDbpLCSAwtlL7o5UsPjQas41hvX/guPPL0b/kfMqFiGWWXWQgRkLFyMpSfNQvmiYuRlu+E2Xt0TBA/qHnkFVUEi82QsWYJKP0cVDGeHxio8/1iNeXmbIBjL1jBxaHchL5D3nPTJmLsoHc1b96K9RyX11u5ETWsuZlUWINnTgC3/eRbP37cR9e1qfSQUnXwWjj16BmYtmIdK9n4+4UgcefIiVCwTy4uKkDt9ErIzXUjPSEYvhyCJF43BCdgb2pXpRmpOHornFCKvJBdZ7kHxMuQZ29eCw2mqezBleSBLNRWpfkavtla9dXXD9GpWZHXtwfpNJnD7eIe3hekDbpgwZKw8HReeVS7fMocw0IHdL7+IN15tPtRWnFGSDU9jB7xRF/TZqPzSRVg5fJfUoQx40NEhPvV70drVjt3PbkLdOC93XcKqzy4pFi8WGSicOwkZmXkoF9fZlZmNjGAd0cR1aFj/Cl56bC+6x7DoZp9wNs47LVjkLJuGFx/Aky9bP6S7DCuv/sBQ61ez6Wncfl+0HRYMhxtj2RomFP1792JvWinmTM0KMOzHjbyZFViwvACe/fvQ1OJFf6ewqGLyOpqHmacOjegyIhyKlCbEqbAIRaWpaFobZSBxfxiRZuYUTFuxEHOXTEX5fPUpzBdv4f1d6OqI9bt4GY7+9vk4fslsYeFPQ1mp+F6F2fI7pg7XqCWuQ1bZbFTO7UTNu+JlyEoeaww//tbGpx2WVvHuAcxcNhk+IQL4grF9Pda+VIuWDlPZPN4xYmuYYHjRvb0aVfuTMWV+KTICFPDJbmFpHbkAc0pbsWtza2yCK7iLMOeUmSiwFiOjFpv+s1cF8I+W7ELMPe90nHXRKiwQwjdtGsXc/pTNmY25K5Zg0bFT4G6rw/4DsZO37COGOtsPleScKcjtrkbN3tFwLxYJI4y/tUht3on3nS4d2+qxd3AKKmamo333Fqx/6nW89MgabHuv3ghtgmDE1jBhyF6+EOXeBrR0iiKxqQ7b3tiOppxSTC8LFMM3WejjTGFJ9aBmnX+Q7wgY7EDd6hrU7t+LugOd6G7rQn9GOjLSUkPvpdi2B++/WY9ofcW7py/EaZ87BQtKh4ldbJHsykLx/AVYNK8Hu9c3oTfqKtzAzvZDJxm57mZsWdcydjsWDdt+q3AdrBnSDuvZU4NNr76HLe/uQ1Nj74Rsr09kjNgaEp+UPMz92Dk4bdVMzFxYgPbqnVJwpResKsbw3YPeydNQnj/UFEnOmYop7p2o2h6lxA0OwuvpRVd9O1p21WHvlt3Y8WYzMoJ4FmptrEO/MN68Lkf16oFqrItWZEoqceZnVqJ0pEZFP3gd5grBrVkjXjystMgYRMacRZhTGkDm26rxxuOrsf65d7D27Z1oz5+GaZMCmId5Pdj/Uows/HjR2YS6AWGpzgrQXEEatg/t9CTuESOwiYsRW0NCI624L56GBZPcqtBLzcP0paXo37UHDa2WbHm60fTeJuxKmoK5M4YWjulTklD/qijcY918WVSOxQEd1Hux65GH8Nzjm7Hplfew/pWN2LJ6E7ZtaUd3bzRSm4FZl5yOBfkBi/8Rof/emFThlkwd4v9XMliH9x/ciqZuL7zd3WiuB6YdNUWctT+DaNpQLfJZi2OUQO233ra92PLGm3jjhbrRCbRhGDNE9tQZDOMET48XQwKzpJRhxRWX4JzzypHt6LDU+vr72G3N+5BciLx4eNHLzUGeNetLs6/HoQEvPOyR3BZlu+nsI7ByemCTtnXd07jvF7fh9p+Iz5+eCzJm1IXyY2YFOefQ6Whuteb8SHfJt/9DdHUPGeus6ED3mDZrNWr87aaWBtS8/goe/9NtuFNc2zUv16HVGmJmmDgYsTUkNvVVeP7uTWgeUj3nQuHS03Hhty/DeVcch5UXrMIJnz0Rs6y1vrQKgbBmY4grNyNIjNP4HC97elmQ41VjzWN16NaWlrC+1jxbYy34kT8DZdG+eHR5glRFi5caZ536lBL4RZtTtDShNXb9teKLpw5rrvkPXhXXs7nNSjNMSIzYGhIeT/VqPH7jW6gLVG0ngxzMReWSSswqCmz1eTbtQF0c2tIycrOtOT/a2tERh+NlFwVRyUYhXn7H8/YEU7M8ZOdbs5Eivl9g2zYPs85YhZUf+wAu/Ppl+NhllQFeDrzY+2ZNkO0NhrGLEVvDxKCuCs9c8xje3hGmb+OuKrwkrL549HylY4eABLX8xgJuuKJ1M9ncEUQs3SiuqETl3DJkZ4vjWKlOujc9h1ffNhHPDeMPI7aGiUNHM6rueAD33fgKNuxuHUFAvejY8RYe/6uwiOPSvpYRvB24uTVIW2WCMCBeJsK8pl5PA6qffgyP3Fc3hl9EDIbgGHeNhokLvSdNn46y+SXIc7uExeYVhbqwnup2YPe6hjh3YsnD4q+dj6W51qIDH1d+MaTs4k/izIXWgpPGt/DgtVW+Q2nmr8InLq20Fnypuuc2vL3FWoiIYVxX9nejo6sVDTtb4elowt66DnTva0BzczzqFgyG0cNYtoaJS78XrTtqUPXEW3j7odfxxj2cvoUNb8ZbaAXJ2cgOILSko20s27VC9KJuT+5Aa70168/Ot/DIn57Gq+J3ePvZauzdWGeE1pAQGLE1GA4HhdlBhtB40N0WH3EJ2unJHbh9NDB+w5IipLstiOWenxFgXK3BMP4xYmswHA4K8xG4ybYVHS3WbIxprt1rzfmROxvTp1rzEjfKlwQeBIWeBjQ3WvNR4OkKYr0X5SNIH22DYVxjxNZgOAy487ODWJOxsRwD4d20CzUBq4DzsPSKy3DWx1ap8cZfuAgnzw/c5bhb7KPBmo+G7sZgXzJODkQMhsOMEVuD4TDgFlrW4QlQXdzcHj+fv57dWPdiQ+Be2MluFM+tVOONS4JUKw/U4O1nYyG1AvE9A8ttBtwRRgQyGMYypjeywXCYYTD1jHxh0QlrtzC/FZteDSKIMcGNsovPx5kLw2wZHWjGprufxprqGA28yZ6F075+IsqtRRsvNt35L3Eca9FgSBCM2BoMEw43Ck86DiefNB3ZIdRteRmN57bXURPT6u08zLpgOlzVzeju6kBDfbfswOU1zvkNCYoRW4NhopKSjeKj5mHx8lkoLsyG2yG8Xo8QwN3bUP1yNWpqjccmgyFajNgaDAaDwRBnTAcpg8FgMBjijBFbg8FgMBjijBFbg8FgMBjijBFbg8FgMBjijBFbg8FgMBjijBFbg8FgMBjijBFbg8FgMBjijBFbg8FgMBjijBFbg8FgMBjijBFbg8FgMBjijBFbg8FgMBjijBFbg8FgMBjijBFbg8FgMBjijBFbg8FgMBjijBFbg8FgMBjijBFbg8FgMBjijBFbg8FgMBjijBFbg8FgMBjijBFbg8FgMBjijBFbg8FgMBjijBFbg8FgMBjijBFbg8FgMBjijBFbg8FgMBjiCvD/ASVF3BQifdubAAAAAElFTkSuQmCC;fontFamily=DM Sans;fontSource=https%3A%2F%2Ffonts.googleapis.com%2Fcss%3Ffamily%3DDM%2BSans;" vertex="1" parent="1">
          <mxGeometry x="45" y="-1893.49" width="60" height="57.98" as="geometry" />
        </mxCell>
        <mxCell id="Bv4HINr5L_t3ciSNorM6-14" value="Log Out" style="text;html=1;strokeColor=#001DBC;fillColor=#0050ef;align=center;verticalAlign=middle;whiteSpace=wrap;rounded=0;fontFamily=DM Sans;fontSource=https%3A%2F%2Ffonts.googleapis.com%2Fcss%3Ffamily%3DDM%2BSans;fontColor=#ffffff;" vertex="1" parent="1">
          <mxGeometry x="715.5699999999999" y="-1880.5" width="60" height="30" as="geometry" />
        </mxCell>
        <mxCell id="Bv4HINr5L_t3ciSNorM6-16" value=":" style="text;html=1;strokeColor=none;fillColor=none;align=center;verticalAlign=middle;whiteSpace=wrap;rounded=0;fontFamily=DM Sans;fontSource=https%3A%2F%2Ffonts.googleapis.com%2Fcss%3Ffamily%3DDM%2BSans;" vertex="1" parent="1">
          <mxGeometry x="345" y="-1880.5" width="20" height="30" as="geometry" />
        </mxCell>
        <mxCell id="Bv4HINr5L_t3ciSNorM6-17" value=":" style="text;html=1;strokeColor=none;fillColor=none;align=center;verticalAlign=middle;whiteSpace=wrap;rounded=0;fontFamily=DM Sans;fontSource=https%3A%2F%2Ffonts.googleapis.com%2Fcss%3Ffamily%3DDM%2BSans;" vertex="1" parent="1">
          <mxGeometry x="420" y="-1880.5" width="20" height="30" as="geometry" />
        </mxCell>
        <mxCell id="Bv4HINr5L_t3ciSNorM6-18" value=":" style="text;html=1;strokeColor=none;fillColor=none;align=center;verticalAlign=middle;whiteSpace=wrap;rounded=0;fontFamily=DM Sans;fontSource=https%3A%2F%2Ffonts.googleapis.com%2Fcss%3Ffamily%3DDM%2BSans;" vertex="1" parent="1">
          <mxGeometry x="476.15" y="-1880.5" width="20" height="30" as="geometry" />
        </mxCell>
        <mxCell id="Bv4HINr5L_t3ciSNorM6-39" value="Predict" style="rounded=1;html=1;shadow=0;dashed=0;whiteSpace=wrap;fontSize=10;fillColor=#0050ef;align=center;strokeColor=#001DBC;fontColor=#ffffff;fontFamily=DM Sans;fontSource=https%3A%2F%2Ffonts.googleapis.com%2Fcss%3Ffamily%3DDM%2BSans;" vertex="1" parent="1">
          <mxGeometry x="472.25" y="-1530" width="127.5" height="26.88" as="geometry" />
        </mxCell>
        <mxCell id="Bv4HINr5L_t3ciSNorM6-40" value="&lt;font style=&quot;font-size: 14px;&quot;&gt;Example Images&lt;br&gt;&lt;/font&gt;" style="text;strokeColor=none;fillColor=none;html=1;fontSize=14;fontStyle=0;verticalAlign=middle;align=center;fontFamily=DM Sans;fontSource=https%3A%2F%2Ffonts.googleapis.com%2Fcss%3Ffamily%3DDM%2BSans;" vertex="1" parent="1">
          <mxGeometry x="510" y="-1780" width="100" height="40" as="geometry" />
        </mxCell>
        <mxCell id="Bv4HINr5L_t3ciSNorM6-41" value="&lt;h5&gt;&lt;br&gt;&lt;/h5&gt;" style="rounded=0;whiteSpace=wrap;html=1;fontSize=14;fontStyle=1;fontFamily=DM Sans;fontSource=https%3A%2F%2Ffonts.googleapis.com%2Fcss%3Ffamily%3DDM%2BSans;" vertex="1" parent="1">
          <mxGeometry x="380.25" y="-1740" width="290" height="190" as="geometry" />
        </mxCell>
        <mxCell id="Bv4HINr5L_t3ciSNorM6-42" value="&lt;span style=&quot;font-weight: 700;&quot;&gt;Choose Files&lt;/span&gt;" style="rounded=0;whiteSpace=wrap;html=1;labelBorderColor=none;fontSize=14;fontFamily=DM Sans;fontSource=https%3A%2F%2Ffonts.googleapis.com%2Fcss%3Ffamily%3DDM%2BSans;" vertex="1" parent="1">
          <mxGeometry x="380.25" y="-1780" width="109.5" height="40" as="geometry" />
        </mxCell>
        <mxCell id="Bv4HINr5L_t3ciSNorM6-43" value="&lt;br&gt;&lt;br&gt;" style="html=1;whiteSpace=wrap;container=1;recursiveResize=0;collapsible=0;labelBorderColor=none;fontSize=32;fontStyle=1;strokeColor=default;fillColor=default;rounded=1;shadow=0;glass=0;imageAspect=1;allowArrows=1;align=right;verticalAlign=top;fontFamily=DM Sans;fontSource=https%3A%2F%2Ffonts.googleapis.com%2Fcss%3Ffamily%3DDM%2BSans;" vertex="1" parent="1">
          <mxGeometry x="189.75" y="-1730" width="160" height="60" as="geometry" />
        </mxCell>
        <mxCell id="Bv4HINr5L_t3ciSNorM6-44" value="" style="triangle;html=1;whiteSpace=wrap;labelBorderColor=none;fontSize=32;rotation=90;fontFamily=DM Sans;fontSource=https%3A%2F%2Ffonts.googleapis.com%2Fcss%3Ffamily%3DDM%2BSans;" vertex="1" parent="Bv4HINr5L_t3ciSNorM6-43">
          <mxGeometry x="132.32999999999998" y="22.5" width="4.67" height="15" as="geometry" />
        </mxCell>
        <mxCell id="Bv4HINr5L_t3ciSNorM6-48" value="Select AI" style="text;html=1;strokeColor=none;fillColor=none;align=center;verticalAlign=middle;whiteSpace=wrap;rounded=0;fontSize=17;fontStyle=1;fontFamily=DM Sans;fontSource=https%3A%2F%2Ffonts.googleapis.com%2Fcss%3Ffamily%3DDM%2BSans;" vertex="1" parent="Bv4HINr5L_t3ciSNorM6-43">
          <mxGeometry x="30.25" y="15" width="79.75" height="30" as="geometry" />
        </mxCell>
        <mxCell id="Bv4HINr5L_t3ciSNorM6-45" value="&lt;font style=&quot;font-size: 14px;&quot;&gt;INFORMATION ON AI&lt;/font&gt;" style="text;strokeColor=none;fillColor=none;html=1;fontSize=32;fontStyle=1;verticalAlign=middle;align=left;fontFamily=DM Sans;fontSource=https%3A%2F%2Ffonts.googleapis.com%2Fcss%3Ffamily%3DDM%2BSans;" vertex="1" parent="1">
          <mxGeometry x="194.42" y="-1665" width="100" height="40" as="geometry" />
        </mxCell>
        <mxCell id="Bv4HINr5L_t3ciSNorM6-49" value="&lt;font style=&quot;font-size: 12px;&quot;&gt;AI DESCRIPTION&lt;br style=&quot;font-size: 12px;&quot;&gt;AI ACCURACY&lt;br style=&quot;font-size: 12px;&quot;&gt;&lt;/font&gt;" style="text;strokeColor=none;fillColor=none;html=1;fontSize=12;fontStyle=0;verticalAlign=middle;align=center;fontFamily=DM Sans;fontSource=https%3A%2F%2Ffonts.googleapis.com%2Fcss%3Ffamily%3DDM%2BSans;" vertex="1" parent="1">
          <mxGeometry x="219.75" y="-1620" width="100" height="40" as="geometry" />
        </mxCell>
        <mxCell id="Bv4HINr5L_t3ciSNorM6-50" value="Drag photo here&lt;br style=&quot;font-size: 18px;&quot;&gt;- or -&lt;br style=&quot;font-size: 18px;&quot;&gt;Choose photo to upload" style="text;html=1;strokeColor=none;fillColor=none;align=center;verticalAlign=middle;whiteSpace=wrap;rounded=0;fontSize=18;fontFamily=DM Sans;fontSource=https%3A%2F%2Ffonts.googleapis.com%2Fcss%3Ffamily%3DDM%2BSans;" vertex="1" parent="1">
          <mxGeometry x="402.96999999999997" y="-1680" width="246.35" height="70" as="geometry" />
        </mxCell>
        <mxCell id="Bv4HINr5L_t3ciSNorM6-51" value="" style="rounded=0;whiteSpace=wrap;html=1;fillColor=#000000;fontColor=#ffffff;strokeColor=#000000;" vertex="1" parent="1">
          <mxGeometry x="31" y="-1480" width="769.5" height="30" as="geometry" />
        </mxCell>
        <mxCell id="Bv4HINr5L_t3ciSNorM6-52" value="Copyright C 2024. | Dario Prawara Teh Wei Rong | All Rights Reserved." style="text;html=1;align=center;verticalAlign=middle;whiteSpace=wrap;rounded=0;fontFamily=DM Sans;fontSource=https%3A%2F%2Ffonts.googleapis.com%2Fcss%3Ffamily%3DDM%2BSans;fontColor=#FFFFFF;" vertex="1" parent="1">
          <mxGeometry x="210.01" y="-1480" width="440" height="30" as="geometry" />
        </mxCell>
      </root>
    </mxGraphModel>
  </diagram>
</mxfile>
